<svg xmlns="http://www.w3.org/2000/svg" width="65" height="65" fill="none" viewBox="0 0 65 65"><path fill="url(#a)" d="M7.985 16.012C7.867 12.884 10.509 10 14.08 10h36.597c3.572 0 6.214 2.884 6.096 6.012-.113 3.004.034 6.896 1.096 10.069 1.066 3.183 2.862 5.195 5.805 5.454v2.93c-2.943.26-4.74 2.271-5.805 5.454-1.062 3.174-1.21 7.066-1.096 10.07C56.892 53.117 54.25 56 50.678 56H14.081c-3.572 0-6.214-2.884-6.096-6.011.113-3.004-.034-6.896-1.097-10.07-1.064-3.182-2.866-5.194-5.809-5.453v-2.931c2.943-.259 4.745-2.27 5.81-5.454 1.062-3.173 1.209-7.065 1.096-10.07"></path><g filter="url(#b)"><path fill="url(#c)" d="M33.95 46.409c5.878 0 9.42-2.878 9.42-7.626 0-3.588-2.527-6.186-6.28-6.597v-.15c2.757-.448 4.92-3.008 4.92-5.867 0-4.075-3.216-6.729-8.117-6.729H22.864v26.968zM27.153 22.86h5.706c3.101 0 4.863 1.383 4.863 3.887 0 2.672-2.049 4.167-5.763 4.167h-4.806zm0 20.127v-8.877h5.667c4.06 0 6.165 1.495 6.165 4.41s-2.048 4.467-5.916 4.467z"></path></g><defs><linearGradient id="a" x1="10.381" x2="61.597" y1="11.217" y2="55.303" gradientUnits="userSpaceOnUse"><stop stop-color="#9013fe"></stop><stop offset="1" stop-color="#6610f2"></stop></linearGradient><linearGradient id="c" x1="24.805" x2="37.232" y1="21.215" y2="42.234" gradientUnits="userSpaceOnUse"><stop stop-color="#fff"></stop><stop offset="1" stop-color="#f1e5fc"></stop></linearGradient><filter id="b" width="21.488" height="27.951" x="22.373" y="19.072" color-interpolation-filters="sRGB" filterUnits="userSpaceOnUse"><feGaussianBlur stdDeviation=".246"></feGaussianBlur></filter></defs></svg>