<svg xmlns="http://www.w3.org/2000/svg" width="84" height="40" fill="none" viewBox="0 0 84 40"><g clip-path="url(#a)"><path fill="#fff" d="M0 38.492a963 963 0 0 1 3.284-4.982 986 986 0 0 1 3.813-5.761q2.004-3.034 4.147-6.263 2.144-3.255 4.286-6.485 2.143-3.255 4.203-6.429 2.087-3.201 3.98-6.123-1.197.084-2.338.112-1.14 0-2.17.027a27 27 0 0 0-1.866.112 5.6 5.6 0 0 0-1.503.334q-.417.138-.89.556-.445.39-.835.947a5.8 5.8 0 0 0-.613 1.169 4 4 0 0 0-.222 1.308q0 .445.083 1.113.084.667.279 1.336l-.64.306q-1.67-1.17-2.644-2.477-.947-1.307-.947-2.45 0-.64.418-1.419a7.4 7.4 0 0 1 1.085-1.447A6.5 6.5 0 0 1 12.274.835q.751-.473 1.364-.473 1.03 0 1.892.083a123 123 0 0 0 4.286.334q1.364.084 3.396.084 1.837 0 3.423-.112 1.587-.138 3.34-.278l.111.612a410 410 0 0 0-2.81 4.092q-1.504 2.226-3.174 4.703a854 854 0 0 0-3.367 5.121l-3.396 5.233a2059 2059 0 0 0-3.312 5.065q-1.614 2.478-3.033 4.648A382 382 0 0 1 8.377 33.9a113 113 0 0 1-2.06 2.978 91 91 0 0 1 2.812-.11 63 63 0 0 0 2.31-.14q1.058-.083 1.92-.195a9.4 9.4 0 0 0 1.587-.39q.417-.166.835-.64.445-.472.779-1.113a6.7 6.7 0 0 0 .585-1.392q.25-.75.25-1.419 0-.39-.056-.974a9 9 0 0 0-.222-1.308l.612-.39q.807.529 1.475 1.17.668.611 1.141 1.252.474.64.724 1.28t.25 1.197q0 .612-.445 1.53a10 10 0 0 1-1.113 1.782 8 8 0 0 1-1.503 1.447q-.807.585-1.559.584-.862 0-1.698-.083a73 73 0 0 0-1.892-.167q-1.057-.084-2.477-.167a60 60 0 0 0-3.451-.084 35 35 0 0 0-3.507.167q-1.698.168-3.451.334zm35.264-30.95q.585 0 1.057.501.474.474.473 1.364 0 .863-.39 1.67-.36.78-.918 1.392a4.5 4.5 0 0 1-1.252.974q-.668.362-1.253.362-.25 0-.556-.056a1.6 1.6 0 0 1-.529-.278 1.75 1.75 0 0 1-.418-.585q-.166-.362-.167-.918 0-.807.334-1.587a5.3 5.3 0 0 1 .919-1.42q.585-.64 1.28-1.029.696-.39 1.42-.39M33.9 17.506q-.306.418-.752 1.336a45 45 0 0 0-.918 2.199 81 81 0 0 0-1.03 2.728q-.528 1.475-1.057 3.005-.501 1.503-.947 2.95a267 267 0 0 0-.807 2.617q-.334 1.17-.529 2.004-.195.807-.194 1.057 0 .53.417.53.334-.03.946-.307.613-.278 1.392-.835a17 17 0 0 0 1.753-1.42q.946-.862 1.949-2.059l.612.557a25 25 0 0 1-2.672 2.894 28 28 0 0 1-2.839 2.31q-1.392.975-2.644 1.531-1.252.557-2.087.557a.63.63 0 0 1-.418-.167 2.7 2.7 0 0 1-.334-.279q-.473-.555-.5-.974a7 7 0 0 1-.056-.863q0-.639.361-2.143.334-1.503.863-3.395.53-1.92 1.197-4.008.64-2.087 1.252-3.869A93 93 0 0 1 28 20.43q.528-1.252.807-1.503.556-.501 1.391-.807a9.7 9.7 0 0 1 1.642-.501q.919-.195 1.949-.279zm13.193-6.902q.167-.195.362-.612.195-.446.361-1.002.168-.585.25-1.253.112-.695.112-1.391 0-1.392-.556-2.032-.53-.668-1.197-.668-.362 0-.752.223-.39.222-.696.695-.306.446-.528 1.142-.195.695-.195 1.67 0 .5.223 1.78.25 1.28.612 3.007.362 1.725.751 3.757.418 2.004.78 4.008a67 67 0 0 1 .584 3.84q.25 1.81.25 3.146t-.473 2.81a18 18 0 0 1-1.169 2.867 25 25 0 0 1-1.586 2.644 32 32 0 0 1-1.67 2.227q-.807.946-1.447 1.503-.64.555-.919.556-.473 0-.89-.055a3.7 3.7 0 0 1-.863-.25 13 13 0 0 1-1.837-1.28 19 19 0 0 1-1.753-1.699 20 20 0 0 1-1.559-1.864 12.6 12.6 0 0 1-1.169-1.865q.64-.892 1.336-1.726.585-.723 1.308-1.503.696-.78 1.392-1.391h.055q.418 1.085 1.058 2.393a26 26 0 0 0 1.364 2.45q.75 1.14 1.53 1.92.78.75 1.476.751.14 0 .417-.083.307-.083.585-.362.278-.306.473-.89.222-.613.222-1.67 0-.724-.278-2.422a91 91 0 0 0-.668-3.869 904 904 0 0 0-.89-4.564 423 423 0 0 0-.863-4.509q-.418-2.115-.696-3.702-.25-1.613-.25-2.198 0-1.225.5-2.366.53-1.17 1.225-2.143.723-1.002 1.475-1.753.752-.752 1.197-1.17.668-.556 1.475-1.196a40 40 0 0 1 1.642-1.197A15 15 0 0 1 48.763.39Q49.486 0 49.96 0q.472 0 .862.223.39.194.668.723.306.5.445 1.42.168.89.167 2.31 0 .64-.222 1.252-.195.585-.529 1.17-.334.555-.751 1.085-.418.5-.863.946a16.3 16.3 0 0 1-2.366 1.948zm19.371 20.818a38 38 0 0 1-2.644 2.867 32 32 0 0 1-2.755 2.421q-1.336 1.058-2.505 1.698-1.17.64-1.948.64-.166 0-.418-.167-.25-.138-.334-.278-.306-.557-.445-1.392a12.5 12.5 0 0 1-.111-1.586q0-.222.055-.612.084-.418.167-.863-.918.974-1.92 1.892-.974.891-1.893 1.587-.89.696-1.586 1.113-.724.418-1.058.418a.45.45 0 0 1-.361-.167 1.3 1.3 0 0 1-.279-.446 2.2 2.2 0 0 1-.195-.584 3.5 3.5 0 0 1-.111-.612 9.2 9.2 0 0 1 .084-2.116q.138-1.169.417-2.365t.64-2.338q.334-1.17.668-2.116.334-.973.585-1.642l.334-.89a4.6 4.6 0 0 1 .361-.78q.279-.473.613-.918.333-.473.668-.89.361-.445.695-.78.614-.585 1.587-1.252.974-.669 2.115-1.308a72 72 0 0 1 2.394-1.253q1.224-.612 2.31-1.058 1.112-.445 1.976-.723.862-.279 1.308-.278.39 0 .668.027.306.029.473.084l.056.139q-.306.39-.752 1.336-.445.946-.974 2.199a67 67 0 0 0-1.085 2.755 543 543 0 0 0-1.114 3.034q-.528 1.53-1.002 3.006-.473 1.447-.862 2.644a66 66 0 0 0-.585 2.031q-.195.807-.195 1.058 0 .501.418.501.278-.027.89-.306.613-.306 1.42-.89t1.725-1.42a20 20 0 0 0 1.893-2.004zM52.8 35.124q.222 0 .584-.25.361-.251.78-.64.417-.39.89-.891.474-.529.919-1.058l.612-2.143q.362-1.17.751-2.393.39-1.225.808-2.45.417-1.224.807-2.31.417-1.113.779-2.004.362-.918.64-1.53-.445.139-1.169.417-.723.251-1.614.946-.751.585-1.42 1.754t-1.224 2.644a44 44 0 0 0-1.03 3.006 90 90 0 0 0-.78 2.894q-.305 1.336-.472 2.282-.168.947-.167 1.142 0 .222.027.417.056.167.279.167m14.5 3.646a7 7 0 0 1-.667.083q-.64.084-1.67.084-.474 0-1.002-.056a9 9 0 0 1-1.03-.111l-.195-.278q.14-.279.501-1.141l.807-2.088q.445-1.224 1.002-2.727.53-1.503 1.058-3.062.53-1.559 1.03-3.061t.863-2.756q.39-1.253.612-2.115.25-.891.25-1.197t-.083-.473a6 6 0 0 0-.111-.306l-.167-.223v-.417q.64-.39 1.502-.696a17 17 0 0 1 1.67-.501 27 27 0 0 1 1.92-.39l.112.167q0 .335-.139 1.086-.14.75-.334 1.614-.195.862-.417 1.698-.195.807-.307 1.308.863-1.085 1.754-2.171a34 34 0 0 1 1.698-1.976 14 14 0 0 1 1.53-1.392q.696-.556 1.17-.556.195 0 .667.194.502.168 1.03.557.53.362.919.947.417.556.445 1.363 0 .28-.39 1.28-.39 1.003-.974 2.394-.557 1.392-1.225 3.034-.667 1.642-1.252 3.228a53 53 0 0 0-.946 2.95q-.39 1.365-.39 2.227 0 .335.056.501.083.14.334.14.306-.03.918-.307a10.6 10.6 0 0 0 1.42-.89q.807-.585 1.725-1.42a18 18 0 0 0 1.865-2.004l.64.557q-1.169 1.475-2.644 2.81a31 31 0 0 1-2.867 2.31q-1.42 1.003-2.672 1.587t-2.031.585a.9.9 0 0 1-.362-.112 1.5 1.5 0 0 1-.445-.361q-.223-.251-.39-.696t-.167-1.114q0-.333.083-.835.084-.529.195-1.057.112-.556.223-1.002.14-.473.195-.696.25-.975.695-2.17.474-1.225 1.002-2.533.53-1.309 1.086-2.589.556-1.309 1.002-2.421.445-1.142.724-1.976.278-.863.278-1.308 0-.39-.223-.39-.278 0-.974.612-.668.613-1.503 1.531a61 61 0 0 0-1.642 1.893q-.835.973-1.42 1.725-.584 1.697-1.224 3.507a161 161 0 0 0-1.225 3.535q-.585 1.725-1.085 3.284a103 103 0 0 0-.807 2.783"></path></g><defs><clipPath id="a"><path fill="#fff" d="M0 0h84v40H0z"></path></clipPath></defs></svg>