<svg xmlns="http://www.w3.org/2000/svg" width="28" height="28" fill="none" viewBox="0 0 28 28"><rect width="27.219" height="27.219" fill="#fff" rx="5"></rect><g clip-path="url(#a)"><path fill="#000" d="M19.848 20.534h-2.443v-3.828c0-.913-.019-2.089-1.274-2.089-1.274 0-1.468.994-1.468 2.021v3.896h-2.444v-7.873h2.347v1.073h.032c.328-.618 1.125-1.272 2.317-1.272 2.475 0 2.934 1.63 2.934 3.751zM9.46 11.584a1.416 1.416 0 0 1-1.42-1.42 1.42 1.42 0 1 1 1.419 1.42m1.225 8.95h-2.45v-7.873h2.45zM21.07 6.474H7.01c-.675 0-1.22.531-1.22 1.189v14.122c0 .657.545 1.189 1.218 1.189h14.06c.673 0 1.223-.532 1.223-1.19V7.664c0-.657-.55-1.19-1.223-1.19z"></path></g><defs><clipPath id="a"><path fill="#fff" d="M0 3h22v22H0z"></path></clipPath></defs></svg>