<svg xmlns="http://www.w3.org/2000/svg" width="62" height="62" fill="none" viewBox="0 0 62 62"><g clip-path="url(#a)"><path fill="#f7df1e" d="M0 0h61.162v61.162H0z"></path><path fill="#000" d="m16.082 51.111 4.68-2.832c.903 1.6 1.725 2.955 3.695 2.955 1.889 0 3.08-.739 3.08-3.612V28.079h5.747v19.624c0 5.953-3.49 8.663-8.58 8.663-4.599 0-7.268-2.381-8.623-5.255m20.325-.616 4.68-2.71c1.232 2.013 2.833 3.49 5.666 3.49 2.381 0 3.9-1.19 3.9-2.832 0-1.971-1.56-2.67-4.188-3.818l-1.436-.617c-4.147-1.765-6.898-3.982-6.898-8.662 0-4.31 3.284-7.595 8.417-7.595 3.654 0 6.281 1.272 8.17 4.598l-4.476 2.874c-.985-1.765-2.052-2.463-3.695-2.463-1.683 0-2.75 1.067-2.75 2.463 0 1.724 1.067 2.423 3.53 3.49l1.437.616c4.886 2.094 7.636 4.228 7.636 9.032 0 5.173-4.064 8.006-9.524 8.006-5.337 0-8.786-2.546-10.47-5.871"></path></g><defs><clipPath id="a"><path fill="#fff" d="M0 0h61.162v61.162H0z"></path></clipPath></defs></svg>