<svg xmlns="http://www.w3.org/2000/svg" width="46" height="65" fill="none" viewBox="0 0 46 65"><g clip-path="url(#a)"><path fill="#e44d26" d="M45.76 12.354 41.59 59.056 22.852 64.25 4.165 59.063 0 12.354z"></path><path fill="#f16529" d="m22.96 60.62 15.142-4.198 3.562-39.91H22.96z"></path><path fill="#ebebeb" d="M14.856 27.97h8.104v-5.728H8.595l.137 1.536 1.408 15.787h12.82v-5.729h-7.58zm1.29 14.46h-5.75l.803 8.994 11.734 3.258.027-.008v-5.96l-.025.007-6.38-1.723z"></path><path fill="#000" d="M4.337 0h2.911v2.876h2.664V0h2.91v8.71h-2.91V5.793H7.249V8.71H4.337zm12.314 2.888H14.09V0h8.038v2.888h-2.564V8.71h-2.911zM23.403 0h3.035l1.868 3.06L30.17 0h3.037v8.71h-2.9V4.393L28.306 7.49h-.05L26.25 4.393V8.71h-2.848zm11.254 0h2.912v5.831h4.094V8.71h-7.007z"></path><path fill="#fff" d="M22.94 39.565h7.054l-.665 7.43-6.39 1.724v5.96l11.745-3.255.086-.968 1.346-15.081.14-1.539H22.94zm0-11.609v.014h13.838l.114-1.287.261-2.905.137-1.537H22.94z"></path></g><defs><clipPath id="a"><path fill="#fff" d="M0 0h45.92v64.754H0z"></path></clipPath></defs></svg>