<svg xmlns="http://www.w3.org/2000/svg" width="46" height="65" fill="none" viewBox="0 0 46 65"><g clip-path="url(#a)"><path fill="#264de4" d="M22.932 64.59 4.244 59.403.08 12.693h45.76l-4.17 46.702z"></path><path fill="#2965f1" d="m38.102 56.422 3.562-39.91H22.96V60.62z"></path><path fill="#ebebeb" d="m9.627 33.836.513 5.729h12.82v-5.729zM8.595 22.242l.52 5.728H22.96v-5.728zM22.96 48.713l-.025.007-6.38-1.723-.408-4.569h-5.75l.802 8.995 11.734 3.258.027-.008z"></path><path fill="#000" d="M10.85 0h6.937v2.902h-4.036v2.901h4.037v2.901h-6.939zm8.325 0h6.938v2.523h-4.036v.505h4.036V8.83h-6.938V6.18h4.037v-.504h-4.037zm8.326 0h6.939v2.523h-4.037v.505h4.037V8.83H27.5V6.18h4.037v-.504h-4.037z"></path><path fill="#fff" d="m36.276 34.017 1.034-11.595H22.96v5.728h8.072l-.521 5.867H22.96v5.728h7.054l-.665 7.43-6.39 1.724v5.96l11.745-3.255.086-.968 1.346-15.081z"></path></g><defs><clipPath id="a"><path fill="#fff" d="M0 0h45.92v64.754H0z"></path></clipPath></defs></svg>