<svg xmlns="http://www.w3.org/2000/svg" width="508" height="497" fill="none" viewBox="0 0 508 497"><path fill="#ff8d28" d="M57.692 294.19s14.57 57.324 72.035 84.818 125.984 15.03 181.782 6.352 91.308-48.706 87.519-96.418-48.768-51.877-83.14-99.4-36.129-65.346-91.44-86.925c-55.311-21.58-126.42 15.158-153.853 79.579C43.163 246.617 57.692 294.19 57.692 294.19"></path><path fill="#ff8d28" d="M57.692 294.19s14.57 57.324 72.035 84.818 125.984 15.03 181.782 6.352 91.308-48.706 87.519-96.418-48.768-51.877-83.14-99.4-36.129-65.346-91.44-86.925c-55.311-21.58-126.42 15.158-153.853 79.579C43.163 246.617 57.692 294.19 57.692 294.19" opacity=".7"></path><path fill="#263238" d="M419.446 337.96c-3.678 4.503-5.477 7.008-6.249 8.141a84.4 84.4 0 0 1 4.196-14.512 41.8 41.8 0 0 0 2.55-11.342l-.335.179-.325-.596c.132-.06 12.659-6.571 16.205-12.704l.589.328c-3.2 5.547-13.086 11.153-15.798 12.614 2.57-.238 10.597-1.441 15.372-7.206 5.73-6.958 4.724-15.517 4.724-15.517s-10.8 7.256-15.189 12.873a40.2 40.2 0 0 0-5.08 8.339 56.8 56.8 0 0 0-1.067-13.647c3.617-2.734 16.825-13.439 18.298-21.421 1.687-9.244-.68-25.099-.68-25.099a81 81 0 0 1-4.725 9.583c-3.048 5.278-12.486 13.538-14.173 22.454a38 38 0 0 0-.671 6.759 131 131 0 0 0-5.445-14.622 25.4 25.4 0 0 1-1.352-3.976l-.294-.169c.061-.099 6.096-10.138 6.096-13.021h.691c0 2.694-4.643 10.686-5.924 12.833 2.124-1.243 5.578-3.807 6.879-7.783a15.6 15.6 0 0 0-.925-11.233s-5.131 7.376-6.533 12.097a27.8 27.8 0 0 0-1.178 6.62 36.5 36.5 0 0 0-4.217-8.021 41 41 0 0 1-5.08-9.94s-3.708 6.282-1.016 12.922c2.225 5.427 8.535 7.505 10.719 8.081.244.716.508 1.421.803 2.087a111.2 111.2 0 0 1 6.919 20.328 41 41 0 0 0-7.356-7.674 41.7 41.7 0 0 1-7.783-8.051s-1.696 7.057 2.845 12.614c3.719 4.542 10.323 4.761 12.619 4.691 1.564 8.002 1.737 16.352-.904 24.413-.173-1.561-1.138-5.825-6.442-10.596-6.685-6.014-20.086-25.268-20.086-25.268s1.077 22.723 7.488 30.198c5.882 6.839 16.987 6.441 18.806 6.332-.122.348-.244.706-.376 1.063-4.227 11.103-5.08 18.886-5.222 23.021h-7.976v35.993h21.946v-35.963h-12.517c.084-2.349.332-4.691.741-7.007l-.233.069-.183-.656c.142 0 13.888-3.827 23.5-13.498l.487.477c-7.752 7.803-18.145 11.818-22.138 13.15 3.962-.477 13.655-1.908 18.166-4.751 5.73-3.638 10.8-14.532 10.8-14.532s-18.562 3.966-23.967 10.546m-10.445-58.487a17.1 17.1 0 0 1-5.723-4.798 16.65 16.65 0 0 1-3.076-6.732l.671-.13a16 16 0 0 0 2.941 6.445 16.4 16.4 0 0 0 5.472 4.599zm9.713 25.645-.152.229-.254-.099c-.386-.15-9.368-3.768-13.026-8.996l.569-.378c3.201 4.573 10.933 8.002 12.446 8.648 1.169-1.75 8.464-12.823 11.004-19.791l.65.229c-2.774 7.634-11.146 20.059-11.237 20.198zm-3.17 24.671c-.112 0-10.81-3.976-15.575-13.021l.609-.308c4.644 8.817 15.098 12.663 15.24 12.703z"></path><path stroke="#263238" stroke-miterlimit="10" d="M359.491 214.605H201.219v175.55h158.272z"></path><path stroke="#263238" stroke-miterlimit="10" d="M346.06 229.505H201.219v160.65H346.06z"></path><path fill="#263238" d="m346.07 229.505 13.431-14.9v175.55H346.07z"></path><path fill="#fff" stroke="#263238" stroke-linecap="round" stroke-linejoin="round" d="M359.501 357.82h-6.543v32.345h6.543z"></path><path fill="#263238" stroke="#263238" stroke-linecap="round" stroke-linejoin="round" d="M387.919 390.155v-54.75l-28.418 22.415v32.335z"></path><path fill="#fff" stroke="#263238" stroke-linecap="round" stroke-linejoin="round" d="M137.038 357.82h-6.543v32.345h6.543z"></path><path fill="#263238" stroke="#263238" stroke-linecap="round" stroke-linejoin="round" d="M165.456 390.155v-54.75l-28.418 22.415v32.335z"></path><path fill="#fff" stroke="#263238" stroke-linecap="round" stroke-linejoin="round" d="M367.385 363.536H105.298l-.101-2.088 303.631-31.192v2.108z"></path><path fill="#fff" stroke="#263238" stroke-linecap="round" stroke-linejoin="round" d="M367.385 361.428H105.298l66.121-31.172h237.409z"></path><path fill="#14213d" stroke="#263238" stroke-linecap="round" stroke-linejoin="round" d="M352.115 356.16h-27.757l16.022-12.534h29.231z"></path><path fill="#263238" stroke="#263238" stroke-linecap="round" stroke-linejoin="round" d="M367.385 363.536v-2.108l41.443-31.172v2.108z"></path><path stroke="#263238" stroke-linecap="round" stroke-linejoin="round" d="M332.852 331.708h47.823s7.112-.646 5.76 2.823c-1.351 3.469-7.528 3.678-21.254 4.115s-17.272 8.658-17.272 8.658"></path><path fill="#263238" d="M351.536 344.54s-4.511-.785-7.701.776c-2.032.994-3.79 4.423-4.847 6.848a1.8 1.8 0 0 0-.14.87c.028.296.131.582.299.83s.397.452.665.592c.269.141.568.214.873.213h6.045a1.86 1.86 0 0 0 1.372-.596l6.096-6.68s-.234-2.594-2.662-2.853"></path><path stroke="#fff" stroke-linecap="round" stroke-linejoin="round" stroke-width=".5" d="M347.777 352.87a6.6 6.6 0 0 1 .87-3.805 6.8 6.8 0 0 1 2.889-2.686"></path><path fill="#fff" stroke="#263238" stroke-linecap="round" stroke-linejoin="round" d="M315.641 357.929h-97.506l23.713-18.518h97.506z"></path><path stroke="#263238" stroke-linecap="round" stroke-linejoin="round" d="M339.354 340.574v-1.163l-23.713 18.518v1.154z"></path><path fill="#fff" stroke="#263238" stroke-linecap="round" stroke-linejoin="round" d="M315.641 357.929h-97.506v1.163h97.506z"></path><path stroke="#263238" stroke-linecap="round" stroke-linejoin="round" d="m249.926 349.928-3.13 2.475h6.432l3.139-2.475zM256.367 349.928l-3.139 2.475h6.441l3.13-2.475z"></path><path stroke="#263238" stroke-linecap="round" stroke-linejoin="round" d="m243.484 349.928-3.129 2.475h6.441l3.13-2.475zM253.055 347.453h-6.431l-3.14 2.475h6.442zM259.496 347.453l3.14-2.475h-6.442l-3.139 2.475z"></path><path stroke="#263238" stroke-linecap="round" stroke-linejoin="round" d="M256.194 344.978h-6.441l-3.129 2.475h6.431zM262.798 349.928l-3.129 2.475h6.442l3.129-2.475zM294.995 349.928l-3.139 2.475h6.441l3.14-2.475zM265.938 347.453l3.129-2.475h-6.431l-3.14 2.475z"></path><path stroke="#263238" stroke-linecap="round" stroke-linejoin="round" d="m269.24 349.928-3.129 2.475h6.431l3.139-2.475zM304.739 352.403h6.431l3.14-2.475h-6.442zM307.868 349.928h6.442l3.129-2.475h-6.431z"></path><path stroke="#263238" stroke-linecap="round" stroke-linejoin="round" d="m301.437 349.928-3.14 2.475h6.442l3.129-2.475zM288.554 349.928l-3.129 2.475h6.431l3.14-2.475zM275.681 349.928l-3.139 2.475h6.441l3.14-2.475z"></path><path stroke="#263238" stroke-linecap="round" stroke-linejoin="round" d="m282.123 349.928-3.14 2.475h6.442l3.129-2.475zM291.693 347.453l3.13-2.475h-6.442l-3.129 2.475zM298.125 347.453l-3.129 2.475h6.441l3.129-2.475zM285.252 347.453l-3.129 2.475h6.431l3.14-2.475zM272.369 347.453l-3.129 2.475h6.441l3.13-2.475z"></path><path stroke="#263238" stroke-linecap="round" stroke-linejoin="round" d="m291.693 347.453-3.139 2.475h6.441l3.13-2.475zM272.369 347.453l3.14-2.475h-6.442l-3.129 2.475zM253.055 347.453l-3.129 2.475h6.441l3.129-2.475zM265.938 347.453l-3.14 2.475h6.442l3.129-2.475z"></path><path stroke="#263238" stroke-linecap="round" stroke-linejoin="round" d="m259.496 347.453-3.129 2.475h6.431l3.14-2.475zM278.811 347.453l-3.13 2.475h6.442l3.129-2.475zM285.252 347.453l3.129-2.475h-6.431l-3.139 2.475zM311.008 347.453h6.431l3.139-2.475h-6.441zM278.811 347.453l3.139-2.475h-6.441l-3.14 2.475zM304.566 347.453l3.129-2.475h-6.431l-3.139 2.475z"></path><path stroke="#263238" stroke-linecap="round" stroke-linejoin="round" d="m311.008 347.453 3.129-2.475h-6.442l-3.129 2.475zM301.437 349.928h6.431l3.14-2.475h-6.442zM298.125 347.453l3.139-2.475h-6.441l-3.129 2.475zM278.983 352.403l-3.129 2.475h6.431l3.14-2.475zM285.425 352.403l-3.14 2.475h6.442l3.129-2.475zM272.542 352.403l-3.129 2.475h6.441l3.129-2.475z"></path><path stroke="#263238" stroke-linecap="round" stroke-linejoin="round" d="m291.856 352.403-3.129 2.475h6.441l3.13-2.475zM266.111 352.403l-3.14 2.475h6.442l3.129-2.475zM259.669 352.403l-3.129 2.475h6.431l3.14-2.475zM298.298 352.403l-3.13 2.475h6.432l3.139-2.475zM246.796 352.403l-3.139 2.475h6.441l3.13-2.475z"></path><path stroke="#263238" stroke-linecap="round" stroke-linejoin="round" d="m253.228 352.403-3.13 2.475h6.442l3.129-2.475zM314.31 349.928h6.441l3.129-2.475h-6.441zM323.708 342.503l-3.13 2.475h6.432l3.139-2.475z"></path><path stroke="#263238" stroke-linecap="round" stroke-linejoin="round" d="M317.439 347.453h6.441l3.13-2.475h-6.432zM240.355 352.403l-3.129 2.475h6.431l3.14-2.475zM304.739 352.403l-3.139 2.475h6.441l3.129-2.475z"></path><path stroke="#263238" stroke-linecap="round" stroke-linejoin="round" d="M308.041 354.878h6.441l3.13-2.475h-6.442z"></path><path stroke="#263238" stroke-linecap="round" stroke-linejoin="round" d="M311.17 352.403h6.442l3.139-2.475h-6.441zM246.624 347.453h-6.442l-3.129 2.475h6.431zM288.381 344.978l3.14-2.475h-6.442l-3.129 2.475zM294.823 344.978l3.129-2.475h-6.431l-3.14 2.475z"></path><path stroke="#263238" stroke-linecap="round" stroke-linejoin="round" d="m281.95 344.978 3.129-2.475h-6.441l-3.129 2.475zM301.264 344.978l3.129-2.475h-6.441l-3.129 2.475zM314.137 344.978l3.129-2.475h-6.431l-3.139 2.475z"></path><path stroke="#263238" stroke-linecap="round" stroke-linejoin="round" d="m307.695 344.978 3.14-2.475h-6.442l-3.129 2.475zM275.509 344.978l3.129-2.475h-6.431l-3.14 2.475zM243.484 349.928h-6.431l-3.139 2.475h6.441zM249.753 344.978h-6.441l-3.13 2.475h6.442zM320.578 344.978l3.13-2.475h-6.442l-3.129 2.475zM233.913 352.403l-3.129 2.475h6.442l3.129-2.475zM252.892 342.503h-6.441l-3.139 2.475h6.441zM262.636 344.978l3.129-2.475h-6.441l-3.13 2.475zM256.194 344.978l3.13-2.475h-6.432l-3.139 2.475z"></path><path stroke="#263238" stroke-linecap="round" stroke-linejoin="round" d="m269.067 344.978 3.14-2.475h-6.442l-3.129 2.475z"></path><path fill="#263238" stroke="#263238" stroke-linecap="round" stroke-linejoin="round" d="M342.819 336.966h-33.61a.53.53 0 0 1-.547-.4.51.51 0 0 1 .314-.594l6.909-3.26a.6.6 0 0 1 .233 0h31.029a.535.535 0 0 1 .494.357.52.52 0 0 1-.169.577l-4.328 3.25a.56.56 0 0 1-.325.07"></path><path fill="#fff" stroke="#263238" stroke-linecap="round" stroke-linejoin="round" d="M332.953 312.186h-6.177v23.031h6.177z"></path><path fill="#263238" stroke="#263238" stroke-linecap="round" stroke-linejoin="round" d="M333.919 312.186h-8.108v16.719h8.108z"></path><path fill="#fff" stroke="#263238" stroke-linecap="round" stroke-linejoin="round" d="M382.473 235.568H280.182v78.278h102.291z"></path><path fill="#263238" stroke="#263238" stroke-linecap="round" stroke-linejoin="round" d="M376.997 239.753h-91.349v69.908h91.349z"></path><path fill="#14213d" d="M294.345 244.524h-2.357a.59.59 0 0 1-.409-.166.56.56 0 0 1-.17-.401.57.57 0 0 1 .173-.397.6.6 0 0 1 .406-.169h2.357a.6.6 0 0 1 .407.169.57.57 0 0 1 .173.397.56.56 0 0 1-.17.401.6.6 0 0 1-.41.166m.58 2.068a.56.56 0 0 0-.17-.401.6.6 0 0 0-.41-.166h-2.357a.59.59 0 0 0-.409.166.56.56 0 0 0 0 .801.59.59 0 0 0 .409.166h2.357a.6.6 0 0 0 .396-.151.56.56 0 0 0 .184-.376zm0 2.634a.56.56 0 0 0-.17-.401.6.6 0 0 0-.41-.166h-2.357a.59.59 0 0 0-.409.166.56.56 0 0 0-.17.401.57.57 0 0 0 .173.397.6.6 0 0 0 .406.169h2.357a.6.6 0 0 0 .394-.154.57.57 0 0 0 .186-.373zm0 2.634a.56.56 0 0 0-.17-.401.6.6 0 0 0-.41-.166h-2.357a.59.59 0 0 0-.409.166.56.56 0 0 0-.17.401.57.57 0 0 0 .173.398.6.6 0 0 0 .406.168h2.357a.6.6 0 0 0 .394-.154.57.57 0 0 0 .186-.372zm0 2.634a.57.57 0 0 0-.169-.404.6.6 0 0 0-.411-.173h-2.357a.6.6 0 0 0-.366.192.57.57 0 0 0 0 .76.6.6 0 0 0 .366.191h2.357a.59.59 0 0 0 .58-.526zm0 2.624a.57.57 0 0 0-.173-.398.6.6 0 0 0-.407-.169h-2.357a.6.6 0 0 0-.366.192.57.57 0 0 0 0 .76.6.6 0 0 0 .366.192h2.357a.6.6 0 0 0 .397-.158.58.58 0 0 0 .183-.379zm0 2.634a.57.57 0 0 0-.173-.398.6.6 0 0 0-.407-.168h-2.357a.6.6 0 0 0-.406.168.57.57 0 0 0-.173.398c0 .15.061.295.17.401a.59.59 0 0 0 .409.166h2.357a.6.6 0 0 0 .396-.152.56.56 0 0 0 .184-.375zm0 2.634a.57.57 0 0 0-.173-.398.6.6 0 0 0-.407-.168h-2.357a.6.6 0 0 0-.406.168.57.57 0 0 0-.173.398c0 .151.061.295.17.401a.59.59 0 0 0 .409.166h2.357a.6.6 0 0 0 .4-.155.57.57 0 0 0 .18-.382zm8.859-18.389a.57.57 0 0 0-.172-.398.6.6 0 0 0-.407-.168h-6.228a.6.6 0 0 0-.413.165.547.547 0 0 0-.003.805.59.59 0 0 0 .416.163h6.177a.6.6 0 0 0 .443-.147.563.563 0 0 0 .187-.42m0 2.634a.56.56 0 0 0-.17-.4.58.58 0 0 0-.409-.166h-6.228a.58.58 0 0 0-.41.166.56.56 0 0 0 0 .801.6.6 0 0 0 .41.166h6.177a.6.6 0 0 0 .443-.147.563.563 0 0 0 .187-.42m0 2.634a.56.56 0 0 0-.17-.4.58.58 0 0 0-.409-.166h-6.228a.6.6 0 0 0-.416.162.56.56 0 0 0-.173.404.56.56 0 0 0 .176.402c.11.106.258.165.413.165h6.177a.6.6 0 0 0 .44-.151.578.578 0 0 0 .19-.416m0 2.635a.56.56 0 0 0-.17-.401.58.58 0 0 0-.409-.166h-6.228a.6.6 0 0 0-.416.162.56.56 0 0 0-.173.405.56.56 0 0 0 .176.401c.11.106.258.165.413.165h6.177a.59.59 0 0 0 .579-.339.6.6 0 0 0 .051-.227m0 2.634a.57.57 0 0 0-.169-.405.6.6 0 0 0-.41-.172h-6.228a.59.59 0 0 0-.614.334.56.56 0 0 0 0 .476.59.59 0 0 0 .614.333h6.177a.59.59 0 0 0 .579-.339.6.6 0 0 0 .051-.227m7.397 2.624a.56.56 0 0 0-.17-.401.6.6 0 0 0-.41-.166h-6.177a.6.6 0 0 0-.366.192.57.57 0 0 0 0 .76.6.6 0 0 0 .366.191h6.177a.58.58 0 0 0 .381-.186.56.56 0 0 0 .148-.39zm0 2.634a.56.56 0 0 0-.17-.401.6.6 0 0 0-.41-.166h-6.177a.59.59 0 0 0-.409.166.562.562 0 0 0 .186.927.6.6 0 0 0 .223.04h6.177a.57.57 0 0 0 .38-.18.55.55 0 0 0 .149-.386zm0 2.634a.56.56 0 0 0-.17-.401.6.6 0 0 0-.41-.166h-6.177a.59.59 0 0 0-.409.166.562.562 0 0 0 .186.927.6.6 0 0 0 .223.041h6.177a.58.58 0 0 0 .384-.184.56.56 0 0 0 .145-.393zm-4.674-18.429a.66.66 0 0 0-.111-.373.68.68 0 0 0-.7-.29.7.7 0 0 0-.351.182.659.659 0 0 0 .109 1.029.7.7 0 0 0 .382.108.68.68 0 0 0 .439-.211.66.66 0 0 0 .181-.445zm2.032 0a.64.64 0 0 0-.113-.364.67.67 0 0 0-.688-.279.7.7 0 0 0-.344.179.65.65 0 0 0-.145.715.66.66 0 0 0 .619.405.68.68 0 0 0 .429-.215.65.65 0 0 0 .171-.441zm2.032 0a.65.65 0 0 0-.196-.464.68.68 0 0 0-.949 0 .65.65 0 0 0 0 .928.68.68 0 0 0 .949 0 .65.65 0 0 0 .196-.464m2.032 0a.66.66 0 0 0-.225-.417.69.69 0 0 0-.902 0 .66.66 0 0 0-.224.417c.02.162.1.31.224.418a.69.69 0 0 0 .902 0 .66.66 0 0 0 .225-.418m2.032 0a.64.64 0 0 0-.113-.364.67.67 0 0 0-.688-.279.7.7 0 0 0-.344.179.65.65 0 0 0-.145.715.66.66 0 0 0 .619.405.67.67 0 0 0 .404-.227.65.65 0 0 0 .155-.429zm2.032 0a.65.65 0 0 0-.196-.464.68.68 0 0 0-.949 0 .65.65 0 0 0 0 .928.68.68 0 0 0 .949 0 .65.65 0 0 0 .196-.464m-10.089 5.268a.66.66 0 0 0-.225-.417.69.69 0 0 0-.902 0 .66.66 0 0 0-.224.417c.02.162.1.31.224.418a.69.69 0 0 0 .902 0 .66.66 0 0 0 .225-.418m2.032 0a.65.65 0 0 0-.196-.463.68.68 0 0 0-.949 0 .65.65 0 0 0 0 .927.68.68 0 0 0 .949 0 .65.65 0 0 0 .196-.464m2.032 0a.64.64 0 0 0-.113-.364.67.67 0 0 0-.688-.279.68.68 0 0 0-.344.18.65.65 0 0 0-.145.715.67.67 0 0 0 .619.404.652.652 0 0 0 .519-.656zm2.032 0a.674.674 0 0 0-.413-.622.7.7 0 0 0-.745.138.655.655 0 0 0-.152.727.67.67 0 0 0 .629.413.67.67 0 0 0 .379-.237.65.65 0 0 0 .139-.419zm2.032 0a.65.65 0 0 0-.196-.463.68.68 0 0 0-.949 0 .65.65 0 0 0 0 .927.68.68 0 0 0 .949 0 .65.65 0 0 0 .196-.464m2.032 0a.64.64 0 0 0-.113-.364.67.67 0 0 0-.688-.279.68.68 0 0 0-.344.18.65.65 0 0 0-.145.715.67.67 0 0 0 .619.404.67.67 0 0 0 .354-.247.65.65 0 0 0 .124-.409zm-3.2 7.565a.65.65 0 0 0-.197-.464.68.68 0 0 0-.948 0 .65.65 0 0 0 0 .928.68.68 0 0 0 .948 0 .65.65 0 0 0 .197-.464m2.032 0a.65.65 0 0 0-.118-.362.682.682 0 0 0-1.031-.089.645.645 0 0 0 .107 1.007c.11.072.239.11.371.11a.7.7 0 0 0 .349-.256.65.65 0 0 0 .118-.41zm2.032 0a.673.673 0 0 0-.423-.616.69.69 0 0 0-.743.148.66.66 0 0 0-.141.73.67.67 0 0 0 .255.296c.113.072.246.11.381.108a.66.66 0 0 0 .457-.666zm2.032 0a.65.65 0 0 0-.197-.464.68.68 0 0 0-.948 0 .65.65 0 0 0 0 .928.68.68 0 0 0 .948 0 .65.65 0 0 0 .197-.464m2.032 0a.65.65 0 0 0-.118-.362.682.682 0 0 0-1.031-.089.645.645 0 0 0 .107 1.007c.11.072.239.11.371.11a.661.661 0 0 0 .427-.666zm2.032 0a.65.65 0 0 0-.115-.37.68.68 0 0 0-.699-.283.68.68 0 0 0-.535.523.66.66 0 0 0 .29.684.7.7 0 0 0 .378.112.68.68 0 0 0 .324-.265.66.66 0 0 0 .103-.401zm-10.099 5.437c0-.13-.04-.257-.113-.364a.68.68 0 0 0-.689-.279.67.67 0 0 0-.527.515.65.65 0 0 0 .286.673.67.67 0 0 0 .372.111.66.66 0 0 0 .417-.656zm2.032 0a.65.65 0 0 0-.197-.464.68.68 0 0 0-.948 0 .65.65 0 0 0 0 .928.68.68 0 0 0 .948 0 .65.65 0 0 0 .197-.464m2.032 0a.671.671 0 0 0-.416-.623.69.69 0 0 0-.746.142.66.66 0 0 0-.146.731.68.68 0 0 0 .637.406.656.656 0 0 0 .396-.656zm2.032 0c0-.13-.04-.257-.113-.364a.68.68 0 0 0-.689-.279.67.67 0 0 0-.527.515.65.65 0 0 0 .286.673.67.67 0 0 0 .372.111.67.67 0 0 0 .294-.27.64.64 0 0 0 .082-.386zm2.032 0a.65.65 0 0 0-.197-.464.68.68 0 0 0-.948 0 .65.65 0 0 0 0 .928.68.68 0 0 0 .948 0 .65.65 0 0 0 .197-.464m2.032 0a.66.66 0 0 0-.413-.622.69.69 0 0 0-.746.138.66.66 0 0 0-.152.727.687.687 0 0 0 .63.413.656.656 0 0 0 .366-.656zM294.345 265.637h-2.357a.6.6 0 0 1-.366-.192.57.57 0 0 1 0-.76.6.6 0 0 1 .366-.192h2.357a.6.6 0 0 1 .366.192.565.565 0 0 1 0 .76.6.6 0 0 1-.366.192m.58 2.057a.57.57 0 0 0-.173-.398.6.6 0 0 0-.407-.168h-2.357a.6.6 0 0 0-.366.191.57.57 0 0 0 0 .76.6.6 0 0 0 .366.192h2.357a.6.6 0 0 0 .411-.173.57.57 0 0 0 .169-.404m0 2.634a.57.57 0 0 0-.173-.398.6.6 0 0 0-.407-.168h-2.357a.6.6 0 0 0-.406.168.57.57 0 0 0-.173.398c0 .15.061.295.17.401a.59.59 0 0 0 .409.166h2.357a.6.6 0 0 0 .396-.152.56.56 0 0 0 .184-.375zm0 2.634a.57.57 0 0 0-.173-.397.6.6 0 0 0-.407-.169h-2.357a.6.6 0 0 0-.406.169.57.57 0 0 0-.173.397c0 .151.061.295.17.401a.59.59 0 0 0 .409.166h2.357c.154 0 .301-.06.41-.166a.56.56 0 0 0 .17-.401m0 2.634a.56.56 0 0 0-.17-.4.6.6 0 0 0-.41-.166h-2.357a.59.59 0 0 0-.409.166.56.56 0 0 0 0 .801.59.59 0 0 0 .409.166h2.357c.154 0 .301-.06.41-.166a.56.56 0 0 0 .17-.401m0 2.635a.56.56 0 0 0-.17-.401.6.6 0 0 0-.41-.166h-2.357a.59.59 0 0 0-.409.166.56.56 0 0 0 0 .801.59.59 0 0 0 .409.166h2.357c.154 0 .301-.06.41-.166a.56.56 0 0 0 .17-.4m0 2.634a.56.56 0 0 0-.17-.401.6.6 0 0 0-.41-.166h-2.357a.59.59 0 0 0-.409.166.56.56 0 0 0-.17.401.57.57 0 0 0 .173.397.6.6 0 0 0 .406.169h2.357a.6.6 0 0 0 .407-.169.57.57 0 0 0 .173-.397m0 2.634a.57.57 0 0 0-.169-.404.6.6 0 0 0-.411-.173h-2.357a.6.6 0 0 0-.366.192.57.57 0 0 0 0 .76.6.6 0 0 0 .366.191h2.357a.6.6 0 0 0 .407-.168.57.57 0 0 0 .173-.398m8.859-18.429a.57.57 0 0 0-.169-.404.6.6 0 0 0-.41-.173h-6.228a.61.61 0 0 0-.466.138.6.6 0 0 0-.148.196.56.56 0 0 0 .148.672.6.6 0 0 0 .466.138h6.177a.6.6 0 0 0 .44-.151.58.58 0 0 0 .19-.416m0 2.624a.57.57 0 0 0-.172-.398.6.6 0 0 0-.407-.168h-6.228a.58.58 0 0 0-.667.571q0 .124.053.238a.58.58 0 0 0 .366.314q.122.035.248.02h6.177a.588.588 0 0 0 .63-.577m0 2.634a.57.57 0 0 0-.172-.398.6.6 0 0 0-.407-.168h-6.228a.6.6 0 0 0-.413.165.55.55 0 0 0-.003.805.59.59 0 0 0 .416.163h6.177a.59.59 0 0 0 .57-.31.6.6 0 0 0 .06-.217zm0 2.634a.57.57 0 0 0-.172-.397.6.6 0 0 0-.407-.169h-6.228a.6.6 0 0 0-.413.165.547.547 0 0 0-.131.62q.044.106.128.186a.6.6 0 0 0 .416.162h6.177a.6.6 0 0 0 .443-.147.563.563 0 0 0 .187-.42m0 2.634a.56.56 0 0 0-.17-.4.58.58 0 0 0-.409-.166h-6.228a.572.572 0 0 0-.579.566.56.56 0 0 0 .169.401.6.6 0 0 0 .41.166h6.177a.6.6 0 0 0 .443-.147.563.563 0 0 0 .187-.42m7.397 2.635a.55.55 0 0 0-.167-.404.57.57 0 0 0-.413-.163h-6.177a.59.59 0 0 0-.409.166.56.56 0 0 0 0 .801.59.59 0 0 0 .409.166h6.177a.57.57 0 0 0 .38-.18.55.55 0 0 0 .149-.386zm0 2.634a.55.55 0 0 0-.167-.404.57.57 0 0 0-.413-.163h-6.177a.566.566 0 0 0-.579.567c0 .15.061.294.17.4a.58.58 0 0 0 .409.166h6.177a.58.58 0 0 0 .377-.182.56.56 0 0 0 .152-.384zm0 2.634a.56.56 0 0 0-.356-.533.6.6 0 0 0-.224-.044h-6.177a.6.6 0 0 0-.366.192.57.57 0 0 0 0 .76.6.6 0 0 0 .366.191h6.177a.58.58 0 0 0 .377-.182.56.56 0 0 0 .152-.384zm-4.674-18.429a.671.671 0 0 0-.416-.623.69.69 0 0 0-.746.142.66.66 0 0 0-.146.731.68.68 0 0 0 .637.406.7.7 0 0 0 .439-.211.66.66 0 0 0 .181-.445zm2.032 0a.65.65 0 0 0-.113-.365.67.67 0 0 0-.688-.278.67.67 0 0 0-.344.179.65.65 0 0 0-.145.715.673.673 0 0 0 .619.405.68.68 0 0 0 .429-.215.65.65 0 0 0 .171-.441zm2.032 0a.65.65 0 0 0-.196-.464.68.68 0 0 0-.949 0 .65.65 0 0 0 0 .928.68.68 0 0 0 .949 0 .65.65 0 0 0 .196-.464m2.032 0a.672.672 0 0 0-.413-.622.69.69 0 0 0-.745.138.658.658 0 0 0 .098 1.027.7.7 0 0 0 .379.113.7.7 0 0 0 .42-.22.66.66 0 0 0 .169-.436zm2.032 0a.65.65 0 0 0-.113-.365.67.67 0 0 0-.688-.278.67.67 0 0 0-.344.179.65.65 0 0 0-.145.715.673.673 0 0 0 .619.405.68.68 0 0 0 .404-.227.65.65 0 0 0 .155-.429zm2.032 0a.64.64 0 0 0-.196-.464.684.684 0 0 0-.949 0 .66.66 0 0 0-.196.464c0 .174.07.341.196.464a.68.68 0 0 0 .949 0 .65.65 0 0 0 .196-.464m-10.211 5.298a.66.66 0 0 0-.423-.616.69.69 0 0 0-.743.149.66.66 0 0 0-.141.729.68.68 0 0 0 .637.404.7.7 0 0 0 .474-.199.66.66 0 0 0 .196-.467m2.032 0a.65.65 0 0 0-.196-.464.68.68 0 0 0-.949 0 .65.65 0 0 0-.196.464c0 .174.071.341.196.464a.68.68 0 0 0 .949 0 .65.65 0 0 0 .196-.464m2.032 0a.65.65 0 0 0-.118-.362.67.67 0 0 0-.689-.27.67.67 0 0 0-.522.518.64.64 0 0 0 .04.377.678.678 0 0 0 .619.403.69.69 0 0 0 .455-.209.66.66 0 0 0 .185-.457zm2.032 0a.668.668 0 0 0-.42-.615.686.686 0 0 0-.928.485.662.662 0 0 0 .289.684.7.7 0 0 0 .378.112.69.69 0 0 0 .456-.209.65.65 0 0 0 .184-.457zm2.032 0a.65.65 0 0 0-.196-.464.68.68 0 0 0-.949 0 .65.65 0 0 0-.196.464c0 .174.071.341.196.464a.68.68 0 0 0 .949 0 .65.65 0 0 0 .196-.464m2.032 0a.65.65 0 0 0-.118-.362.67.67 0 0 0-.689-.27.67.67 0 0 0-.522.518.64.64 0 0 0 .04.377.678.678 0 0 0 .619.403.68.68 0 0 0 .429-.221.66.66 0 0 0 .17-.445zm-3.2 7.574a.65.65 0 0 0-.197-.464.678.678 0 0 0-.948 0 .65.65 0 0 0 0 .928.68.68 0 0 0 .948 0 .65.65 0 0 0 .197-.464m2.032 0a.65.65 0 0 0-.414-.606.678.678 0 0 0-.731.142.648.648 0 0 0 .102 1.01c.11.072.24.11.372.11a.67.67 0 0 0 .437-.233.65.65 0 0 0 .152-.463zm2.032 0a.66.66 0 0 0-.225-.417.69.69 0 0 0-.902 0 .67.67 0 0 0-.225.417c.021.162.101.31.225.418a.69.69 0 0 0 .902 0 .66.66 0 0 0 .225-.418m2.032 0a.65.65 0 0 0-.197-.464.678.678 0 0 0-.948 0 .65.65 0 0 0 0 .928.68.68 0 0 0 .948 0 .65.65 0 0 0 .197-.464m2.032 0a.65.65 0 0 0-.414-.606.678.678 0 0 0-.731.142.648.648 0 0 0 .102 1.01c.11.072.24.11.372.11a.67.67 0 0 0 .411-.244.65.65 0 0 0 .138-.452zm2.032 0a.65.65 0 0 0-.11-.372.68.68 0 0 0-.697-.292.7.7 0 0 0-.352.18.66.66 0 0 0-.152.727.687.687 0 0 0 .63.413.655.655 0 0 0 .549-.696zm-10.231 5.348c0-.13-.04-.257-.113-.364a.68.68 0 0 0-.689-.279.67.67 0 0 0-.527.515.65.65 0 0 0 .286.673.67.67 0 0 0 .372.111.667.667 0 0 0 .622-.403.6.6 0 0 0 .049-.253m2.032 0c0-.13-.04-.257-.113-.364a.68.68 0 0 0-.689-.279.67.67 0 0 0-.527.515.65.65 0 0 0 .286.673.67.67 0 0 0 .84-.085.65.65 0 0 0 .192-.46zm2.032 0a.671.671 0 0 0-.416-.623.69.69 0 0 0-.746.142.66.66 0 0 0-.146.731.67.67 0 0 0 .255.298c.114.072.247.11.382.108a.68.68 0 0 0 .461-.199.65.65 0 0 0 .189-.457zm2.032 0c0-.13-.04-.257-.113-.364a.68.68 0 0 0-.689-.279.67.67 0 0 0-.527.515.65.65 0 0 0 .286.673.67.67 0 0 0 .372.111.67.67 0 0 0 .451-.203.64.64 0 0 0 .179-.453zm2.032 0c0-.13-.04-.257-.113-.364a.68.68 0 0 0-.689-.279.67.67 0 0 0-.527.515.65.65 0 0 0 .286.673.67.67 0 0 0 .372.111.68.68 0 0 0 .442-.209.65.65 0 0 0 .178-.447zm2.032 0a.66.66 0 0 0-.413-.622.69.69 0 0 0-.746.138.66.66 0 0 0-.152.727.687.687 0 0 0 .63.413.68.68 0 0 0 .442-.209.65.65 0 0 0 .178-.447zM294.345 287.206h-2.357a.58.58 0 0 1-.409-.166.56.56 0 0 1-.17-.4.57.57 0 0 1 .173-.398.6.6 0 0 1 .406-.169h2.357a.6.6 0 0 1 .407.169c.108.106.17.248.173.398 0 .15-.061.294-.17.4a.58.58 0 0 1-.41.166m.58 2.068a.56.56 0 0 0-.17-.401.6.6 0 0 0-.41-.166h-2.357a.59.59 0 0 0-.409.166.56.56 0 0 0 0 .802.59.59 0 0 0 .409.166h2.357a.6.6 0 0 0 .227-.045.557.557 0 0 0 .353-.542zm0 2.634a.56.56 0 0 0-.17-.401.6.6 0 0 0-.41-.166h-2.357a.59.59 0 0 0-.409.166.56.56 0 0 0-.17.401c.003.15.065.292.173.398a.6.6 0 0 0 .406.169h2.357a.6.6 0 0 0 .407-.169.57.57 0 0 0 .173-.398m0 2.634a.56.56 0 0 0-.17-.4.58.58 0 0 0-.41-.166h-2.357a.58.58 0 0 0-.409.166.56.56 0 0 0-.17.4c.003.15.065.292.173.398a.6.6 0 0 0 .406.169h2.357a.6.6 0 0 0 .407-.169.57.57 0 0 0 .173-.398m0 2.634a.57.57 0 0 0-.169-.404.6.6 0 0 0-.411-.172h-2.357a.6.6 0 0 0-.366.191.57.57 0 0 0 0 .76.6.6 0 0 0 .366.192h2.357a.6.6 0 0 0 .397-.158.58.58 0 0 0 .183-.379zm0 2.634a.57.57 0 0 0-.169-.404.6.6 0 0 0-.411-.172h-2.357a.6.6 0 0 0-.366.191.57.57 0 0 0 0 .76.6.6 0 0 0 .366.192h2.357a.6.6 0 0 0 .407-.169.57.57 0 0 0 .173-.398m0 2.625a.57.57 0 0 0-.173-.398.6.6 0 0 0-.407-.169h-2.357a.6.6 0 0 0-.366.191.57.57 0 0 0 0 .76.6.6 0 0 0 .366.192h2.357a.6.6 0 0 0 .411-.172.57.57 0 0 0 .169-.404m0 2.634a.57.57 0 0 0-.173-.398.6.6 0 0 0-.407-.169h-2.357a.6.6 0 0 0-.406.169.57.57 0 0 0-.173.398c0 .15.061.294.17.4a.59.59 0 0 0 .409.166h2.357c.154 0 .301-.06.41-.166a.56.56 0 0 0 .17-.4m8.859-18.429a.57.57 0 0 0-.172-.398.6.6 0 0 0-.407-.169h-6.228a.6.6 0 0 0-.413.166.55.55 0 0 0-.003.805.58.58 0 0 0 .416.162h6.177a.58.58 0 0 0 .443-.147.563.563 0 0 0 .187-.419m0 2.634a.56.56 0 0 0-.17-.401.58.58 0 0 0-.409-.166h-6.228a.6.6 0 0 0-.41.166.56.56 0 0 0-.169.401c0 .15.061.294.169.401a.6.6 0 0 0 .41.166h6.177a.58.58 0 0 0 .588-.352.55.55 0 0 0 .042-.235zm0 2.634a.56.56 0 0 0-.17-.401.58.58 0 0 0-.409-.166h-6.228a.6.6 0 0 0-.416.163.55.55 0 0 0-.173.404.56.56 0 0 0 .176.401c.11.106.258.166.413.166h6.177a.6.6 0 0 0 .579-.34.6.6 0 0 0 .051-.227m0 2.634a.56.56 0 0 0-.17-.4.58.58 0 0 0-.409-.166h-6.228a.58.58 0 0 0-.589.566.56.56 0 0 0 .176.401c.11.106.258.166.413.166h6.177a.6.6 0 0 0 .44-.151.58.58 0 0 0 .19-.416m0 2.634a.57.57 0 0 0-.169-.404.6.6 0 0 0-.41-.172h-6.228a.59.59 0 0 0-.614.333.56.56 0 0 0 .148.672.6.6 0 0 0 .466.138h6.177a.6.6 0 0 0 .429-.14.57.57 0 0 0 .201-.397zm7.397 2.634a.56.56 0 0 0-.166-.407.6.6 0 0 0-.414-.169h-6.177a.6.6 0 0 0-.366.191.57.57 0 0 0 0 .76.6.6 0 0 0 .366.192h6.177a.58.58 0 0 0 .377-.183.56.56 0 0 0 .152-.384zm0 2.625a.56.56 0 0 0-.17-.401.6.6 0 0 0-.41-.166h-6.177a.6.6 0 0 0-.366.191.57.57 0 0 0 0 .76.6.6 0 0 0 .366.192h6.177a.59.59 0 0 0 .381-.186.56.56 0 0 0 .148-.39zm0 2.634a.56.56 0 0 0-.17-.401.6.6 0 0 0-.41-.166h-6.177a.59.59 0 0 0-.409.166.56.56 0 0 0-.17.401.6.6 0 0 0 .041.218.57.57 0 0 0 .538.348h6.177a.57.57 0 0 0 .38-.18.55.55 0 0 0 .149-.386zm-4.674-18.429a.671.671 0 0 0-.416-.623.69.69 0 0 0-.746.142.66.66 0 0 0-.146.73.68.68 0 0 0 .637.407.7.7 0 0 0 .439-.211.66.66 0 0 0 .181-.445zm2.032 0a.66.66 0 0 0-.414-.606.68.68 0 0 0-.731.142.65.65 0 0 0-.145.715.66.66 0 0 0 .247.294c.11.072.24.111.372.111a.68.68 0 0 0 .429-.215.65.65 0 0 0 .171-.441zm2.032 0a.65.65 0 0 0-.196-.464.68.68 0 0 0-.949 0 .65.65 0 0 0 0 .928.68.68 0 0 0 .949 0 .65.65 0 0 0 .196-.464m2.032 0a.66.66 0 0 0-.225-.418.69.69 0 0 0-.902 0 .66.66 0 0 0-.224.418c.02.161.1.31.224.417a.69.69 0 0 0 .902 0 .66.66 0 0 0 .225-.417m2.032 0a.66.66 0 0 0-.414-.606.68.68 0 0 0-.731.142.65.65 0 0 0-.145.715.66.66 0 0 0 .247.294c.11.072.24.111.372.111a.68.68 0 0 0 .404-.227.65.65 0 0 0 .155-.429zm2.032 0a.65.65 0 0 0-.196-.464.68.68 0 0 0-.949 0 .65.65 0 0 0 0 .928.68.68 0 0 0 .949 0 .65.65 0 0 0 .196-.464m-10.089 5.268a.66.66 0 0 0-.225-.418.69.69 0 0 0-.902 0 .66.66 0 0 0-.224.418c.02.161.1.31.224.418a.694.694 0 0 0 .902 0 .66.66 0 0 0 .225-.418m2.032 0a.65.65 0 0 0-.196-.464.68.68 0 0 0-.949 0 .65.65 0 0 0-.196.464c0 .174.071.341.196.464a.68.68 0 0 0 .949 0 .65.65 0 0 0 .196-.464m2.032 0a.64.64 0 0 0-.113-.364.67.67 0 0 0-.688-.279.66.66 0 0 0-.527.515.64.64 0 0 0 .038.379.67.67 0 0 0 .619.405.67.67 0 0 0 .379-.238.65.65 0 0 0 .14-.418zm2.032 0a.65.65 0 0 0-.11-.373.69.69 0 0 0-1.048-.111.65.65 0 0 0-.152.727.687.687 0 0 0 .629.413.67.67 0 0 0 .379-.238.64.64 0 0 0 .139-.418zm2.032 0a.65.65 0 0 0-.196-.464.68.68 0 0 0-.949 0 .65.65 0 0 0-.196.464c0 .174.071.341.196.464a.68.68 0 0 0 .949 0 .65.65 0 0 0 .196-.464m2.032 0a.64.64 0 0 0-.113-.364.67.67 0 0 0-.688-.279.66.66 0 0 0-.527.515.64.64 0 0 0 .038.379.67.67 0 0 0 .619.405.67.67 0 0 0 .354-.248.64.64 0 0 0 .124-.408zm-3.2 7.564a.65.65 0 0 0-.197-.463.675.675 0 0 0-.948 0 .645.645 0 0 0 0 .927.68.68 0 0 0 .948 0 .65.65 0 0 0 .197-.464m2.032 0a.64.64 0 0 0-.118-.361.677.677 0 0 0-1.031-.089.645.645 0 0 0 .107 1.006c.11.072.239.11.371.11a.68.68 0 0 0 .349-.255.66.66 0 0 0 .118-.411zm2.032 0a.66.66 0 0 0-.116-.371.68.68 0 0 0-.702-.281.7.7 0 0 0-.348.185.66.66 0 0 0 .114 1.026.7.7 0 0 0 .381.107.68.68 0 0 0 .343-.258.66.66 0 0 0 .114-.408zm2.032 0a.65.65 0 0 0-.197-.463.675.675 0 0 0-.948 0 .645.645 0 0 0 0 .927.68.68 0 0 0 .948 0 .65.65 0 0 0 .197-.464m2.032 0a.64.64 0 0 0-.118-.361.677.677 0 0 0-1.031-.089.645.645 0 0 0 .107 1.006c.11.072.239.11.371.11a.664.664 0 0 0 .427-.666zm2.032 0c0-.131-.04-.26-.115-.37a.68.68 0 0 0-.699-.283.7.7 0 0 0-.348.182.658.658 0 0 0 .103 1.025.7.7 0 0 0 .378.112.67.67 0 0 0 .324-.264.66.66 0 0 0 .103-.402zm-10.099 5.438a.65.65 0 0 0-.414-.607.7.7 0 0 0-.388-.037.67.67 0 0 0-.527.516.65.65 0 0 0 .286.673c.11.072.239.111.372.111a.67.67 0 0 0 .317-.262.65.65 0 0 0 .1-.394zm2.032 0a.65.65 0 0 0-.197-.464.68.68 0 0 0-.948 0 .646.646 0 0 0 0 .927.675.675 0 0 0 .948 0 .65.65 0 0 0 .197-.463m2.032 0a.66.66 0 0 0-.111-.374.68.68 0 0 0-.7-.29.68.68 0 0 0-.538.526.65.65 0 0 0 .041.387.68.68 0 0 0 .637.407.66.66 0 0 0 .396-.656zm2.032 0a.65.65 0 0 0-.414-.607.7.7 0 0 0-.388-.037.67.67 0 0 0-.527.516.65.65 0 0 0 .286.673c.11.072.239.111.372.111a.646.646 0 0 0 .376-.656zm2.032 0a.65.65 0 0 0-.197-.464.68.68 0 0 0-.948 0 .646.646 0 0 0 0 .927.675.675 0 0 0 .948 0 .65.65 0 0 0 .197-.463m2.032 0a.66.66 0 0 0-.11-.373.68.68 0 0 0-.698-.292.7.7 0 0 0-.351.18.655.655 0 0 0 .099 1.028.7.7 0 0 0 .379.113.657.657 0 0 0 .366-.656zM330.495 244.524h-2.327a.58.58 0 0 1-.409-.166.56.56 0 0 1-.17-.401.56.56 0 0 1 .172-.397.6.6 0 0 1 .407-.169h2.357c.154 0 .301.06.41.166a.56.56 0 0 1 .169.4.5.5 0 0 1-.044.226.554.554 0 0 1-.333.31.6.6 0 0 1-.232.031m.579 2.068a.55.55 0 0 0-.167-.404.57.57 0 0 0-.412-.163h-2.327a.574.574 0 0 0-.579.567.55.55 0 0 0 .17.4.6.6 0 0 0 .187.123.6.6 0 0 0 .222.043h2.357a.57.57 0 0 0 .379-.159.55.55 0 0 0 .17-.368zm0 2.634a.55.55 0 0 0-.167-.404.57.57 0 0 0-.412-.163h-2.327a.58.58 0 0 0-.409.166.56.56 0 0 0-.17.401.56.56 0 0 0 .172.397.6.6 0 0 0 .407.169h2.357a.6.6 0 0 0 .377-.161.56.56 0 0 0 .172-.366zm0 2.634a.55.55 0 0 0-.167-.404.588.588 0 0 0-.412-.163h-2.327a.58.58 0 0 0-.409.166.56.56 0 0 0-.17.401.57.57 0 0 0 .172.398.6.6 0 0 0 .407.168h2.357a.6.6 0 0 0 .377-.161.56.56 0 0 0 .172-.365zm0 2.634a.57.57 0 0 0-.166-.407.57.57 0 0 0-.413-.17h-2.327a.6.6 0 0 0-.366.192.57.57 0 0 0 0 .76.6.6 0 0 0 .366.191h2.357a.6.6 0 0 0 .377-.161.56.56 0 0 0 .172-.365zm0 2.624a.56.56 0 0 0-.17-.401.59.59 0 0 0-.409-.166h-2.327a.6.6 0 0 0-.366.192.57.57 0 0 0 0 .76.6.6 0 0 0 .366.192h2.357a.6.6 0 0 0 .38-.166.56.56 0 0 0 .169-.371zm0 2.634a.56.56 0 0 0-.17-.4.58.58 0 0 0-.409-.166h-2.327a.6.6 0 0 0-.407.168.57.57 0 0 0-.172.398c0 .15.061.295.17.401a.58.58 0 0 0 .409.166h2.357a.58.58 0 0 0 .379-.159.55.55 0 0 0 .17-.368zm0 2.634a.56.56 0 0 0-.17-.4.58.58 0 0 0-.409-.166h-2.327a.6.6 0 0 0-.407.168.57.57 0 0 0-.172.398c0 .15.061.295.17.401a.58.58 0 0 0 .409.166h2.357a.57.57 0 0 0 .382-.163.55.55 0 0 0 .167-.374zm8.808-18.429a.56.56 0 0 0-.169-.4.6.6 0 0 0-.41-.166h-6.177a.6.6 0 0 0-.413.165.57.57 0 0 0-.176.401.56.56 0 0 0 .173.405.6.6 0 0 0 .416.162h6.218a.58.58 0 0 0 .373-.162.55.55 0 0 0 .165-.365zm0 2.635a.55.55 0 0 0-.355-.527.6.6 0 0 0-.224-.04h-6.177a.574.574 0 0 0-.579.567.55.55 0 0 0 .17.4.6.6 0 0 0 .187.123.6.6 0 0 0 .222.043h6.218a.58.58 0 0 0 .373-.162.55.55 0 0 0 .165-.365zm0 2.634a.55.55 0 0 0-.355-.527.6.6 0 0 0-.224-.04h-6.177a.6.6 0 0 0-.416.162.57.57 0 0 0-.173.405.57.57 0 0 0 .176.401c.11.106.259.165.413.165h6.218a.6.6 0 0 0 .37-.164.56.56 0 0 0 .168-.363zm0 2.634a.55.55 0 0 0-.355-.526.6.6 0 0 0-.224-.041h-6.177a.585.585 0 0 0-.544.348.55.55 0 0 0 .131.62c.11.106.259.165.413.165h6.218a.58.58 0 0 0 .37-.164.56.56 0 0 0 .168-.362zm0 2.634a.549.549 0 0 0-.166-.407.592.592 0 0 0-.413-.17h-6.177a.61.61 0 0 0-.466.138.58.58 0 0 0-.2.434.56.56 0 0 0 .2.433.6.6 0 0 0 .466.138h6.218a.58.58 0 0 0 .37-.164.56.56 0 0 0 .168-.362zm7.407 2.624a.57.57 0 0 0-.176-.401.6.6 0 0 0-.413-.166h-6.177a.6.6 0 0 0-.366.192.566.566 0 0 0 0 .76.6.6 0 0 0 .366.192h6.177a.6.6 0 0 0 .403-.155.57.57 0 0 0 .186-.382zm0 2.634a.57.57 0 0 0-.176-.401.6.6 0 0 0-.413-.165h-6.177a.58.58 0 0 0-.41.166.56.56 0 0 0-.128.619.55.55 0 0 0 .314.307.6.6 0 0 0 .224.041h6.177a.6.6 0 0 0 .402-.148.56.56 0 0 0 .187-.379zm0 2.634a.57.57 0 0 0-.176-.401.6.6 0 0 0-.413-.165h-6.177a.58.58 0 0 0-.41.166.56.56 0 0 0-.128.619.55.55 0 0 0 .314.307.6.6 0 0 0 .224.041h6.177a.59.59 0 0 0 .405-.152c.11-.1.176-.238.184-.385zm-4.684-18.429a.65.65 0 0 0-.11-.373.68.68 0 0 0-.701-.29.7.7 0 0 0-.351.183.66.66 0 0 0-.145.73.67.67 0 0 0 .255.298.694.694 0 0 0 .84-.072c.124-.114.2-.27.212-.436zm2.032 0a.66.66 0 0 0-.224-.417.69.69 0 0 0-.902 0 .66.66 0 0 0-.225.417c.02.162.1.31.225.418a.69.69 0 0 0 .902 0 .66.66 0 0 0 .224-.418m2.032 0a.664.664 0 0 0-.414-.606.7.7 0 0 0-.387-.037.67.67 0 0 0-.527.515.65.65 0 0 0 .285.674c.111.072.24.111.373.111a.7.7 0 0 0 .441-.188.65.65 0 0 0 .199-.429zm2.032 0a.65.65 0 0 0-.11-.373.68.68 0 0 0-.701-.29.7.7 0 0 0-.351.183.66.66 0 0 0-.145.73.67.67 0 0 0 .255.298c.113.073.246.11.382.109a.7.7 0 0 0 .432-.194.66.66 0 0 0 .198-.423zm2.032 0a.664.664 0 0 0-.414-.606.7.7 0 0 0-.387-.037.67.67 0 0 0-.527.515.65.65 0 0 0 .285.674c.111.072.24.111.373.111a.7.7 0 0 0 .422-.198.65.65 0 0 0 .187-.419zm2.032 0c0-.174-.07-.34-.196-.463a.68.68 0 0 0-.948 0 .646.646 0 0 0 0 .927.677.677 0 0 0 .948 0 .65.65 0 0 0 .196-.464m-10.089 5.269a.66.66 0 0 0-.224-.418.69.69 0 0 0-.902 0 .66.66 0 0 0-.225.418c.02.161.1.31.225.417a.69.69 0 0 0 .902 0 .66.66 0 0 0 .224-.417m2.032 0a.66.66 0 0 0-.413-.623.7.7 0 0 0-.745.138.654.654 0 0 0 .099 1.028.7.7 0 0 0 .379.113.68.68 0 0 0 .415-.2.65.65 0 0 0 .184-.417zm2.032 0a.658.658 0 0 0-.413-.606.68.68 0 0 0-.731.142.65.65 0 0 0-.146.715.66.66 0 0 0 .247.294c.111.072.24.111.373.111a.66.66 0 0 0 .399-.207.64.64 0 0 0 .17-.41zm2.032 0a.66.66 0 0 0-.224-.418.69.69 0 0 0-.902 0 .66.66 0 0 0-.225.418c.02.161.1.31.225.417a.69.69 0 0 0 .902 0 .66.66 0 0 0 .224-.417m2.032 0a.65.65 0 0 0-.196-.464.68.68 0 0 0-.948 0 .65.65 0 0 0 0 .928.68.68 0 0 0 .948 0 .65.65 0 0 0 .196-.464m2.032 0a.658.658 0 0 0-.413-.606.68.68 0 0 0-.731.142.65.65 0 0 0-.146.715.66.66 0 0 0 .247.294c.111.072.24.111.373.111a.68.68 0 0 0 .372-.22.64.64 0 0 0 .156-.397zm-3.332 7.604a.65.65 0 0 0-.115-.37.68.68 0 0 0-.699-.283.68.68 0 0 0-.534.523.65.65 0 0 0 .289.683.69.69 0 0 0 .86-.082.66.66 0 0 0 .199-.471m2.032 0a.663.663 0 0 0-.421-.599.68.68 0 0 0-.727.148.65.65 0 0 0 .106 1.007.685.685 0 0 0 .849-.086.64.64 0 0 0 .193-.47m2.032 0a.66.66 0 0 0-.115-.371.69.69 0 0 0-1.051-.097.656.656 0 0 0 .115 1.026.69.69 0 0 0 .855-.091.66.66 0 0 0 .196-.467m2.032 0a.65.65 0 0 0-.115-.37.68.68 0 0 0-.699-.283.68.68 0 0 0-.534.523.65.65 0 0 0 .289.683.69.69 0 0 0 .86-.082.66.66 0 0 0 .199-.471m2.032 0a.663.663 0 0 0-.421-.599.68.68 0 0 0-.727.148.65.65 0 0 0 .106 1.007c.11.071.239.11.371.11a.67.67 0 0 0 .439-.216.65.65 0 0 0 .171-.45zm2.032 0a.66.66 0 0 0-.115-.371.69.69 0 0 0-1.051-.097.656.656 0 0 0 .115 1.026c.113.072.245.11.38.108a.7.7 0 0 0 .43-.221.66.66 0 0 0 .17-.445zm-10.16 5.437a.672.672 0 0 0-.413-.622.69.69 0 0 0-.745.138.658.658 0 0 0 .098 1.027.69.69 0 0 0 .857-.079.66.66 0 0 0 .203-.464m2.032 0a.65.65 0 0 0-.113-.365.682.682 0 0 0-1.032-.099.66.66 0 0 0-.183.336.64.64 0 0 0 .038.379.673.673 0 0 0 .876.355.66.66 0 0 0 .414-.606m2.032 0a.66.66 0 0 0-.11-.374.697.697 0 0 0-1.052-.107.66.66 0 0 0-.146.73.67.67 0 0 0 .637.407.7.7 0 0 0 .472-.195.66.66 0 0 0 .199-.461m2.032 0a.672.672 0 0 0-.413-.622.69.69 0 0 0-.745.138.658.658 0 0 0 .098 1.027.69.69 0 0 0 .857-.079.66.66 0 0 0 .203-.464m2.032 0a.65.65 0 0 0-.113-.365.682.682 0 0 0-1.032-.099.66.66 0 0 0-.183.336.64.64 0 0 0 .038.379.673.673 0 0 0 .619.405.68.68 0 0 0 .436-.212.65.65 0 0 0 .174-.444zm2.032 0a.66.66 0 0 0-.11-.374.697.697 0 0 0-1.052-.107.66.66 0 0 0-.146.73.67.67 0 0 0 .637.407.7.7 0 0 0 .427-.217.66.66 0 0 0 .173-.439zM330.495 266.143h-2.327a.6.6 0 0 1-.407-.168.57.57 0 0 1-.172-.398c0-.15.061-.294.17-.401a.58.58 0 0 1 .409-.166h2.357a.58.58 0 0 1 .413.163.6.6 0 0 1 .125.185q.044.106.041.219a.56.56 0 0 1-.18.411.58.58 0 0 1-.429.155m.579 2.068a.57.57 0 0 0-.166-.407.6.6 0 0 0-.189-.125.6.6 0 0 0-.224-.045h-2.327a.6.6 0 0 0-.366.192.57.57 0 0 0 0 .76.6.6 0 0 0 .366.192h2.357a.59.59 0 0 0 .39-.177.56.56 0 0 0 .159-.39m0 2.624a.56.56 0 0 0-.17-.4.58.58 0 0 0-.409-.166h-2.327a.6.6 0 0 0-.366.191.57.57 0 0 0 0 .76.6.6 0 0 0 .366.192h2.357a.6.6 0 0 0 .394-.18.56.56 0 0 0 .155-.397m0 2.634a.56.56 0 0 0-.17-.4.58.58 0 0 0-.409-.166h-2.327a.6.6 0 0 0-.407.168.57.57 0 0 0-.172.398c0 .151.061.295.17.401a.58.58 0 0 0 .409.166h2.357a.58.58 0 0 0 .393-.174.55.55 0 0 0 .156-.393m0 2.634a.56.56 0 0 0-.17-.4.58.58 0 0 0-.409-.166h-2.327a.6.6 0 0 0-.407.169.56.56 0 0 0-.172.397c0 .151.061.295.17.401a.58.58 0 0 0 .409.166h2.357a.58.58 0 0 0 .393-.174.55.55 0 0 0 .156-.393m0 2.634a.55.55 0 0 0-.167-.403.57.57 0 0 0-.412-.163h-2.327a.574.574 0 0 0-.579.566.55.55 0 0 0 .17.401.57.57 0 0 0 .409.166h2.357a.57.57 0 0 0 .393-.173.55.55 0 0 0 .156-.394m0 2.635a.55.55 0 0 0-.167-.404.57.57 0 0 0-.412-.163h-2.327a.58.58 0 0 0-.409.166.56.56 0 0 0 0 .801.58.58 0 0 0 .409.166h2.357a.57.57 0 0 0 .393-.173.55.55 0 0 0 .156-.393m0 2.634a.55.55 0 0 0-.167-.404.57.57 0 0 0-.412-.163h-2.327a.58.58 0 0 0-.409.166.56.56 0 0 0-.17.401.56.56 0 0 0 .172.397.6.6 0 0 0 .407.169h2.357a.58.58 0 0 0 .39-.176.56.56 0 0 0 .159-.39m8.808-18.429a.55.55 0 0 0-.355-.526.6.6 0 0 0-.224-.041h-6.177a.6.6 0 0 0-.416.163.553.553 0 0 0 .003.805c.11.106.259.166.413.165h6.218a.58.58 0 0 0 .383-.179.56.56 0 0 0 .155-.387m0 2.634a.559.559 0 0 0-.355-.532.6.6 0 0 0-.224-.045h-6.177a.61.61 0 0 0-.466.138.561.561 0 0 0-.148.672.59.59 0 0 0 .614.334h6.218a.58.58 0 0 0 .383-.18.56.56 0 0 0 .155-.387m0 2.624a.56.56 0 0 0-.169-.4.58.58 0 0 0-.41-.166h-6.177a.596.596 0 0 0-.614.333.56.56 0 0 0 0 .476.58.58 0 0 0 .366.314q.122.035.248.02h6.218a.59.59 0 0 0 .387-.183.56.56 0 0 0 .151-.394m0 2.634a.56.56 0 0 0-.169-.4.58.58 0 0 0-.41-.166h-6.177a.6.6 0 0 0-.413.165.547.547 0 0 0-.003.805.59.59 0 0 0 .416.163h6.218a.57.57 0 0 0 .386-.177.55.55 0 0 0 .152-.39m0 2.634a.56.56 0 0 0-.169-.4.58.58 0 0 0-.41-.166h-6.177a.6.6 0 0 0-.413.165.57.57 0 0 0-.176.401.56.56 0 0 0 .173.405.6.6 0 0 0 .416.162h6.218a.57.57 0 0 0 .386-.177.55.55 0 0 0 .152-.39m7.407 2.634a.55.55 0 0 0-.173-.404.6.6 0 0 0-.416-.162h-6.177a.6.6 0 0 0-.41.166.6.6 0 0 0-.125.184.54.54 0 0 0 0 .433.6.6 0 0 0 .125.184.6.6 0 0 0 .41.166h6.177a.6.6 0 0 0 .416-.162.57.57 0 0 0 .173-.405m0 2.635a.56.56 0 0 0-.173-.405.6.6 0 0 0-.416-.162h-6.177a.6.6 0 0 0-.41.166.56.56 0 0 0 0 .801.6.6 0 0 0 .41.166h6.177a.6.6 0 0 0 .416-.162.57.57 0 0 0 .173-.404m0 2.634a.568.568 0 0 0-.364-.527.6.6 0 0 0-.225-.04h-6.177a.566.566 0 0 0-.58.567c0 .15.061.294.17.4a.58.58 0 0 0 .41.166h6.177a.6.6 0 0 0 .413-.165.57.57 0 0 0 .176-.401m-4.684-18.429a.66.66 0 0 0-.224-.418.694.694 0 0 0-.902 0 .66.66 0 0 0-.225.418c.02.161.1.31.225.418a.69.69 0 0 0 .902 0 .66.66 0 0 0 .224-.418m2.032 0a.66.66 0 0 0-.413-.622.69.69 0 0 0-.745.138.66.66 0 0 0 .098 1.027.7.7 0 0 0 .38.113.68.68 0 0 0 .474-.192.65.65 0 0 0 .196-.464zm2.032 0a.65.65 0 0 0-.113-.365.682.682 0 0 0-1.031-.099.648.648 0 0 0 .101 1.009c.111.072.24.111.373.111a.66.66 0 0 0 .457-.2.63.63 0 0 0 .183-.456zm2.032 0a.66.66 0 0 0-.224-.418.694.694 0 0 0-.902 0 .66.66 0 0 0-.225.418c.02.161.1.31.225.418a.69.69 0 0 0 .902 0 .66.66 0 0 0 .224-.418m2.032 0a.65.65 0 0 0-.196-.464.68.68 0 0 0-.948 0 .65.65 0 0 0 0 .928.678.678 0 0 0 .948 0 .65.65 0 0 0 .196-.464m2.032 0a.65.65 0 0 0-.113-.365.682.682 0 0 0-1.031-.099.648.648 0 0 0 .101 1.009c.111.072.24.111.373.111a.68.68 0 0 0 .429-.215.65.65 0 0 0 .17-.441zm-10.089 5.258a.66.66 0 0 0-.422-.616.69.69 0 0 0-.743.149.66.66 0 0 0-.141.729.67.67 0 0 0 .636.404.68.68 0 0 0 .43-.221.66.66 0 0 0 .169-.445zm2.032 0a.65.65 0 0 0-.114-.37.686.686 0 0 0-1.234.24.664.664 0 0 0 .29.684.7.7 0 0 0 .378.112.68.68 0 0 0 .429-.221.66.66 0 0 0 .17-.445zm2.032 0a.655.655 0 0 0-.42-.599.68.68 0 0 0-.728.149.66.66 0 0 0-.141.713c.051.12.137.222.247.293.111.072.24.11.372.11a.67.67 0 0 0 .413-.228.65.65 0 0 0 .156-.438zm2.032 0a.66.66 0 0 0-.422-.616.69.69 0 0 0-.743.149.66.66 0 0 0-.141.729.67.67 0 0 0 .636.404.68.68 0 0 0 .404-.233.65.65 0 0 0 .155-.433zm2.032 0a.65.65 0 0 0-.196-.464.68.68 0 0 0-.948 0 .65.65 0 0 0 0 .928.68.68 0 0 0 .948 0 .65.65 0 0 0 .196-.464m2.032 0a.655.655 0 0 0-.42-.599.68.68 0 0 0-.728.149.66.66 0 0 0-.141.713c.051.12.137.222.247.293.111.072.24.11.372.11a.676.676 0 0 0 .528-.666zm-3.332 7.574a.674.674 0 0 0-.413-.622.7.7 0 0 0-.745.138.655.655 0 0 0 .098 1.028.7.7 0 0 0 .379.112.7.7 0 0 0 .26-.047.66.66 0 0 0 .421-.609m2.032 0a.64.64 0 0 0-.113-.364.67.67 0 0 0-.688-.279.68.68 0 0 0-.344.18.638.638 0 0 0-.145.714.66.66 0 0 0 .619.405.65.65 0 0 0 .478-.189.65.65 0 0 0 .193-.467m2.032 0a.65.65 0 0 0-.11-.373.69.69 0 0 0-.701-.29.68.68 0 0 0-.538.526.66.66 0 0 0 .296.685.7.7 0 0 0 .382.108.68.68 0 0 0 .475-.192.66.66 0 0 0 .196-.464m2.032 0a.674.674 0 0 0-.413-.622.7.7 0 0 0-.745.138.655.655 0 0 0 .098 1.028.7.7 0 0 0 .379.112.7.7 0 0 0 .26-.047.66.66 0 0 0 .421-.609m2.032 0a.64.64 0 0 0-.113-.364.67.67 0 0 0-.688-.279.68.68 0 0 0-.344.18.638.638 0 0 0-.145.714.66.66 0 0 0 .619.405.66.66 0 0 0 .438-.209.64.64 0 0 0 .172-.447zm2.032 0a.65.65 0 0 0-.11-.373.69.69 0 0 0-.701-.29.68.68 0 0 0-.538.526.66.66 0 0 0 .296.685.7.7 0 0 0 .382.108.67.67 0 0 0 .429-.215.65.65 0 0 0 .171-.441zm-10.16 5.428a.66.66 0 0 0-.225-.418.69.69 0 0 0-.902 0 .66.66 0 0 0-.224.418c.02.161.1.31.224.417a.69.69 0 0 0 .902 0 .66.66 0 0 0 .225-.417m2.032 0a.66.66 0 0 0-.414-.606.68.68 0 0 0-.731.142.66.66 0 0 0-.183.336.64.64 0 0 0 .038.379.66.66 0 0 0 .247.294.68.68 0 0 0 .847-.081.65.65 0 0 0 .196-.464m2.032 0a.66.66 0 0 0-.11-.374.69.69 0 0 0-.701-.29.7.7 0 0 0-.351.183.66.66 0 0 0-.146.73.68.68 0 0 0 .637.407.7.7 0 0 0 .472-.195.66.66 0 0 0 .199-.461m2.032 0a.66.66 0 0 0-.225-.418.69.69 0 0 0-.902 0 .66.66 0 0 0-.224.418c.02.161.1.31.224.417a.69.69 0 0 0 .902 0 .66.66 0 0 0 .225-.417m2.032 0a.66.66 0 0 0-.414-.606.68.68 0 0 0-.731.142.66.66 0 0 0-.183.336.64.64 0 0 0 .038.379.66.66 0 0 0 .247.294c.11.072.24.111.372.111a.68.68 0 0 0 .436-.212.65.65 0 0 0 .174-.444zm2.032 0a.66.66 0 0 0-.11-.374.69.69 0 0 0-.701-.29.7.7 0 0 0-.351.183.66.66 0 0 0-.146.73.68.68 0 0 0 .637.407.7.7 0 0 0 .427-.218.66.66 0 0 0 .173-.438z"></path><path fill="#263238" stroke="#263238" stroke-linecap="round" stroke-linejoin="round" d="M291.866 222.855h-33.599a.54.54 0 0 1-.349-.102.506.506 0 0 1-.153-.652.52.52 0 0 1 .268-.24l6.909-3.251a.45.45 0 0 1 .224-.059h31.039a.53.53 0 0 1 .505.355.51.51 0 0 1-.19.579l-4.329 3.26a.52.52 0 0 1-.325.11"></path><path fill="#fff" stroke="#263238" stroke-linecap="round" stroke-linejoin="round" d="M282.011 198.035h-6.177v23.031h6.177z"></path><path fill="#263238" stroke="#263238" stroke-linecap="round" stroke-linejoin="round" d="M282.986 198.035h-8.117v16.719h8.117z"></path><path fill="#fff" stroke="#263238" stroke-linecap="round" stroke-linejoin="round" d="M331.531 121.417H229.24v78.278h102.291z"></path><path fill="#263238" stroke="#263238" stroke-linecap="round" stroke-linejoin="round" d="M326.055 125.612h-91.349v69.908h91.349z"></path><path stroke="#14213d" stroke-miterlimit="10" d="M279.075 133.425h-37.226v16.182h37.226zM246.695 160.839h8.676a27.3 27.3 0 0 1 11.329 2.465l4.064 1.859c2.27 1.04 4.76 1.54 7.266 1.459a16.16 16.16 0 0 0 7.151-1.926l1.168-.616a27.1 27.1 0 0 1 12.873-3.241h10.251M246.695 166.773h8.676a27.15 27.15 0 0 1 11.329 2.465l4.064 1.849a16.2 16.2 0 0 0 7.264 1.461 16.2 16.2 0 0 0 7.153-1.918l1.168-.626a27.2 27.2 0 0 1 12.873-3.231h10.251M246.695 185.818h8.676a27.3 27.3 0 0 0 11.329-2.465l4.064-1.859a16.23 16.23 0 0 1 14.417.458l1.168.626a27.1 27.1 0 0 0 12.873 3.24h10.251"></path><path stroke="#14213d" stroke-miterlimit="10" d="M246.695 179.914h8.676a27.3 27.3 0 0 0 11.329-2.465l4.064-1.859c2.27-1.04 4.76-1.54 7.266-1.459a16.16 16.16 0 0 1 7.151 1.926l1.168.617a27.14 27.14 0 0 0 12.853 3.24h10.251"></path><path fill="#14213d" d="M316.301 156.893h-5.822v5.696h5.822zM316.301 163.911h-5.822v5.695h5.822zM316.301 175.958h-5.822v5.696h5.822zM316.301 182.966h-5.822v5.695h5.822zM245.547 156.893h-5.822v5.696h5.822zM245.547 163.911h-5.822v5.695h5.822zM245.547 175.958h-5.822v5.696h5.822zM245.547 182.966h-5.822v5.695h5.822zM287.325 133.196h-2.347a.6.6 0 0 1-.41-.166.56.56 0 0 1 0-.801.6.6 0 0 1 .41-.166h2.347c.153 0 .301.06.409.166a.56.56 0 0 1 0 .801.59.59 0 0 1-.409.166m.579 2.068a.6.6 0 0 0-.041-.219.57.57 0 0 0-.538-.348h-2.347a.6.6 0 0 0-.416.162.56.56 0 0 0-.174.405.57.57 0 0 0 .177.401c.11.106.258.165.413.165h2.347a.6.6 0 0 0 .441-.193.54.54 0 0 0 .119-.212.55.55 0 0 0 .019-.241zm0 2.634a.57.57 0 0 0-.579-.577h-2.347a.59.59 0 0 0-.614.334.56.56 0 0 0 0 .476.57.57 0 0 0 .366.313q.122.036.248.02h2.347a.6.6 0 0 0 .428-.183.56.56 0 0 0 .151-.433zm0 2.624a.56.56 0 0 0-.17-.401.59.59 0 0 0-.409-.166h-2.347a.59.59 0 0 0-.614.334.56.56 0 0 0 .148.671.6.6 0 0 0 .466.138h2.347a.58.58 0 0 0 .554-.391.6.6 0 0 0 .025-.235zm0 2.634a.56.56 0 0 0-.17-.401.59.59 0 0 0-.409-.166h-2.347a.61.61 0 0 0-.466.138.568.568 0 0 0 0 .867.58.58 0 0 0 .466.138h2.347a.58.58 0 0 0 .42-.176.56.56 0 0 0 .159-.42zm0 2.634a.56.56 0 0 0-.17-.401.59.59 0 0 0-.409-.166h-2.347a.6.6 0 0 0-.413.166.57.57 0 0 0-.177.401q0 .114.046.219a.582.582 0 0 0 .544.348h2.347a.578.578 0 0 0 .432-.18.6.6 0 0 0 .122-.203q.038-.114.025-.234zm0 2.634a.56.56 0 0 0-.17-.401.59.59 0 0 0-.409-.165h-2.347a.6.6 0 0 0-.413.165.57.57 0 0 0-.177.401q0 .114.046.219a.567.567 0 0 0 .319.307.6.6 0 0 0 .225.041h2.347a.58.58 0 0 0 .432-.18.6.6 0 0 0 .122-.203q.038-.114.025-.234zm0 2.634a.56.56 0 0 0-.167-.403.57.57 0 0 0-.412-.163h-2.347a.58.58 0 0 0-.535.349.56.56 0 0 0 .313.741.6.6 0 0 0 .222.043h2.347a.58.58 0 0 0 .432-.18.55.55 0 0 0 .122-.203q.038-.114.025-.233zm8.768-18.478a.6.6 0 0 0-.041-.219.57.57 0 0 0-.538-.348h-6.177a.6.6 0 0 0-.41.166.56.56 0 0 0 0 .801.58.58 0 0 0 .41.166h6.177a.57.57 0 0 0 .579-.566m0 2.634a.6.6 0 0 0-.041-.219.57.57 0 0 0-.538-.348h-6.177a.6.6 0 0 0-.413.163.55.55 0 0 0-.167.404c0 .15.061.294.17.4a.58.58 0 0 0 .41.166h6.177a.58.58 0 0 0 .42-.176.56.56 0 0 0 .159-.42zm0 2.634a.57.57 0 0 0-.166-.407.6.6 0 0 0-.413-.17h-6.177a.6.6 0 0 0-.366.192.566.566 0 0 0 0 .76.6.6 0 0 0 .366.192h6.177c.153 0 .301-.06.409-.166a.56.56 0 0 0 .17-.401m0 2.624a.56.56 0 0 0-.17-.401.59.59 0 0 0-.409-.165h-6.177a.6.6 0 0 0-.366.191.566.566 0 0 0 0 .76.6.6 0 0 0 .366.192h6.177a.6.6 0 0 0 .413-.17.56.56 0 0 0 .166-.407m0 2.634a.56.56 0 0 0-.17-.4.58.58 0 0 0-.409-.166h-6.177a.6.6 0 0 0-.366.191.566.566 0 0 0 0 .76.6.6 0 0 0 .366.192h6.177c.15 0 .294-.057.402-.159a.56.56 0 0 0 .177-.388zm7.407 2.634a.57.57 0 0 0-.173-.398.6.6 0 0 0-.407-.168h-6.187a.6.6 0 0 0-.407.168.57.57 0 0 0-.172.398c0 .151.061.295.17.401a.58.58 0 0 0 .409.166h6.187q.121.008.235-.031a.58.58 0 0 0 .338-.309.6.6 0 0 0 .047-.227zm0 2.634a.57.57 0 0 0-.173-.397.6.6 0 0 0-.407-.169h-6.187a.6.6 0 0 0-.407.169.56.56 0 0 0-.172.397c0 .151.061.295.17.401a.58.58 0 0 0 .409.166h6.187q.121.008.235-.031a.58.58 0 0 0 .338-.309.6.6 0 0 0 .047-.227zm0 2.635a.56.56 0 0 0-.17-.401.6.6 0 0 0-.41-.166h-6.187a.58.58 0 0 0-.409.166.56.56 0 0 0 0 .801.58.58 0 0 0 .409.166h6.187a.58.58 0 0 0 .573-.34.6.6 0 0 0 .047-.226zm-4.684-18.429a.65.65 0 0 0-.414-.606.68.68 0 0 0-.731.142.64.64 0 0 0-.145.715c.05.12.136.222.247.294s.24.111.372.111a.67.67 0 0 0 .504-.174.7.7 0 0 0 .156-.22.6.6 0 0 0 .051-.262zm2.032 0a.66.66 0 0 0-.225-.418.69.69 0 0 0-.902 0 .66.66 0 0 0-.224.418c.02.161.1.31.224.417a.69.69 0 0 0 .902 0 .66.66 0 0 0 .225-.417m2.032 0a.65.65 0 0 0-.197-.464.678.678 0 0 0-.948 0 .65.65 0 0 0 0 .928.68.68 0 0 0 .948 0 .65.65 0 0 0 .197-.464m2.032 0a.65.65 0 0 0-.414-.606.68.68 0 0 0-.731.142.64.64 0 0 0-.145.715c.05.12.136.222.247.294a.68.68 0 0 0 .846-.081.66.66 0 0 0 .197-.464m2.032 0a.66.66 0 0 0-.225-.418.69.69 0 0 0-.902 0 .66.66 0 0 0-.224.418c.02.161.1.31.224.417a.69.69 0 0 0 .902 0 .66.66 0 0 0 .225-.417m2.032 0a.65.65 0 0 0-.197-.464.678.678 0 0 0-.948 0 .65.65 0 0 0 0 .928.68.68 0 0 0 .948 0 .65.65 0 0 0 .197-.464m-10.089 5.268a.65.65 0 0 0-.113-.365.67.67 0 0 0-.688-.278.67.67 0 0 0-.344.179.65.65 0 0 0-.145.715.673.673 0 0 0 .619.405.68.68 0 0 0 .455-.202.65.65 0 0 0 .185-.454zm2.032 0a.671.671 0 0 0-.416-.623.69.69 0 0 0-.746.142.66.66 0 0 0-.146.73.67.67 0 0 0 .637.407.7.7 0 0 0 .446-.208.66.66 0 0 0 .184-.448zm2.032 0a.65.65 0 0 0-.113-.365.67.67 0 0 0-.688-.278.67.67 0 0 0-.344.179.65.65 0 0 0-.145.715.673.673 0 0 0 .619.405.68.68 0 0 0 .436-.212.65.65 0 0 0 .174-.444zm2.032 0a.65.65 0 0 0-.196-.464.68.68 0 0 0-.949 0 .65.65 0 0 0 0 .928.68.68 0 0 0 .949 0 .65.65 0 0 0 .196-.464m2.032 0a.671.671 0 0 0-.416-.623.69.69 0 0 0-.746.142.66.66 0 0 0-.146.73.67.67 0 0 0 .637.407.7.7 0 0 0 .42-.22.66.66 0 0 0 .17-.436zm2.032 0a.65.65 0 0 0-.113-.365.67.67 0 0 0-.688-.278.67.67 0 0 0-.344.179.65.65 0 0 0-.145.715.673.673 0 0 0 .619.405.68.68 0 0 0 .41-.224.65.65 0 0 0 .159-.432zm-3.19 7.564a.66.66 0 0 0-.111-.373.68.68 0 0 0-.7-.29.7.7 0 0 0-.351.182.65.65 0 0 0-.146.731.67.67 0 0 0 .255.298.7.7 0 0 0 .382.108.7.7 0 0 0 .407-.226.65.65 0 0 0 .162-.43zm2.032 0a.66.66 0 0 0-.225-.417.7.7 0 0 0-.451-.167.7.7 0 0 0-.451.167.67.67 0 0 0-.225.417c.021.162.101.31.225.418a.7.7 0 0 0 .451.167.7.7 0 0 0 .451-.167.66.66 0 0 0 .225-.418m2.032 0a.65.65 0 0 0-.414-.606.678.678 0 0 0-.731.142.648.648 0 0 0 .102 1.01c.11.072.24.11.372.11a.67.67 0 0 0 .391-.232.65.65 0 0 0 .148-.424zm2.032 0a.66.66 0 0 0-.111-.373.68.68 0 0 0-.7-.29.7.7 0 0 0-.351.182.65.65 0 0 0-.146.731.67.67 0 0 0 .255.298.7.7 0 0 0 .382.108.68.68 0 0 0 .382-.237.65.65 0 0 0 .146-.419zm2.032 0a.65.65 0 0 0-.414-.606.678.678 0 0 0-.731.142.648.648 0 0 0 .102 1.01c.11.072.24.11.372.11a.67.67 0 0 0 .372-.24.64.64 0 0 0 .136-.416zm2.032 0a.66.66 0 0 0-.671-.656.7.7 0 0 0-.474.192.66.66 0 0 0-.196.464.64.64 0 0 0 .196.464.67.67 0 0 0 .474.192.7.7 0 0 0 .474-.192.65.65 0 0 0 .197-.464m-10.089 5.428a.675.675 0 0 0-.423-.617.7.7 0 0 0-.743.149.66.66 0 0 0 .114 1.026.7.7 0 0 0 .381.108.68.68 0 0 0 .367-.249.65.65 0 0 0 .131-.417zm2.032 0a.65.65 0 0 0-.115-.37.68.68 0 0 0-.699-.284.68.68 0 0 0-.535.524.66.66 0 0 0 .29.683.7.7 0 0 0 .378.113.68.68 0 0 0 .367-.249.66.66 0 0 0 .131-.417zm2.032 0a.663.663 0 0 0-.421-.599.68.68 0 0 0-.727.148.65.65 0 0 0 .106 1.007c.11.071.239.109.371.11a.67.67 0 0 0 .351-.255.64.64 0 0 0 .117-.411zm2.032 0a.675.675 0 0 0-.423-.617.7.7 0 0 0-.743.149.66.66 0 0 0 .114 1.026.7.7 0 0 0 .381.108.7.7 0 0 0 .343-.259.65.65 0 0 0 .114-.407zm2.032 0a.65.65 0 0 0-.197-.464.677.677 0 0 0-.948 0 .65.65 0 0 0 0 .927.68.68 0 0 0 .948 0 .65.65 0 0 0 .197-.463m2.032 0a.663.663 0 0 0-.421-.599.68.68 0 0 0-.727.148.65.65 0 0 0 .106 1.007c.11.071.239.109.371.11a.663.663 0 0 0 .427-.666z"></path><path fill="#263238" stroke="#263238" stroke-linecap="round" stroke-linejoin="round" d="M223.033 336.966h-33.61a.54.54 0 0 1-.344-.107.506.506 0 0 1-.146-.648.53.53 0 0 1 .267-.239l6.898-3.26a.7.7 0 0 1 .234 0h31.029a.53.53 0 0 1 .514.35.51.51 0 0 1-.189.584l-4.328 3.251a.54.54 0 0 1-.325.069"></path><path fill="#fff" stroke="#263238" stroke-linecap="round" stroke-linejoin="round" d="M213.177 312.186H207v23.031h6.177z"></path><path fill="#263238" stroke="#263238" stroke-linecap="round" stroke-linejoin="round" d="M214.153 312.186h-8.118v16.719h8.118z"></path><path fill="#fff" stroke="#263238" stroke-linecap="round" stroke-linejoin="round" d="M262.687 235.568H160.396v78.278h102.291z"></path><path fill="#263238" stroke="#263238" stroke-linecap="round" stroke-linejoin="round" d="M257.221 239.753h-91.349v69.908h91.349z"></path><path fill="#14213d" d="M186.142 244.524h-2.358c-.153 0-.3-.06-.409-.166a.56.56 0 0 1-.17-.401.57.57 0 0 1 .173-.397.6.6 0 0 1 .406-.169h2.358c.153 0 .3.06.409.166a.56.56 0 0 1 .128.619.55.55 0 0 1-.314.308.6.6 0 0 1-.223.04m.579 2.068a.55.55 0 0 0-.167-.404.57.57 0 0 0-.412-.163h-2.358c-.153 0-.3.06-.409.166a.56.56 0 0 0 0 .801.59.59 0 0 0 .409.166h2.358c.147.003.29-.05.398-.149a.55.55 0 0 0 .181-.378zm0 2.634a.55.55 0 0 0-.167-.404.57.57 0 0 0-.412-.163h-2.358c-.153 0-.3.06-.409.166a.56.56 0 0 0-.17.401.57.57 0 0 0 .173.397.6.6 0 0 0 .406.169h2.358a.59.59 0 0 0 .395-.151.56.56 0 0 0 .184-.376zm0 2.634a.55.55 0 0 0-.167-.404.588.588 0 0 0-.412-.163h-2.358c-.153 0-.3.06-.409.166a.56.56 0 0 0-.17.401.57.57 0 0 0 .173.398.6.6 0 0 0 .406.168h2.358a.59.59 0 0 0 .395-.151.56.56 0 0 0 .184-.376zm0 2.634a.57.57 0 0 0-.166-.407.59.59 0 0 0-.413-.17h-2.358a.6.6 0 0 0-.365.192.566.566 0 0 0 0 .76.6.6 0 0 0 .365.191h2.358a.58.58 0 0 0 .395-.151.56.56 0 0 0 .184-.375zm0 2.624a.56.56 0 0 0-.17-.401.59.59 0 0 0-.409-.166h-2.358a.6.6 0 0 0-.365.192.566.566 0 0 0 0 .76.6.6 0 0 0 .365.192h2.358a.6.6 0 0 0 .399-.156.56.56 0 0 0 .18-.381zm0 2.634a.56.56 0 0 0-.17-.401.59.59 0 0 0-.409-.165h-2.358a.6.6 0 0 0-.406.168.57.57 0 0 0-.173.398c0 .15.061.294.17.401a.59.59 0 0 0 .409.166h2.358a.58.58 0 0 0 .398-.149.56.56 0 0 0 .181-.378zm0 2.634a.56.56 0 0 0-.17-.4.58.58 0 0 0-.409-.166h-2.358a.6.6 0 0 0-.406.168.57.57 0 0 0-.173.398c0 .15.061.295.17.401a.59.59 0 0 0 .409.166h2.358a.57.57 0 0 0 .401-.153.55.55 0 0 0 .178-.384zm8.808-18.429a.56.56 0 0 0-.169-.4.6.6 0 0 0-.41-.166h-6.177a.6.6 0 0 0-.41.166.56.56 0 0 0-.169.4.55.55 0 0 0 .356.527.6.6 0 0 0 .223.04h6.177a.58.58 0 0 0 .399-.149.55.55 0 0 0 .18-.378zm0 2.635a.55.55 0 0 0-.355-.527.6.6 0 0 0-.224-.04h-6.177a.589.589 0 0 0-.41.166.58.58 0 0 0-.169.401.55.55 0 0 0 .169.4.57.57 0 0 0 .41.166h6.177a.57.57 0 0 0 .399-.149.55.55 0 0 0 .18-.378zm0 2.634a.55.55 0 0 0-.355-.527.6.6 0 0 0-.224-.04h-6.177a.59.59 0 0 0-.413.163.55.55 0 0 0-.166.404c0 .15.061.294.169.4a.58.58 0 0 0 .41.166h6.177a.6.6 0 0 0 .396-.151.56.56 0 0 0 .183-.376zm0 2.634a.55.55 0 0 0-.355-.526.6.6 0 0 0-.224-.041h-6.177a.6.6 0 0 0-.413.163.55.55 0 0 0-.166.404c0 .15.061.294.169.4a.58.58 0 0 0 .41.166h6.177a.6.6 0 0 0 .396-.151.56.56 0 0 0 .183-.376zm0 2.634a.549.549 0 0 0-.166-.407.57.57 0 0 0-.413-.17h-6.177a.6.6 0 0 0-.366.192.57.57 0 0 0 0 .76.6.6 0 0 0 .366.191h6.177a.58.58 0 0 0 .396-.151.56.56 0 0 0 .183-.375zm7.407 2.624a.57.57 0 0 0-.172-.398.6.6 0 0 0-.407-.169h-6.188a.6.6 0 0 0-.365.192.566.566 0 0 0 0 .76.6.6 0 0 0 .365.192h6.188a.6.6 0 0 0 .396-.158.57.57 0 0 0 .183-.379zm0 2.634a.57.57 0 0 0-.172-.398.6.6 0 0 0-.407-.168h-6.188a.6.6 0 0 0-.406.168.57.57 0 0 0-.173.398c0 .15.061.294.17.401a.59.59 0 0 0 .409.166h6.188a.6.6 0 0 0 .396-.152.56.56 0 0 0 .183-.375zm0 2.634a.57.57 0 0 0-.172-.398.6.6 0 0 0-.407-.168h-6.188a.6.6 0 0 0-.406.168.57.57 0 0 0-.173.398c0 .15.061.295.17.401a.59.59 0 0 0 .409.166h6.188a.6.6 0 0 0 .399-.156.56.56 0 0 0 .18-.381zm-4.684-18.429c0-.174-.07-.34-.196-.463a.68.68 0 0 0-.948 0 .646.646 0 0 0 0 .927.678.678 0 0 0 .948 0 .65.65 0 0 0 .196-.464m2.032 0a.66.66 0 0 0-.224-.417.69.69 0 0 0-.902 0 .66.66 0 0 0-.225.417c.02.162.1.31.225.418a.69.69 0 0 0 .902 0 .66.66 0 0 0 .224-.418m2.032 0a.664.664 0 0 0-.414-.606.7.7 0 0 0-.387-.037.67.67 0 0 0-.527.515.64.64 0 0 0 .038.379.66.66 0 0 0 .62.405.68.68 0 0 0 .441-.187.65.65 0 0 0 .199-.429zm2.032 0c0-.174-.07-.34-.196-.463a.68.68 0 0 0-.948 0 .646.646 0 0 0 0 .927.678.678 0 0 0 .948 0 .65.65 0 0 0 .196-.464m2.032 0a.66.66 0 0 0-.224-.417.69.69 0 0 0-.902 0 .66.66 0 0 0-.225.417c.02.162.1.31.225.418a.69.69 0 0 0 .902 0 .66.66 0 0 0 .224-.418m2.032 0a.664.664 0 0 0-.414-.606.7.7 0 0 0-.387-.037.67.67 0 0 0-.527.515.64.64 0 0 0 .038.379.66.66 0 0 0 .62.405.67.67 0 0 0 .415-.2.65.65 0 0 0 .184-.416zm-10.089 5.269a.656.656 0 0 0-.414-.606.68.68 0 0 0-.73.142.646.646 0 0 0 .101 1.009c.111.072.24.111.373.111a.68.68 0 0 0 .415-.201.65.65 0 0 0 .184-.416zm2.032 0a.66.66 0 0 0-.413-.623.7.7 0 0 0-.745.138.654.654 0 0 0-.152.727.67.67 0 0 0 .63.414.68.68 0 0 0 .415-.201.65.65 0 0 0 .184-.416zm2.032 0a.65.65 0 0 0-.196-.464.68.68 0 0 0-.948 0 .65.65 0 0 0 0 .928.678.678 0 0 0 .948 0 .65.65 0 0 0 .196-.464m2.032 0a.656.656 0 0 0-.414-.606.68.68 0 0 0-.73.142.646.646 0 0 0 .101 1.009c.111.072.24.111.373.111a.67.67 0 0 0 .39-.212.65.65 0 0 0 .169-.405zm2.032 0a.66.66 0 0 0-.413-.623.7.7 0 0 0-.745.138.654.654 0 0 0-.152.727.67.67 0 0 0 .63.414.67.67 0 0 0 .39-.212.65.65 0 0 0 .168-.405zm2.032 0a.656.656 0 0 0-.414-.606.68.68 0 0 0-.73.142.646.646 0 0 0 .101 1.009c.111.072.24.111.373.111a.66.66 0 0 0 .374-.218.64.64 0 0 0 .154-.399zm-3.19 7.564a.66.66 0 0 0-.422-.616.69.69 0 0 0-.744.149.66.66 0 0 0-.141.729.68.68 0 0 0 .637.404.663.663 0 0 0 .528-.626zm2.032 0a.65.65 0 0 0-.196-.464.68.68 0 0 0-.949 0 .65.65 0 0 0-.196.464c0 .174.071.341.196.464a.68.68 0 0 0 .949 0 .65.65 0 0 0 .196-.464m2.032 0a.65.65 0 0 0-.118-.362.67.67 0 0 0-.689-.27.67.67 0 0 0-.522.518.64.64 0 0 0 .04.377.678.678 0 0 0 .619.403.68.68 0 0 0 .354-.233c.09-.112.14-.25.143-.393zm2.032 0a.668.668 0 0 0-.42-.615.686.686 0 0 0-.928.485.662.662 0 0 0 .289.684.7.7 0 0 0 .378.112.68.68 0 0 0 .355-.233c.09-.112.14-.25.143-.393zm2.032 0a.65.65 0 0 0-.196-.464.68.68 0 0 0-.949 0 .65.65 0 0 0-.196.464c0 .174.071.341.196.464a.68.68 0 0 0 .949 0 .65.65 0 0 0 .196-.464m2.032 0a.65.65 0 0 0-.118-.362.67.67 0 0 0-.689-.27.67.67 0 0 0-.522.518.64.64 0 0 0 .04.377.678.678 0 0 0 .619.403.7.7 0 0 0 .33-.242.66.66 0 0 0 .127-.384zm-10.089 5.437a.66.66 0 0 0-.415-.623.69.69 0 0 0-.747.142.66.66 0 0 0-.145.731.684.684 0 0 0 .637.406.7.7 0 0 0 .327-.238.66.66 0 0 0 .13-.378zm2.032 0a.664.664 0 0 0-.414-.606.67.67 0 0 0-.387-.037.67.67 0 0 0-.343.179.64.64 0 0 0-.146.715.66.66 0 0 0 .62.405.67.67 0 0 0 .317-.241.65.65 0 0 0 .12-.375zm2.032 0a.65.65 0 0 0-.196-.464.68.68 0 0 0-.948 0 .65.65 0 0 0 0 .928.678.678 0 0 0 .948 0 .65.65 0 0 0 .196-.464m2.032 0a.66.66 0 0 0-.413-.622.69.69 0 0 0-.745.138.658.658 0 0 0 .098 1.027.7.7 0 0 0 .38.113.68.68 0 0 0 .309-.244.65.65 0 0 0 .117-.372zm2.032 0a.664.664 0 0 0-.414-.606.67.67 0 0 0-.387-.037.67.67 0 0 0-.343.179.64.64 0 0 0-.146.715.66.66 0 0 0 .62.405.648.648 0 0 0 .396-.616zm2.032 0a.65.65 0 0 0-.196-.464.68.68 0 0 0-.948 0 .65.65 0 0 0 0 .928.678.678 0 0 0 .948 0 .65.65 0 0 0 .196-.464M186.142 265.637h-2.358a.6.6 0 0 1-.365-.192.566.566 0 0 1 0-.76.6.6 0 0 1 .365-.192h2.358a.6.6 0 0 1 .365.192.566.566 0 0 1 0 .76.6.6 0 0 1-.365.192m.579 2.057a.56.56 0 0 0-.17-.401.59.59 0 0 0-.409-.165h-2.358a.6.6 0 0 0-.365.191.566.566 0 0 0 0 .76.6.6 0 0 0 .365.192h2.358a.6.6 0 0 0 .413-.17.56.56 0 0 0 .166-.407m0 2.634a.56.56 0 0 0-.17-.4.58.58 0 0 0-.409-.166h-2.358a.6.6 0 0 0-.406.168.57.57 0 0 0-.173.398c0 .15.061.295.17.401a.59.59 0 0 0 .409.166h2.358a.58.58 0 0 0 .398-.149.55.55 0 0 0 .181-.378zm0 2.634a.56.56 0 0 0-.17-.4.58.58 0 0 0-.409-.166h-2.358a.6.6 0 0 0-.406.169.57.57 0 0 0-.173.397c0 .151.061.295.17.401a.59.59 0 0 0 .409.166h2.358a.566.566 0 0 0 .579-.567m0 2.634a.55.55 0 0 0-.167-.403.57.57 0 0 0-.412-.163h-2.358c-.153 0-.3.06-.409.166a.56.56 0 0 0 0 .801.59.59 0 0 0 .409.166h2.358a.566.566 0 0 0 .579-.567m0 2.635a.55.55 0 0 0-.167-.404.57.57 0 0 0-.412-.163h-2.358c-.153 0-.3.06-.409.166a.56.56 0 0 0 0 .801.59.59 0 0 0 .409.166h2.358a.566.566 0 0 0 .579-.566m0 2.634a.55.55 0 0 0-.167-.404.57.57 0 0 0-.412-.163h-2.358c-.153 0-.3.06-.409.166a.56.56 0 0 0-.17.401.57.57 0 0 0 .173.397.6.6 0 0 0 .406.169h2.358c.153 0 .3-.059.409-.166a.56.56 0 0 0 .17-.4m0 2.634a.57.57 0 0 0-.579-.577h-2.358a.6.6 0 0 0-.365.192.566.566 0 0 0 0 .76.6.6 0 0 0 .365.191h2.358c.153 0 .3-.059.409-.166a.56.56 0 0 0 .17-.4m8.808-18.429a.559.559 0 0 0-.355-.532.6.6 0 0 0-.224-.045h-6.177a.6.6 0 0 0-.366.192.57.57 0 0 0 0 .76.6.6 0 0 0 .366.192h6.177c.154 0 .301-.06.41-.166a.56.56 0 0 0 .169-.401m0 2.624a.56.56 0 0 0-.169-.401.59.59 0 0 0-.41-.165h-6.177a.6.6 0 0 0-.366.191.57.57 0 0 0 0 .76.6.6 0 0 0 .366.192h6.177a.6.6 0 0 0 .413-.17.55.55 0 0 0 .166-.407m0 2.634a.56.56 0 0 0-.169-.4.58.58 0 0 0-.41-.166h-6.177a.58.58 0 0 0-.41.166.56.56 0 0 0-.169.4.55.55 0 0 0 .356.526.6.6 0 0 0 .223.041h6.177a.58.58 0 0 0 .399-.149.55.55 0 0 0 .18-.378zm0 2.634a.56.56 0 0 0-.169-.4.58.58 0 0 0-.41-.166h-6.177a.58.58 0 0 0-.41.166.56.56 0 0 0-.169.4.55.55 0 0 0 .356.527.6.6 0 0 0 .223.04h6.177a.577.577 0 0 0 .538-.348.5.5 0 0 0 .041-.219m0 2.634a.55.55 0 0 0-.355-.526.6.6 0 0 0-.224-.04h-6.177a.6.6 0 0 0-.41.166.56.56 0 0 0 0 .801.6.6 0 0 0 .41.166h6.177a.577.577 0 0 0 .538-.348.5.5 0 0 0 .041-.219m7.407 2.635a.56.56 0 0 0-.17-.401.58.58 0 0 0-.409-.166h-6.188c-.153 0-.3.06-.409.166a.56.56 0 0 0 0 .801.59.59 0 0 0 .409.166h6.188c.154 0 .301-.06.409-.166a.56.56 0 0 0 .17-.4m0 2.634a.56.56 0 0 0-.17-.401.58.58 0 0 0-.409-.166h-6.188c-.153 0-.3.06-.409.166a.56.56 0 0 0-.17.401.57.57 0 0 0 .173.397.6.6 0 0 0 .406.169h6.188a.6.6 0 0 0 .407-.169.57.57 0 0 0 .172-.397m0 2.634a.57.57 0 0 0-.169-.404.6.6 0 0 0-.41-.173h-6.188a.6.6 0 0 0-.365.192.566.566 0 0 0 0 .76.6.6 0 0 0 .365.191h6.188a.6.6 0 0 0 .407-.168.57.57 0 0 0 .172-.398m-4.684-18.429a.64.64 0 0 0-.196-.464.679.679 0 0 0-1.094.213.649.649 0 0 0 .146.715.678.678 0 0 0 .948 0 .65.65 0 0 0 .196-.464m2.032 0a.66.66 0 0 0-.413-.622.69.69 0 0 0-.745.138.66.66 0 0 0 .098 1.027.7.7 0 0 0 .38.113.7.7 0 0 0 .471-.195.66.66 0 0 0 .199-.461zm2.032 0a.65.65 0 0 0-.113-.365.674.674 0 0 0-.688-.278.67.67 0 0 0-.527.515.64.64 0 0 0 .038.379.674.674 0 0 0 .62.405.68.68 0 0 0 .454-.202.65.65 0 0 0 .186-.454zm2.032 0a.65.65 0 0 0-.196-.464.68.68 0 0 0-.948 0 .65.65 0 0 0 0 .928.678.678 0 0 0 .948 0 .65.65 0 0 0 .196-.464m2.032 0a.66.66 0 0 0-.413-.622.69.69 0 0 0-.745.138.66.66 0 0 0 .098 1.027.7.7 0 0 0 .38.113.7.7 0 0 0 .445-.208.66.66 0 0 0 .184-.448zm2.032 0a.65.65 0 0 0-.113-.365.674.674 0 0 0-.688-.278.67.67 0 0 0-.527.515.64.64 0 0 0 .038.379.674.674 0 0 0 .62.405.68.68 0 0 0 .429-.215.65.65 0 0 0 .17-.441zm-10.16 5.298a.65.65 0 0 0-.118-.362.67.67 0 0 0-.689-.27.67.67 0 0 0-.522.518.64.64 0 0 0 .04.377c.051.12.137.221.247.293s.24.11.372.11a.7.7 0 0 0 .475-.199.66.66 0 0 0 .195-.467m2.032 0a.66.66 0 0 0-.42-.615.686.686 0 0 0-.928.485.662.662 0 0 0 .289.684.7.7 0 0 0 .379.112.7.7 0 0 0 .474-.199.66.66 0 0 0 .196-.467zm2.032 0a.65.65 0 0 0-.196-.464.68.68 0 0 0-.948 0 .65.65 0 0 0 0 .928.678.678 0 0 0 .948 0 .65.65 0 0 0 .196-.464m2.032 0a.65.65 0 0 0-.118-.362.67.67 0 0 0-.689-.27.67.67 0 0 0-.522.518.64.64 0 0 0 .04.377c.051.12.137.221.247.293s.24.11.372.11a.7.7 0 0 0 .449-.212.66.66 0 0 0 .181-.454zm2.032 0a.66.66 0 0 0-.42-.615.686.686 0 0 0-.928.485.662.662 0 0 0 .289.684.7.7 0 0 0 .379.112.68.68 0 0 0 .448-.212.65.65 0 0 0 .181-.454zm2.032 0a.65.65 0 0 0-.118-.362.67.67 0 0 0-.689-.27.67.67 0 0 0-.522.518.64.64 0 0 0 .04.377c.051.12.137.221.247.293s.24.11.372.11a.68.68 0 0 0 .432-.219.65.65 0 0 0 .167-.447zm-3.19 7.574a.66.66 0 0 0-.225-.417.69.69 0 0 0-.902 0 .66.66 0 0 0-.224.417c.02.162.1.31.224.418a.69.69 0 0 0 .902 0 .66.66 0 0 0 .225-.418m2.032 0a.64.64 0 0 0-.196-.464.684.684 0 0 0-.949 0 .64.64 0 0 0-.145.715.66.66 0 0 0 .363.355.68.68 0 0 0 .876-.355.6.6 0 0 0 .051-.251m2.032 0a.64.64 0 0 0-.113-.364.67.67 0 0 0-.688-.279.66.66 0 0 0-.527.515.64.64 0 0 0 .038.379.66.66 0 0 0 .619.405.67.67 0 0 0 .424-.239.64.64 0 0 0 .145-.457zm2.032 0a.674.674 0 0 0-.413-.622.69.69 0 0 0-.745.138.655.655 0 0 0 .098 1.027.7.7 0 0 0 .379.113.67.67 0 0 0 .424-.239.64.64 0 0 0 .145-.457zm2.032 0a.65.65 0 0 0-.196-.464.68.68 0 0 0-.949 0 .65.65 0 0 0-.196.464c0 .174.071.341.196.464a.68.68 0 0 0 .949 0 .65.65 0 0 0 .196-.464m2.032 0a.64.64 0 0 0-.113-.364.67.67 0 0 0-.688-.279.66.66 0 0 0-.527.515.64.64 0 0 0 .038.379.66.66 0 0 0 .619.405.67.67 0 0 0 .399-.25.65.65 0 0 0 .13-.446zm-10.231 5.348a.671.671 0 0 0-.416-.623.69.69 0 0 0-.746.142.66.66 0 0 0-.146.731.67.67 0 0 0 .255.298c.114.072.247.11.382.108a.68.68 0 0 0 .475-.192.66.66 0 0 0 .196-.464m2.032 0a.64.64 0 0 0-.113-.364.68.68 0 0 0-.688-.279.67.67 0 0 0-.344.179.65.65 0 0 0-.145.715.673.673 0 0 0 .619.405.66.66 0 0 0 .651-.656zm2.032 0a.64.64 0 0 0-.113-.364.68.68 0 0 0-.688-.279.67.67 0 0 0-.344.179.65.65 0 0 0-.145.715.673.673 0 0 0 .619.405.68.68 0 0 0 .455-.202.65.65 0 0 0 .185-.454zm2.032 0a.65.65 0 0 0-.11-.373.69.69 0 0 0-1.048-.111.654.654 0 0 0 .098 1.027.7.7 0 0 0 .379.113.68.68 0 0 0 .455-.202.65.65 0 0 0 .185-.454zm2.032 0a.64.64 0 0 0-.113-.364.68.68 0 0 0-.688-.279.67.67 0 0 0-.344.179.65.65 0 0 0-.145.715.673.673 0 0 0 .619.405.67.67 0 0 0 .438-.21.63.63 0 0 0 .172-.446zm2.032 0a.64.64 0 0 0-.113-.364.68.68 0 0 0-.688-.279.67.67 0 0 0-.344.179.65.65 0 0 0-.145.715.673.673 0 0 0 .619.405.68.68 0 0 0 .429-.215.65.65 0 0 0 .171-.441zM186.142 287.206h-2.358a.58.58 0 0 1-.409-.166.56.56 0 0 1-.17-.4.57.57 0 0 1 .173-.398.6.6 0 0 1 .406-.169h2.358c.153 0 .3.06.409.166a.56.56 0 0 1 .128.619.566.566 0 0 1-.537.348m.579 2.068a.55.55 0 0 0-.167-.404.588.588 0 0 0-.412-.163h-2.358c-.153 0-.3.06-.409.166a.56.56 0 0 0 0 .802.59.59 0 0 0 .409.165h2.358a.574.574 0 0 0 .544-.361.6.6 0 0 0 .035-.225zm0 2.634a.545.545 0 0 0-.356-.526.6.6 0 0 0-.223-.041h-2.358c-.153 0-.3.06-.409.166a.56.56 0 0 0-.17.401.57.57 0 0 0 .173.398.6.6 0 0 0 .406.169h2.358c.153 0 .3-.06.409-.166a.56.56 0 0 0 .17-.401m0 2.634a.545.545 0 0 0-.356-.526.6.6 0 0 0-.223-.04h-2.358c-.153 0-.3.059-.409.165a.56.56 0 0 0-.17.401c.003.15.065.292.173.398a.6.6 0 0 0 .406.169h2.358c.153 0 .3-.06.409-.166a.56.56 0 0 0 .17-.401m0 2.634a.57.57 0 0 0-.166-.407.58.58 0 0 0-.413-.169h-2.358a.6.6 0 0 0-.365.191.566.566 0 0 0 0 .76.6.6 0 0 0 .365.192h2.358a.6.6 0 0 0 .399-.155.57.57 0 0 0 .18-.382zm0 2.634a.57.57 0 0 0-.166-.407.6.6 0 0 0-.413-.169h-2.358a.6.6 0 0 0-.365.191.57.57 0 0 0 0 .76.6.6 0 0 0 .365.192h2.358c.153 0 .3-.06.409-.166a.56.56 0 0 0 .17-.401m0 2.624a.56.56 0 0 0-.17-.4.59.59 0 0 0-.409-.166h-2.358a.6.6 0 0 0-.365.191.57.57 0 0 0 0 .76.6.6 0 0 0 .365.192h2.358a.6.6 0 0 0 .413-.169.58.58 0 0 0 .166-.408m0 2.635a.56.56 0 0 0-.17-.401.59.59 0 0 0-.409-.166h-2.358a.6.6 0 0 0-.406.169.57.57 0 0 0-.173.398c0 .15.061.294.17.4a.59.59 0 0 0 .409.166h2.358a.57.57 0 0 0 .579-.566m8.808-18.429a.56.56 0 0 0-.169-.401.6.6 0 0 0-.41-.166h-6.177a.6.6 0 0 0-.41.166.563.563 0 0 0 .41.967h6.177a.57.57 0 0 0 .538-.348.5.5 0 0 0 .041-.218m0 2.634a.55.55 0 0 0-.355-.526.6.6 0 0 0-.224-.041h-6.177a.6.6 0 0 0-.222.043.577.577 0 0 0-.357.524.56.56 0 0 0 .357.523.6.6 0 0 0 .222.043h6.177a.6.6 0 0 0 .228-.042.555.555 0 0 0 .351-.544zm0 2.634a.545.545 0 0 0-.355-.526.6.6 0 0 0-.224-.041h-6.177a.6.6 0 0 0-.413.163.56.56 0 0 0-.166.404c0 .15.061.294.169.401a.6.6 0 0 0 .41.166h6.177c.154 0 .301-.06.41-.166a.56.56 0 0 0 .169-.401m0 2.634a.545.545 0 0 0-.355-.526.6.6 0 0 0-.224-.04h-6.177a.57.57 0 0 0-.579.566c0 .15.061.294.169.401a.6.6 0 0 0 .41.166h6.177c.154 0 .301-.06.41-.166a.56.56 0 0 0 .169-.401m0 2.634a.559.559 0 0 0-.355-.532.6.6 0 0 0-.224-.044h-6.177a.6.6 0 0 0-.366.191.57.57 0 0 0 0 .76.6.6 0 0 0 .366.192h6.177a.6.6 0 0 0 .399-.155.56.56 0 0 0 .18-.382zm7.407 2.634a.57.57 0 0 0-.169-.404.6.6 0 0 0-.41-.172h-6.188a.6.6 0 0 0-.365.191.57.57 0 0 0 0 .76.6.6 0 0 0 .365.192h6.188a.6.6 0 0 0 .407-.169.57.57 0 0 0 .172-.398m0 2.624a.57.57 0 0 0-.172-.397.6.6 0 0 0-.407-.169h-6.188a.6.6 0 0 0-.365.191.57.57 0 0 0 0 .76.6.6 0 0 0 .365.192h6.188a.6.6 0 0 0 .41-.172.57.57 0 0 0 .169-.405m0 2.635a.57.57 0 0 0-.172-.398.6.6 0 0 0-.407-.169h-6.188a.6.6 0 0 0-.406.169.57.57 0 0 0-.173.398c0 .15.061.294.17.4a.59.59 0 0 0 .409.166h6.188c.154 0 .301-.06.409-.166a.56.56 0 0 0 .17-.4m-4.684-18.429a.65.65 0 0 0-.196-.464.68.68 0 0 0-.948 0 .65.65 0 0 0 0 .928.678.678 0 0 0 .948 0 .65.65 0 0 0 .196-.464m2.032 0a.66.66 0 0 0-.224-.418.694.694 0 0 0-.902 0 .66.66 0 0 0-.225.418c.02.161.1.31.225.417a.686.686 0 0 0 1.126-.417m2.032 0a.656.656 0 0 0-.414-.606.68.68 0 0 0-.73.142.64.64 0 0 0-.146.715.66.66 0 0 0 .247.294c.11.072.24.111.373.111a.68.68 0 0 0 .454-.203.64.64 0 0 0 .186-.453zm2.032 0a.65.65 0 0 0-.196-.464.68.68 0 0 0-.948 0 .65.65 0 0 0 0 .928.678.678 0 0 0 .948 0 .65.65 0 0 0 .196-.464m2.032 0a.66.66 0 0 0-.224-.418.694.694 0 0 0-.902 0 .66.66 0 0 0-.225.418c.02.161.1.31.225.417a.686.686 0 0 0 1.126-.417m2.032 0a.656.656 0 0 0-.414-.606.68.68 0 0 0-.73.142.64.64 0 0 0-.146.715.66.66 0 0 0 .247.294c.11.072.24.111.373.111a.68.68 0 0 0 .429-.215.65.65 0 0 0 .17-.441zm-10.089 5.268a.664.664 0 0 0-.414-.606.67.67 0 0 0-.387-.037.67.67 0 0 0-.527.515.65.65 0 0 0 .285.674c.111.072.24.11.373.11a.68.68 0 0 0 .429-.215.65.65 0 0 0 .17-.441zm2.032 0a.66.66 0 0 0-.413-.622.69.69 0 0 0-.745.138.66.66 0 0 0 .098 1.027.7.7 0 0 0 .38.113.68.68 0 0 0 .429-.215.65.65 0 0 0 .17-.441zm2.032 0a.65.65 0 0 0-.196-.464.68.68 0 0 0-.948 0 .65.65 0 0 0 0 .928.678.678 0 0 0 .948 0 .65.65 0 0 0 .196-.464m2.032 0a.664.664 0 0 0-.414-.606.67.67 0 0 0-.387-.037.67.67 0 0 0-.527.515.65.65 0 0 0 .285.674c.111.072.24.11.373.11a.67.67 0 0 0 .403-.227.65.65 0 0 0 .156-.429zm2.032 0a.66.66 0 0 0-.413-.622.69.69 0 0 0-.745.138.66.66 0 0 0 .098 1.027.7.7 0 0 0 .38.113.67.67 0 0 0 .403-.227.64.64 0 0 0 .155-.429zm2.032 0a.664.664 0 0 0-.414-.606.67.67 0 0 0-.387-.037.67.67 0 0 0-.527.515.65.65 0 0 0 .285.674c.111.072.24.11.373.11a.66.66 0 0 0 .387-.233.63.63 0 0 0 .141-.423zm-3.19 7.564a.66.66 0 0 0-.422-.616.69.69 0 0 0-.744.149.665.665 0 0 0-.141.729.67.67 0 0 0 .256.297.7.7 0 0 0 .381.107.68.68 0 0 0 .385-.24.66.66 0 0 0 .143-.426zm2.032 0a.65.65 0 0 0-.196-.464.68.68 0 0 0-.949 0 .65.65 0 0 0-.196.464c0 .174.071.341.196.464a.68.68 0 0 0 .949 0 .65.65 0 0 0 .196-.464m2.032 0a.64.64 0 0 0-.118-.361.67.67 0 0 0-.689-.271.7.7 0 0 0-.341.182.65.65 0 0 0-.141.714.678.678 0 0 0 .619.402.7.7 0 0 0 .367-.248.66.66 0 0 0 .13-.418zm2.032 0c0-.131-.04-.26-.115-.37a.694.694 0 0 0-1.047-.101.65.65 0 0 0-.147.726.66.66 0 0 0 .25.299.7.7 0 0 0 .378.112.68.68 0 0 0 .367-.248.65.65 0 0 0 .131-.418zm2.032 0a.65.65 0 0 0-.196-.464.68.68 0 0 0-.949 0 .65.65 0 0 0-.196.464c0 .174.071.341.196.464a.68.68 0 0 0 .949 0 .65.65 0 0 0 .196-.464m2.032 0a.64.64 0 0 0-.118-.361.67.67 0 0 0-.689-.271.7.7 0 0 0-.341.182.65.65 0 0 0-.141.714.678.678 0 0 0 .619.402.68.68 0 0 0 .342-.258.65.65 0 0 0 .115-.408zm-10.089 5.438a.66.66 0 0 0-.11-.374.68.68 0 0 0-.701-.29.7.7 0 0 0-.351.183.65.65 0 0 0-.145.73.685.685 0 0 0 .637.407.675.675 0 0 0 .457-.656zm2.032 0a.664.664 0 0 0-.414-.607.7.7 0 0 0-.387-.037.67.67 0 0 0-.527.516.64.64 0 0 0 .038.379.67.67 0 0 0 .62.405.67.67 0 0 0 .329-.258.64.64 0 0 0 .108-.398zm2.032 0a.65.65 0 0 0-.196-.464.68.68 0 0 0-.948 0 .646.646 0 0 0 0 .927.677.677 0 0 0 .948 0 .65.65 0 0 0 .196-.463m2.032 0a.66.66 0 0 0-.413-.623.7.7 0 0 0-.745.138.655.655 0 0 0 .098 1.028.7.7 0 0 0 .38.113.7.7 0 0 0 .321-.261.65.65 0 0 0 .105-.395zm2.032 0a.664.664 0 0 0-.414-.607.7.7 0 0 0-.387-.037.67.67 0 0 0-.527.516.64.64 0 0 0 .038.379.67.67 0 0 0 .62.405.68.68 0 0 0 .305-.266.65.65 0 0 0 .091-.39zm2.032 0a.65.65 0 0 0-.196-.464.68.68 0 0 0-.948 0 .646.646 0 0 0 0 .927.677.677 0 0 0 .948 0 .65.65 0 0 0 .196-.463M222.291 244.524h-2.347a.6.6 0 0 1-.416-.162.56.56 0 0 1-.173-.405.56.56 0 0 1 .176-.401.6.6 0 0 1 .413-.165h2.347c.153 0 .301.06.409.166.109.106.17.25.17.4a.6.6 0 0 1-.041.219.57.57 0 0 1-.538.348m.579 2.068a.6.6 0 0 0-.041-.219.57.57 0 0 0-.538-.348h-2.347a.6.6 0 0 0-.41.166.58.58 0 0 0-.169.401.55.55 0 0 0 .169.4.57.57 0 0 0 .41.166h2.347c.147.003.29-.05.398-.149a.55.55 0 0 0 .181-.378zm0 2.634a.6.6 0 0 0-.041-.219.57.57 0 0 0-.538-.348h-2.347a.585.585 0 0 0-.544.348.55.55 0 0 0 .131.62c.11.106.258.165.413.165h2.347a.6.6 0 0 0 .396-.151.56.56 0 0 0 .183-.376zm0 2.634a.6.6 0 0 0-.041-.219.57.57 0 0 0-.538-.348h-2.347a.585.585 0 0 0-.544.348.55.55 0 0 0 .131.62c.11.106.258.165.413.165h2.347a.58.58 0 0 0 .396-.151.56.56 0 0 0 .183-.375zm0 2.634a.57.57 0 0 0-.166-.407.6.6 0 0 0-.413-.17h-2.347a.61.61 0 0 0-.466.138.58.58 0 0 0-.201.434.56.56 0 0 0 .201.433.58.58 0 0 0 .466.138h2.347a.58.58 0 0 0 .396-.151.56.56 0 0 0 .183-.375zm0 2.624a.56.56 0 0 0-.17-.401.59.59 0 0 0-.409-.166h-2.347a.61.61 0 0 0-.466.138.6.6 0 0 0-.148.196.56.56 0 0 0 .148.672.6.6 0 0 0 .466.138h2.347a.6.6 0 0 0 .399-.156.56.56 0 0 0 .18-.381zm0 2.634a.56.56 0 0 0-.17-.4.58.58 0 0 0-.409-.166h-2.347a.6.6 0 0 0-.413.165.55.55 0 0 0-.003.805q.083.08.191.122a.6.6 0 0 0 .225.041h2.347a.58.58 0 0 0 .398-.149.55.55 0 0 0 .181-.378zm0 2.634a.56.56 0 0 0-.17-.4.58.58 0 0 0-.409-.166h-2.347a.6.6 0 0 0-.413.165.547.547 0 0 0-.003.805.59.59 0 0 0 .416.163h2.347a.57.57 0 0 0 .402-.153.55.55 0 0 0 .177-.384zm8.778-18.389a.56.56 0 0 0-.169-.4.58.58 0 0 0-.41-.166h-6.177a.58.58 0 0 0-.41.166.56.56 0 0 0-.169.4.5.5 0 0 0 .041.219.57.57 0 0 0 .538.348h6.177a.6.6 0 0 0 .413-.163.55.55 0 0 0 .166-.404m0 2.634a.55.55 0 0 0-.166-.403.57.57 0 0 0-.413-.163h-6.177a.58.58 0 0 0-.41.166.56.56 0 0 0 0 .801.6.6 0 0 0 .41.166h6.177a.59.59 0 0 0 .413-.163.55.55 0 0 0 .166-.404m0 2.634a.55.55 0 0 0-.166-.403.57.57 0 0 0-.413-.163h-6.177a.58.58 0 0 0-.413.163.6.6 0 0 0-.125.185.5.5 0 0 0-.041.218c0 .151.061.295.169.401a.6.6 0 0 0 .41.166h6.177c.154 0 .301-.06.41-.166a.56.56 0 0 0 .169-.401m0 2.635a.55.55 0 0 0-.166-.404.57.57 0 0 0-.413-.163h-6.177a.58.58 0 0 0-.413.163.6.6 0 0 0-.125.185.5.5 0 0 0-.041.219c0 .15.061.294.169.4a.6.6 0 0 0 .41.166h6.177c.154 0 .301-.06.41-.166a.56.56 0 0 0 .169-.4m0 2.634a.549.549 0 0 0-.166-.407.57.57 0 0 0-.413-.17h-6.177a.6.6 0 0 0-.366.192.57.57 0 0 0 0 .76.6.6 0 0 0 .366.191h6.177a.58.58 0 0 0 .41-.166.56.56 0 0 0 .169-.4m7.407 2.624a.57.57 0 0 0-.173-.398.6.6 0 0 0-.406-.169h-6.188a.6.6 0 0 0-.366.192.57.57 0 0 0 0 .76.6.6 0 0 0 .366.191h6.188a.593.593 0 0 0 .43-.161.58.58 0 0 0 .179-.415zm0 2.634a.57.57 0 0 0-.173-.398.6.6 0 0 0-.406-.169h-6.188a.6.6 0 0 0-.406.169.57.57 0 0 0-.173.398c0 .15.061.294.17.401a.59.59 0 0 0 .409.165h6.188a.57.57 0 0 0 .429-.155.56.56 0 0 0 .18-.411zm0 2.634a.57.57 0 0 0-.173-.398.6.6 0 0 0-.406-.169h-6.188a.6.6 0 0 0-.406.169.57.57 0 0 0-.173.398c0 .15.061.294.17.401a.59.59 0 0 0 .409.166h6.188a.6.6 0 0 0 .433-.159.553.553 0 0 0 .176-.418zm-4.684-18.429a.65.65 0 0 0-.196-.464.68.68 0 0 0-.949 0 .65.65 0 0 0-.196.464c0 .174.071.341.196.464a.68.68 0 0 0 .949 0 .65.65 0 0 0 .196-.464m2.032 0a.65.65 0 0 0-.11-.373.69.69 0 0 0-.701-.29.7.7 0 0 0-.351.182.659.659 0 0 0 .11 1.029c.113.073.246.11.381.108a.676.676 0 0 0 .636-.402.7.7 0 0 0 .055-.254zm2.032 0a.64.64 0 0 0-.113-.364.67.67 0 0 0-.688-.279.66.66 0 0 0-.527.515.64.64 0 0 0 .038.379.66.66 0 0 0 .619.405.68.68 0 0 0 .475-.192.65.65 0 0 0 .196-.464m2.032 0a.65.65 0 0 0-.196-.464.68.68 0 0 0-.949 0 .65.65 0 0 0-.196.464c0 .174.071.341.196.464a.68.68 0 0 0 .949 0 .65.65 0 0 0 .196-.464m2.032 0a.66.66 0 0 0-.225-.417.686.686 0 0 0-1.126.417c.02.162.1.31.224.418a.69.69 0 0 0 .902 0 .66.66 0 0 0 .225-.418m2.032 0a.64.64 0 0 0-.113-.364.67.67 0 0 0-.688-.279.66.66 0 0 0-.527.515.64.64 0 0 0 .038.379.66.66 0 0 0 .619.405.68.68 0 0 0 .449-.205.65.65 0 0 0 .181-.451zm-10.089 5.268a.64.64 0 0 0-.113-.364.67.67 0 0 0-.688-.279.68.68 0 0 0-.344.18.65.65 0 0 0-.145.715.67.67 0 0 0 .62.404.68.68 0 0 0 .448-.205.65.65 0 0 0 .182-.451zm2.032 0a.66.66 0 0 0-.224-.417.69.69 0 0 0-.903 0 .66.66 0 0 0-.224.417c.02.162.1.31.224.418a.69.69 0 0 0 .903 0 .66.66 0 0 0 .224-.418m2.032 0c0-.174-.07-.34-.196-.463a.68.68 0 0 0-.949 0 .65.65 0 0 0 0 .927.68.68 0 0 0 .949 0 .65.65 0 0 0 .196-.464m2.032 0a.64.64 0 0 0-.113-.364.67.67 0 0 0-.688-.279.68.68 0 0 0-.344.18.65.65 0 0 0-.145.715.67.67 0 0 0 .62.404.67.67 0 0 0 .422-.218.65.65 0 0 0 .167-.438zm2.032 0a.674.674 0 0 0-.413-.622.7.7 0 0 0-.745.138.66.66 0 0 0-.152.727.67.67 0 0 0 .629.413.67.67 0 0 0 .423-.218.65.65 0 0 0 .167-.438zm2.032 0c0-.174-.07-.34-.196-.463a.68.68 0 0 0-.949 0 .65.65 0 0 0 0 .927.68.68 0 0 0 .949 0 .65.65 0 0 0 .196-.464m-3.19 7.565a.673.673 0 0 0-.423-.616.69.69 0 0 0-.743.148.66.66 0 0 0-.141.73.67.67 0 0 0 .255.296c.114.072.246.11.381.108a.7.7 0 0 0 .405-.233.66.66 0 0 0 .154-.433zm2.032 0a.65.65 0 0 0-.196-.464.68.68 0 0 0-.949 0 .65.65 0 0 0 0 .928.68.68 0 0 0 .949 0 .65.65 0 0 0 .196-.464m2.032 0a.663.663 0 0 0-.421-.599.68.68 0 0 0-.727.148.65.65 0 0 0 .106 1.007c.11.072.239.11.371.11a.7.7 0 0 0 .386-.241.66.66 0 0 0 .143-.425zm2.032 0a.673.673 0 0 0-.423-.616.69.69 0 0 0-.743.148.66.66 0 0 0-.141.73.67.67 0 0 0 .255.296c.114.072.246.11.381.108a.7.7 0 0 0 .38-.244.66.66 0 0 0 .139-.422zm2.032 0a.65.65 0 0 0-.196-.464.68.68 0 0 0-.949 0 .65.65 0 0 0 0 .928.68.68 0 0 0 .949 0 .65.65 0 0 0 .196-.464m2.032 0a.663.663 0 0 0-.421-.599.68.68 0 0 0-.727.148.65.65 0 0 0 .106 1.007c.11.072.239.11.371.11a.68.68 0 0 0 .361-.251.65.65 0 0 0 .127-.415zm-10.089 5.437a.66.66 0 0 0-.11-.374.697.697 0 0 0-1.052-.107.66.66 0 0 0-.146.731.692.692 0 0 0 .637.406.68.68 0 0 0 .358-.247.66.66 0 0 0 .13-.409zm2.032 0a.64.64 0 0 0-.113-.364.67.67 0 0 0-.688-.279.66.66 0 0 0-.527.515.64.64 0 0 0 .038.379.673.673 0 0 0 .619.405.67.67 0 0 0 .348-.25.65.65 0 0 0 .12-.406zm2.032 0a.65.65 0 0 0-.196-.464.68.68 0 0 0-.949 0 .65.65 0 0 0-.196.464c0 .174.071.341.196.464a.68.68 0 0 0 .949 0 .65.65 0 0 0 .196-.464m2.032 0a.66.66 0 0 0-.11-.374.697.697 0 0 0-1.052-.107.66.66 0 0 0-.146.731.692.692 0 0 0 .637.406.663.663 0 0 0 .448-.656zm2.032 0a.64.64 0 0 0-.113-.364.67.67 0 0 0-.688-.279.66.66 0 0 0-.527.515.64.64 0 0 0 .038.379.673.673 0 0 0 .619.405.67.67 0 0 0 .324-.259.64.64 0 0 0 .103-.397zm2.032 0a.65.65 0 0 0-.196-.464.68.68 0 0 0-.949 0 .65.65 0 0 0-.196.464c0 .174.071.341.196.464a.68.68 0 0 0 .949 0 .65.65 0 0 0 .196-.464M222.291 266.143h-2.347a.6.6 0 0 1-.413-.165.55.55 0 0 1-.003-.805.598.598 0 0 1 .416-.163h2.347a.6.6 0 0 1 .412.163.6.6 0 0 1 .126.185.57.57 0 0 1-.129.62.59.59 0 0 1-.409.165m.579 2.068a.57.57 0 0 0-.166-.407.6.6 0 0 0-.189-.125.6.6 0 0 0-.224-.045h-2.347a.61.61 0 0 0-.466.138.6.6 0 0 0-.148.196.56.56 0 0 0 .148.672.6.6 0 0 0 .466.138h2.347c.153 0 .301-.06.409-.166a.56.56 0 0 0 .17-.401m0 2.624a.56.56 0 0 0-.17-.4.58.58 0 0 0-.409-.166h-2.347a.58.58 0 0 0-.667.571q0 .124.053.238a.58.58 0 0 0 .366.314q.122.035.248.02h2.347a.6.6 0 0 0 .413-.17.56.56 0 0 0 .166-.407m0 2.634a.56.56 0 0 0-.17-.4.58.58 0 0 0-.409-.166h-2.347a.6.6 0 0 0-.413.165.547.547 0 0 0-.003.805.59.59 0 0 0 .416.163h2.347a.6.6 0 0 0 .412-.163.6.6 0 0 0 .126-.185.6.6 0 0 0 .041-.219m0 2.634a.56.56 0 0 0-.17-.4.58.58 0 0 0-.409-.166h-2.347a.6.6 0 0 0-.413.165.56.56 0 0 0-.176.401.56.56 0 0 0 .173.405.6.6 0 0 0 .416.162h2.347a.566.566 0 0 0 .579-.567m0 2.634a.6.6 0 0 0-.041-.218.57.57 0 0 0-.538-.348h-2.347a.6.6 0 0 0-.41.166.57.57 0 0 0-.169.4.55.55 0 0 0 .169.401.6.6 0 0 0 .41.166h2.347a.566.566 0 0 0 .579-.567m0 2.635a.6.6 0 0 0-.041-.219.57.57 0 0 0-.538-.348h-2.347a.6.6 0 0 0-.41.166.56.56 0 0 0 0 .801.6.6 0 0 0 .41.166h2.347a.57.57 0 0 0 .579-.566m0 2.634a.6.6 0 0 0-.041-.219.57.57 0 0 0-.538-.348h-2.347a.6.6 0 0 0-.416.162.553.553 0 0 0 .003.806c.11.106.258.165.413.165h2.347a.58.58 0 0 0 .409-.166.56.56 0 0 0 .17-.4m8.778-18.429a.55.55 0 0 0-.356-.526.6.6 0 0 0-.223-.041h-6.177a.58.58 0 0 0-.538.348.565.565 0 0 0 .128.62.59.59 0 0 0 .41.165h6.177a.59.59 0 0 0 .41-.165.56.56 0 0 0 .169-.401m0 2.634a.559.559 0 0 0-.355-.532.6.6 0 0 0-.224-.045h-6.177a.6.6 0 0 0-.366.192.57.57 0 0 0 0 .76.6.6 0 0 0 .366.192h6.177c.154 0 .301-.06.41-.166a.56.56 0 0 0 .169-.401m0 2.624a.56.56 0 0 0-.169-.4.58.58 0 0 0-.41-.166h-6.177a.6.6 0 0 0-.366.191.57.57 0 0 0 0 .76.6.6 0 0 0 .366.192h6.177a.6.6 0 0 0 .413-.17.55.55 0 0 0 .166-.407m0 2.634a.56.56 0 0 0-.169-.4.58.58 0 0 0-.41-.166h-6.177a.58.58 0 0 0-.41.166.56.56 0 0 0-.169.4.5.5 0 0 0 .041.219.57.57 0 0 0 .538.348h6.177a.6.6 0 0 0 .413-.163.55.55 0 0 0 .166-.404m0 2.634a.56.56 0 0 0-.169-.4.58.58 0 0 0-.41-.166h-6.177a.58.58 0 0 0-.41.166.56.56 0 0 0-.169.4.5.5 0 0 0 .041.219.57.57 0 0 0 .538.348h6.177a.59.59 0 0 0 .413-.163.55.55 0 0 0 .166-.404m7.407 2.634a.56.56 0 0 0-.17-.4.59.59 0 0 0-.409-.166h-6.188a.59.59 0 0 0-.409.166.56.56 0 0 0 0 .801.59.59 0 0 0 .409.166h6.188a.594.594 0 0 0 .429-.155.56.56 0 0 0 .18-.412zm0 2.635a.56.56 0 0 0-.17-.401.59.59 0 0 0-.409-.166h-6.188a.59.59 0 0 0-.409.166.56.56 0 0 0 0 .801.59.59 0 0 0 .409.166h6.188a.59.59 0 0 0 .429-.155.57.57 0 0 0 .18-.411zm0 2.634a.56.56 0 0 0-.17-.401.59.59 0 0 0-.409-.166h-6.188a.59.59 0 0 0-.409.166.56.56 0 0 0-.17.401.57.57 0 0 0 .173.397.6.6 0 0 0 .406.169h6.188a.6.6 0 0 0 .56-.344.6.6 0 0 0 .049-.222zm-4.684-18.429a.65.65 0 0 0-.113-.365.682.682 0 0 0-1.032-.099.66.66 0 0 0-.183.336.64.64 0 0 0 .038.379.66.66 0 0 0 .247.294c.11.072.24.111.372.111a.68.68 0 0 0 .494-.181.66.66 0 0 0 .208-.475zm2.032 0a.66.66 0 0 0-.225-.418.69.69 0 0 0-.902 0 .66.66 0 0 0-.224.418c.02.161.1.31.224.418a.694.694 0 0 0 .902 0 .66.66 0 0 0 .225-.418m2.032 0a.65.65 0 0 0-.196-.464.68.68 0 0 0-.949 0 .65.65 0 0 0-.196.464c0 .174.071.341.196.464a.68.68 0 0 0 .949 0 .65.65 0 0 0 .196-.464m2.032 0a.65.65 0 0 0-.113-.365.682.682 0 0 0-1.032-.099.66.66 0 0 0-.183.336.64.64 0 0 0 .038.379.66.66 0 0 0 .247.294c.11.072.24.111.372.111a.68.68 0 0 0 .468-.196.65.65 0 0 0 .193-.46zm2.032 0a.672.672 0 0 0-.413-.622.69.69 0 0 0-.745.138.65.65 0 0 0-.152.726.67.67 0 0 0 .25.301.7.7 0 0 0 .379.113.68.68 0 0 0 .468-.196.65.65 0 0 0 .193-.46zm2.032 0a.65.65 0 0 0-.196-.464.68.68 0 0 0-.949 0 .65.65 0 0 0-.196.464c0 .174.071.341.196.464a.68.68 0 0 0 .949 0 .65.65 0 0 0 .196-.464m-10.089 5.258a.65.65 0 0 0-.118-.362.67.67 0 0 0-.689-.27.67.67 0 0 0-.341.182.65.65 0 0 0-.141.713.678.678 0 0 0 .619.403.68.68 0 0 0 .448-.212.66.66 0 0 0 .182-.454zm2.032 0a.66.66 0 0 0-.422-.616.69.69 0 0 0-.744.149.67.67 0 0 0-.141.729.68.68 0 0 0 .637.404.69.69 0 0 0 .442-.215.65.65 0 0 0 .177-.451zm2.032 0a.65.65 0 0 0-.196-.464.68.68 0 0 0-.949 0 .65.65 0 0 0-.196.464c0 .174.071.341.196.464a.68.68 0 0 0 .949 0 .65.65 0 0 0 .196-.464m2.032 0a.65.65 0 0 0-.118-.362.67.67 0 0 0-.689-.27.67.67 0 0 0-.341.182.65.65 0 0 0-.141.713.678.678 0 0 0 .619.403.7.7 0 0 0 .423-.224.66.66 0 0 0 .166-.442zm2.032 0c0-.132-.04-.26-.115-.37a.686.686 0 0 0-1.233.24.662.662 0 0 0 .289.684.7.7 0 0 0 .378.112.7.7 0 0 0 .424-.224.66.66 0 0 0 .166-.442zm2.032 0a.65.65 0 0 0-.196-.464.68.68 0 0 0-.949 0 .65.65 0 0 0-.196.464c0 .174.071.341.196.464a.68.68 0 0 0 .949 0 .65.65 0 0 0 .196-.464m-3.19 7.574a.66.66 0 0 0-.111-.373.68.68 0 0 0-.7-.29.68.68 0 0 0-.538.526.66.66 0 0 0 .296.685.7.7 0 0 0 .382.108.653.653 0 0 0 .559-.656zm2.032 0a.64.64 0 0 0-.113-.364.67.67 0 0 0-.688-.279.67.67 0 0 0-.527.515.64.64 0 0 0 .038.379.66.66 0 0 0 .619.405.66.66 0 0 0 .394-.23.64.64 0 0 0 .145-.426zm2.032 0a.64.64 0 0 0-.113-.364.67.67 0 0 0-.688-.279.67.67 0 0 0-.527.515.64.64 0 0 0 .038.379.66.66 0 0 0 .619.405.67.67 0 0 0 .385-.235.65.65 0 0 0 .144-.421zm2.032 0a.66.66 0 0 0-.111-.373.68.68 0 0 0-.7-.29.68.68 0 0 0-.538.526.66.66 0 0 0 .296.685.7.7 0 0 0 .382.108.652.652 0 0 0 .519-.656zm2.032 0a.64.64 0 0 0-.113-.364.67.67 0 0 0-.688-.279.67.67 0 0 0-.527.515.64.64 0 0 0 .038.379.66.66 0 0 0 .619.405.66.66 0 0 0 .369-.241.64.64 0 0 0 .129-.415zm2.032 0a.64.64 0 0 0-.113-.364.67.67 0 0 0-.688-.279.67.67 0 0 0-.527.515.64.64 0 0 0 .038.379.66.66 0 0 0 .619.405.67.67 0 0 0 .36-.245.64.64 0 0 0 .128-.411zm-10.089 5.428a.66.66 0 0 0-.11-.374.69.69 0 0 0-.701-.29.7.7 0 0 0-.351.183.66.66 0 0 0-.146.73.68.68 0 0 0 .256.299c.113.072.246.11.381.108a.7.7 0 0 0 .358-.247.66.66 0 0 0 .13-.409zm2.032 0a.66.66 0 0 0-.414-.606.68.68 0 0 0-.731.142.66.66 0 0 0-.183.336.64.64 0 0 0 .038.379.66.66 0 0 0 .247.294c.11.072.24.111.372.111a.67.67 0 0 0 .348-.251.64.64 0 0 0 .12-.405zm2.032 0a.65.65 0 0 0-.196-.464.68.68 0 0 0-.949 0 .65.65 0 0 0-.196.464c0 .174.071.341.196.464a.68.68 0 0 0 .949 0 .65.65 0 0 0 .196-.464m2.032 0a.66.66 0 0 0-.11-.374.69.69 0 0 0-.701-.29.7.7 0 0 0-.351.183.66.66 0 0 0-.146.73.68.68 0 0 0 .256.299c.113.072.246.11.381.108a.7.7 0 0 0 .334-.257.66.66 0 0 0 .114-.399zm2.032 0a.66.66 0 0 0-.414-.606.68.68 0 0 0-.731.142.66.66 0 0 0-.183.336.64.64 0 0 0 .038.379.66.66 0 0 0 .247.294c.11.072.24.111.372.111a.67.67 0 0 0 .324-.26.64.64 0 0 0 .103-.396zm2.032 0a.65.65 0 0 0-.196-.464.68.68 0 0 0-.949 0 .65.65 0 0 0-.196.464c0 .174.071.341.196.464a.68.68 0 0 0 .949 0 .65.65 0 0 0 .196-.464"></path><path stroke="#263238" stroke-linecap="round" stroke-linejoin="round" d="M219.09 214.048c-.295 3.757-2.123 6.68-4.064 6.531s-3.292-3.311-2.997-7.068 2.123-6.689 4.064-6.54 3.292 3.31 2.997 7.077"></path><path fill="#fff" d="M216.154 194.635s.386 6.958-.792 10.198c-1.179 3.241-2.754 5.388-2.754 6.958s2.56 3.47 2.56 6.541-5.699 17.892-7.274 20.775-1.016 3.846-2.946 4.035-6.879-2.107-6.879-2.107-2.956.378-3.342 1.531-1.382 5.198-1.382 5.198l-28.702-12.504a28 28 0 0 0 5.903-9.811c1.768-5.576-1.016-14.234-1.016-14.234s-2.754-20.188 9.824-25.963c12.579-5.775 30.867-2.118 33.823.775 2.957 2.893 2.977 8.608 2.977 8.608"></path><mask id="a" width="53" height="66" x="164" y="182" maskUnits="userSpaceOnUse" style="mask-type:luminance"><path fill="#fff" d="M216.154 194.635s.386 6.958-.792 10.198c-1.179 3.241-2.754 5.388-2.754 6.958s2.56 3.47 2.56 6.541-5.699 17.892-7.274 20.775-1.016 3.846-2.946 4.035-6.879-2.107-6.879-2.107-2.956.378-3.342 1.531-1.382 5.198-1.382 5.198l-28.702-12.504a28 28 0 0 0 5.903-9.811c1.768-5.576-1.016-14.234-1.016-14.234s-2.754-20.188 9.824-25.963c12.579-5.775 30.867-2.118 33.823.775 2.957 2.893 2.977 8.608 2.977 8.608"></path></mask><g fill="#000" mask="url(#a)"><path d="M197.805 226.562c.356-8.946-2.113-20.367-2.113-20.367s.345-2.763-4.948-11.391a114 114 0 0 0-7.112-11.123 30 30 0 0 0-4.206 1.531c-12.579 5.775-9.825 25.963-9.825 25.963s2.753 8.658 1.016 14.234a28 28 0 0 1-5.903 9.811l16.611 7.316 13.3-1.779s.691.298 1.686.695a10 10 0 0 1 1.758-.407s4.907 2.306 6.878 2.107c1.301-1.61-7.498-7.574-7.142-16.59M200.274 196.881l7.051-.347s-4.227 4.482.711 4.482 8.128-1.202 8.128-3.797c0-2.594 2.469-6.55-7.051-6.55s-11.664 3.797-8.839 6.212" opacity=".4"></path></g><path stroke="#263238" stroke-linecap="round" stroke-linejoin="round" d="M216.154 194.635s.386 6.958-.792 10.198c-1.179 3.241-2.754 5.388-2.754 6.958s2.56 3.47 2.56 6.541-5.699 17.892-7.274 20.775-1.016 3.846-2.946 4.035-6.879-2.107-6.879-2.107-2.956.378-3.342 1.531-1.382 5.198-1.382 5.198l-28.702-12.504a28 28 0 0 0 5.903-9.811c1.768-5.576-1.016-14.234-1.016-14.234s-2.754-20.188 9.824-25.963c12.579-5.775 30.867-2.118 33.823.775 2.957 2.893 2.977 8.608 2.977 8.608"></path><path fill="#263238" stroke="#263238" stroke-linecap="round" stroke-linejoin="round" d="M192.369 212.527s4.715 1.342 5.304 0-1.179-1.729 1.016-2.505 7.275-3.847 7.275-6.958-5.903-8.27-2.957-9.045 11.999-.378 11.999-.378-6.299 2.883-3.15 4.225 10.811-.378 13.757-4.613c2.946-4.234-1.179-10.934-6.878-14.621-5.7-3.688-17.1-6.73-28.306-6.342-11.207.388-19.467 4.234-21.824 10.576s1.382 28.657 1.575 34.621 3.932 7.694 8.26 7.694 8.057-3.658 9.042-6.958c.986-3.3 1.372-6.541 1.961-7.306.59-.766 2.926 1.61 2.926 1.61"></path><path stroke="#707070" stroke-linecap="round" stroke-linejoin="round" d="M179.294 211.722a14.7 14.7 0 0 1-2.398 2.087M224.455 186.872s-1.311 1.928-6.564 3.211-16.398-4.175-28.539 1.282c-8.26 3.717-6.178 9.373-7.326 14.91"></path><path stroke="#707070" stroke-linecap="round" stroke-linejoin="round" d="M201.493 196.464s-4.267.636-7.549 6.093-2.946 13.797-12.791 16.371"></path><path stroke="#263238" stroke-linecap="round" stroke-linejoin="round" d="m190.591 209.257 28.113 2.882"></path><path fill="#fff" d="M194.523 215.41s.397-6.73-2.154-10c-2.55-3.27-4.724-.994-5.903 5.576-1.178 6.571-1.178 10 1.372 10.934a7.4 7.4 0 0 0 5.08-.188"></path><path stroke="#263238" stroke-linecap="round" stroke-linejoin="round" d="M194.523 215.41s.397-6.73-2.154-10c-2.55-3.27-4.724-.994-5.903 5.576-1.178 6.571-1.178 10 1.372 10.934a7.4 7.4 0 0 0 5.08-.188"></path><path fill="#263238" stroke="#263238" stroke-linecap="round" stroke-linejoin="round" d="M266.192 390.155c-2.367-2.276-8.616-7.674-16.469-9.513-10.059-2.336-54.133-7.256-54.133-7.256l-2.164-8.677s-6.228-1.879-7.661-1.879-7.904 2.117-22.281 5.159-40.111-4.414-40.111-4.414a19.2 19.2 0 0 0-5.152 6.549 18.8 18.8 0 0 0-1.848 8.063c0 5.964.569 10.934 1.27 11.928z"></path><path fill="#14213d" d="m158.75 239.067-.721.487c-2.764 1.859-12.965 8.777-20.707 14.711-9.042 6.958-9.631 19.811-10.027 29.82-.397 10.01-6.991 72.264-8.565 79.958-1.575 7.693 12.496 9.661 26.06 11.59 13.564 1.928 31.059-.189 39.512-4.036s10.424-3.658 10.424-7.892c0-4.235.194-13.847.194-14.612s6.096-47.891 5.699-61.738c-.396-13.846.793-21.351-2.55-28.279s-11.796-12.306-23.002-15.964c-11.207-3.657-16.317-4.045-16.317-4.045"></path><mask id="b" width="83" height="138" x="118" y="239" maskUnits="userSpaceOnUse" style="mask-type:luminance"><path fill="#fff" d="m158.75 239.067-.721.487c-2.764 1.859-12.965 8.777-20.707 14.711-9.042 6.958-9.631 19.811-10.027 29.82-.397 10.01-6.991 72.264-8.565 79.958-1.575 7.693 12.496 9.661 26.06 11.59 13.564 1.928 31.059-.189 39.512-4.036s10.424-3.658 10.424-7.892c0-4.235.194-13.847.194-14.612s6.096-47.891 5.699-61.738c-.396-13.846.793-21.351-2.55-28.279s-11.796-12.306-23.002-15.964c-11.207-3.657-16.317-4.045-16.317-4.045"></path></mask><g mask="url(#b)"><path fill="#000" d="M191.638 266.968c-3.323-6.54-14.031-18.468-14.031-18.468s8.128-2.356-19.568-8.946c-2.764 1.859-12.965 8.777-20.707 14.711-9.042 6.958-9.631 19.811-10.027 29.82-.397 10.01-6.991 72.264-8.565 79.958-1.575 7.693 12.496 9.661 26.06 11.59 3.585.49 7.201.729 10.82.715l39.533-31.738.254.328c1.067-8.867 3.617-30.039 4.714-45.028-2.855-13.012-6.187-28.389-8.483-32.942" opacity=".4"></path><path stroke="#263238" stroke-linecap="round" stroke-linejoin="round" d="M145.389 279.006s1.799 17.077 10.232 27.971M170.688 307.563s1.808 4.126 10.84 10.934M163.444 319.929s9.621 3.24 18.948 1.471M160.426 376.159s19.863-10.009 27.686-19.731"></path></g><path stroke="#263238" stroke-linecap="round" stroke-linejoin="round" d="m158.75 239.067-.721.487c-2.764 1.859-12.965 8.777-20.707 14.711-9.042 6.958-9.631 19.811-10.027 29.82-.397 10.01-6.991 72.264-8.565 79.958-1.575 7.693 12.496 9.661 26.06 11.59 13.564 1.928 31.059-.189 39.512-4.036s10.424-3.658 10.424-7.892c0-4.235.194-13.847.194-14.612s6.096-47.891 5.699-61.738c-.396-13.846.793-21.351-2.55-28.279s-11.796-12.306-23.002-15.964c-11.207-3.657-16.317-4.045-16.317-4.045"></path><path fill="#14213d" d="m160.711 232.526-5.263 8.658s15.921 3.658 24.181 6.958 19.304 11.928 19.304 11.928-1.768-9.811-3.343-12.306-17.892-10.934-24.577-13.468-10.302-1.77-10.302-1.77"></path><mask id="c" width="44" height="29" x="155" y="232" maskUnits="userSpaceOnUse" style="mask-type:luminance"><path fill="#fff" d="m160.711 232.526-5.263 8.658s15.921 3.658 24.181 6.958 19.304 11.928 19.304 11.928-1.768-9.811-3.343-12.306-17.892-10.934-24.577-13.468-10.302-1.77-10.302-1.77"></path></mask><g mask="url(#c)"><path fill="#000" d="M185.257 250.876c.372-.111.705-.32.963-.604s.431-.633.5-1.007c.569-4.582-7.355-11.103-7.762-11.441-3.109-1.511-6.004-2.813-8.026-3.568-6.675-2.495-10.221-1.73-10.221-1.73l-5.263 8.658s15.921 3.658 24.181 6.958a48 48 0 0 1 5.628 2.734" opacity=".4"></path></g><path stroke="#263238" stroke-linecap="round" stroke-linejoin="round" d="m160.711 232.526-5.263 8.658s15.921 3.658 24.181 6.958 19.304 11.928 19.304 11.928-1.768-9.811-3.343-12.306-17.892-10.934-24.577-13.468-10.302-1.77-10.302-1.77"></path><path fill="#fff" stroke="#263238" stroke-linecap="round" stroke-linejoin="round" d="M255.27 341.389s5.08-4.234 7.467-8.469c2.388-4.234 3.932-5.377 5.71-4.97 1.031.231 2.083.361 3.14.388 0 0 6.289-3.658 8.26-4.036s5.893 4.225 5.893 4.225 6.685 4.97 5.903 6.163c-.783 1.193-1.971.576-2.754.576s-2.56-1.352-3.535-.994-5.314 3.072-5.314 3.072 5.08 0 6.492.576c1.412.577 6.482 4.97 5.507 5.586s-1.016.766-2.164.577a18 18 0 0 1-3.932-1.928l-5.314.994s3.15 3.27 4.135 4.035c.986.766 4.715 1.929 3.14 2.883s-2.754.586-4.714-.765c-1.961-1.352-6.29-3.46-7.112-3.46s-2.947 2.694-6.483 3.847a35.3 35.3 0 0 1-8.849 1.153l-1.016.994-5.893-6.958-1.178-.994z"></path><path stroke="#263238" stroke-linecap="round" stroke-linejoin="round" d="M285.74 328.497s-1.768-.994-2.947-.378c-1.178.617-8.646 4.801-8.646 4.801M271.587 328.308l-3.536 2.306"></path><path fill="#fff" stroke="#263238" stroke-linecap="round" stroke-linejoin="round" d="M219.883 344.461s12.974-.189 14.945-1.342 6.685-4.423 6.878-5.775-1.016-2.108-2.946-1.342c-1.931.765-7.112 2.694-7.864 2.694a29 29 0 0 1-4.125-1.153s5.7-4.97 8.057-6.352a6.56 6.56 0 0 1 6.289 0c1.382.775 3.536-1.73 1.768-3.072a9.84 9.84 0 0 0-6.289-2.117 9 9 0 0 0-2.754.577s-2.164-3.459-3.728-3.082a6.76 6.76 0 0 0-2.754 1.541 3.65 3.65 0 0 0-3.546.189c-1.767 1.163-3.535 1.541-5.496 3.081s-7.671 5.189-8.453 6.541c-.783 1.352 10.018 9.612 10.018 9.612"></path><path stroke="#263238" stroke-linecap="round" stroke-linejoin="round" d="m233.842 326.579-5.506 3.071M227.36 325.038l-3.932 2.694"></path><path fill="#14213d" d="M182.341 278.678s-5.506 7.316-7.274 13.091.386 14.035 1.016 15.963c.63 1.929 32.034 62.503 35.377 68.467s7.112 6.342 9.835 5.388c2.723-.955 34.402-23.081 35.56-24.234s6.492-5.576 6.492-5.576 1.016-6.163-3.342-9.424-6.493-1.54-6.493-1.54l-27.523 7.306s-15.525-52.315-17.272-62.314c-1.748-10 1.016-9.423-4.521-14.811a76.8 76.8 0 0 0-12.192-9.443"></path><mask id="d" width="90" height="121" x="174" y="261" maskUnits="userSpaceOnUse" style="mask-type:luminance"><path fill="#fff" d="M182.341 278.678s-5.506 7.316-7.274 13.091.386 14.035 1.016 15.963c.63 1.929 32.034 62.503 35.377 68.467s7.112 6.342 9.835 5.388c2.723-.955 34.402-23.081 35.56-24.234s6.492-5.576 6.492-5.576 1.016-6.163-3.342-9.424-6.493-1.54-6.493-1.54l-27.523 7.306s-15.525-52.315-17.272-62.314c-1.748-10 1.016-9.423-4.521-14.811a76.8 76.8 0 0 0-12.192-9.443"></path></mask><g mask="url(#d)"><path fill="#000" d="M256.845 357.353c1.178-1.153 6.492-5.577 6.492-5.577.18-1.497.094-3.014-.254-4.482-11.064 4.284-33.741 13.16-35.062 14.462-1.758 1.71-.874-1.292-.874-4.721s-5.263 5.964-6.096 8.151-2.875-6.104-3.515-9.434-10.953-29.173-14.021-41.181-8.524-41.042-11.836-47.603a33 33 0 0 0-2.032-3.32l-8.301 14.463s-4.521 7.883-6.289 13.658.386 14.035 1.016 15.963c.315 1.044 9.784 19.483 18.887 37.027l.204-.159s16.662 41.271 24.851 37.265c8.016-4.98 35.804-23.508 36.83-24.512" opacity=".4"></path></g><path stroke="#263238" stroke-linecap="round" stroke-linejoin="round" d="M182.341 278.678s-5.506 7.316-7.274 13.091.386 14.035 1.016 15.963c.63 1.929 32.034 62.503 35.377 68.467s7.112 6.342 9.835 5.388c2.723-.955 34.402-23.081 35.56-24.234s6.492-5.576 6.492-5.576 1.016-6.163-3.342-9.424-6.493-1.54-6.493-1.54l-27.523 7.306s-15.525-52.315-17.272-62.314c-1.748-10 1.016-9.423-4.521-14.811a76.8 76.8 0 0 0-12.192-9.443"></path><path stroke="#263238" stroke-linecap="round" stroke-linejoin="round" d="M249.763 342.542s8.931 1.104 9.439 12.694"></path><path fill="#fff" stroke="#263238" stroke-linecap="round" stroke-linejoin="round" d="M153.934 390.155h4.562c-6.99-12.753-45.527-83.188-46.837-86.379-1.433-3.518-3.587-3.518-4.308-4.97-.722-1.451.244-7.494 0-11.48s-13.412-41.013-17.008-47.106c-3.597-6.093-9.144-5.397-9.144-5.397l-1.443 3.757 22.759 60.703z"></path><path fill="#263238" stroke="#263238" stroke-linecap="round" stroke-linejoin="round" d="M64.73 303.081c9.458 21.371 36.311 81.199 38.546 87.074h50.648c-5.944-10.467-41.28-72.98-48.768-92.71-8.128-21.56-20.848-59.998-23.957-62.622s-18.684-2.575-24.912-.696c-6.229 1.878-6.472 2.574-6.229 6.56s5.253 41.092 14.671 62.394"></path><path stroke="#263238" stroke-linecap="round" stroke-linejoin="round" d="M82.865 390.155h366.38"></path></svg>