<svg xmlns="http://www.w3.org/2000/svg" width="62" height="62" fill="none" viewBox="0 0 62 62"><g clip-path="url(#a)"><path fill="#0073aa" d="M46.827 0H14.335C6.418 0 0 6.418 0 14.335v32.492c0 7.917 6.418 14.335 14.335 14.335h32.492c7.917 0 14.335-6.418 14.335-14.335V14.335C61.162 6.418 54.744 0 46.827 0"></path><path fill="#fff" d="M10.086 30.58c0 8.112 4.714 15.122 11.55 18.445L11.86 22.239a20.4 20.4 0 0 0-1.774 8.34m34.33-1.035c0-2.533-.91-4.287-1.69-5.652-1.04-1.688-2.013-3.118-2.013-4.806 0-1.884 1.429-3.638 3.441-3.638.091 0 .177.011.266.017a20.42 20.42 0 0 0-13.84-5.38c-7.16 0-13.459 3.673-17.123 9.237.48.015.933.025 1.318.025 2.144 0 5.462-.26 5.462-.26 1.105-.066 1.236 1.557.132 1.688 0 0-1.11.13-2.346.195l7.463 22.2 4.485-13.452-3.193-8.748a37 37 0 0 1-2.149-.196c-1.104-.065-.975-1.753.13-1.688 0 0 3.384.26 5.398.26 2.144 0 5.462-.26 5.462-.26 1.106-.065 1.236 1.558.132 1.688 0 0-1.113.13-2.346.196L40.81 43l2.044-6.83c.887-2.835 1.56-4.871 1.56-6.626"></path><path fill="#fff" d="m30.94 32.372-6.15 17.869a20.5 20.5 0 0 0 12.596-.327 2 2 0 0 1-.146-.283zm17.624-11.625q.14 1.048.138 2.107c0 2.08-.389 4.418-1.559 7.341l-6.26 18.1c6.093-3.553 10.191-10.154 10.191-17.715 0-3.563-.91-6.914-2.51-9.833"></path><path fill="#fff" d="M30.58 6.69c-13.173 0-23.89 10.716-23.89 23.89s10.717 23.89 23.89 23.89 23.892-10.716 23.892-23.89S43.752 6.69 30.58 6.69m0 46.686c-12.569 0-22.795-10.227-22.795-22.797S18.01 7.785 30.58 7.785 53.374 18.01 53.374 30.579 43.15 53.376 30.58 53.376"></path></g><defs><clipPath id="a"><path fill="#fff" d="M0 0h61.162v61.162H0z"></path></clipPath></defs></svg>