<svg xmlns="http://www.w3.org/2000/svg" width="62" height="62" fill="none" viewBox="0 0 62 62"><g clip-path="url(#a)"><path fill="#242938" d="M46.827 0H14.335C6.418 0 0 6.418 0 14.335v32.492c0 7.917 6.418 14.335 14.335 14.335h32.492c7.917 0 14.335-6.418 14.335-14.335V14.335C61.162 6.418 54.744 0 46.827 0"></path><path fill="url(#b)" fill-rule="evenodd" d="M19.83 26.28q2.15-8.6 10.75-8.6c8.602 0 9.677 6.45 13.977 7.526q4.3 1.074 7.526-3.226-2.15 8.601-10.751 8.601c-8.601 0-9.676-6.45-13.977-7.526q-4.3-1.074-7.525 3.226M9.079 39.183q2.15-8.601 10.75-8.601c8.602 0 9.677 6.45 13.977 7.526q4.3 1.076 7.526-3.226-2.15 8.601-10.751 8.601c-8.601 0-9.676-6.45-13.977-7.525q-4.3-1.076-7.525 3.225" clip-rule="evenodd"></path></g><defs><linearGradient id="b" x1="20.666" x2="39.062" y1="17.68" y2="44.319" gradientUnits="userSpaceOnUse"><stop stop-color="#32b1c1"></stop><stop offset="1" stop-color="#14c6b7"></stop></linearGradient><clipPath id="a"><path fill="#fff" d="M0 0h61.162v61.162H0z"></path></clipPath></defs></svg>