<svg xmlns="http://www.w3.org/2000/svg" width="163" height="136" viewBox="0 0 163 136" fill="none"><rect width="163" height="136" fill="#14213D"></rect><path d="M37.0791 86.7217C38.0625 85.2188 39.1572 83.5581 40.3633 81.7397C41.5693 79.9028 42.8403 77.9824 44.1763 75.9785C45.5122 73.9561 46.8945 71.8687 48.3232 69.7163C49.752 67.5454 51.1807 65.3838 52.6094 63.2314C54.0381 61.0605 55.439 58.9175 56.812 56.8022C58.2036 54.6685 59.5303 52.6274 60.792 50.6792C59.9941 50.7349 59.2148 50.772 58.4541 50.7905C57.6934 50.7905 56.9697 50.7998 56.2832 50.8184C55.6152 50.8369 54.9937 50.874 54.4185 50.9297C53.8433 50.9854 53.3423 51.0967 52.9155 51.2637C52.6372 51.3564 52.3403 51.542 52.0249 51.8203C51.728 52.0801 51.4497 52.3955 51.1899 52.7666C50.9487 53.1191 50.7446 53.5088 50.5776 53.9355C50.4292 54.3623 50.355 54.7983 50.355 55.2437C50.355 55.5405 50.3828 55.9116 50.4385 56.3569C50.4941 56.8022 50.5869 57.2476 50.7168 57.6929L50.0767 57.999C48.9634 57.2197 48.082 56.394 47.4326 55.522C46.8018 54.6499 46.4863 53.8335 46.4863 53.0728C46.4863 52.646 46.6255 52.1729 46.9038 51.6533C47.2007 51.1338 47.5625 50.6514 47.9893 50.2061C48.416 49.7422 48.8706 49.3618 49.353 49.0649C49.854 48.7495 50.3086 48.5918 50.7168 48.5918C51.4033 48.5918 52.0342 48.6196 52.6094 48.6753C53.1846 48.731 53.8154 48.7866 54.502 48.8423C55.1885 48.8979 55.9863 48.9536 56.8955 49.0093C57.8047 49.0649 58.9365 49.0928 60.291 49.0928C61.5156 49.0928 62.6567 49.0557 63.7144 48.9814C64.772 48.8887 65.8853 48.7959 67.0542 48.7031L67.1655 49.3154C66.312 50.54 65.375 51.9038 64.3545 53.4067C63.3525 54.8911 62.2949 56.459 61.1816 58.1104C60.0869 59.7617 58.9644 61.4688 57.814 63.2314C56.6821 64.9756 55.5503 66.7197 54.4185 68.4639C53.2866 70.1895 52.1826 71.8779 51.1064 73.5293C50.0303 75.1807 49.019 76.73 48.0728 78.1772C47.1265 79.6245 46.2544 80.9419 45.4565 82.1294C44.6587 83.3169 43.9722 84.3096 43.397 85.1074C44.436 85.0518 45.373 85.0146 46.208 84.9961C47.0615 84.959 47.8315 84.9126 48.5181 84.8569C49.2231 84.8013 49.8633 84.7363 50.4385 84.6621C51.0137 84.5693 51.5425 84.4395 52.0249 84.2725C52.3032 84.1611 52.5815 83.9478 52.8599 83.6323C53.1567 83.3169 53.4165 82.9458 53.6392 82.519C53.8804 82.0923 54.0752 81.6284 54.2236 81.1274C54.3906 80.6265 54.4741 80.1533 54.4741 79.708C54.4741 79.4482 54.4556 79.1235 54.4185 78.7339C54.3813 78.3257 54.3071 77.8896 54.1958 77.4258L54.8081 77.0361C55.3462 77.3887 55.8379 77.7783 56.2832 78.2051C56.7285 78.6133 57.1089 79.0308 57.4243 79.4575C57.7397 79.8843 57.981 80.311 58.1479 80.7378C58.3149 81.1646 58.3984 81.5635 58.3984 81.9346C58.3984 82.3428 58.25 82.853 57.9531 83.4653C57.6562 84.0776 57.2852 84.6714 56.8398 85.2466C56.3945 85.8032 55.8936 86.2856 55.3369 86.6938C54.7988 87.0835 54.2793 87.2783 53.7783 87.2783C53.2031 87.2783 52.6372 87.2505 52.0806 87.1948C51.5425 87.1392 50.9116 87.0835 50.188 87.0278C49.4829 86.9722 48.6572 86.9165 47.7109 86.8608C46.7646 86.8052 45.6143 86.7773 44.2598 86.7773C43.0352 86.7773 41.8662 86.833 40.7529 86.9443C39.6211 87.0557 38.4707 87.167 37.3018 87.2783L37.0791 86.7217ZM72.3428 55.7725C72.7324 55.7725 73.085 55.9395 73.4004 56.2734C73.7158 56.5889 73.8735 57.0435 73.8735 57.6372C73.8735 58.2124 73.7437 58.769 73.4839 59.3071C73.2427 59.8267 72.9365 60.2905 72.5654 60.6987C72.1943 61.1069 71.7769 61.4316 71.313 61.6729C70.8677 61.9141 70.4502 62.0347 70.0605 62.0347C69.8936 62.0347 69.708 62.0161 69.5039 61.979C69.3184 61.9233 69.1421 61.8306 68.9751 61.7007C68.8081 61.5522 68.6689 61.3574 68.5576 61.1162C68.4463 60.875 68.3906 60.5688 68.3906 60.1978C68.3906 59.6597 68.502 59.1309 68.7246 58.6113C68.9658 58.0732 69.272 57.6001 69.6431 57.1919C70.0327 56.7651 70.4595 56.4219 70.9233 56.1621C71.3872 55.9023 71.8604 55.7725 72.3428 55.7725ZM70.979 65.7363C70.7749 66.0146 70.5244 66.46 70.2275 67.0723C69.9492 67.6846 69.6431 68.4175 69.3091 69.271C68.9751 70.106 68.6318 71.0151 68.2793 71.9985C67.9268 72.9819 67.5742 73.9839 67.2217 75.0044C66.8877 76.0063 66.5723 76.9897 66.2754 77.9546C65.9785 78.9009 65.7095 79.7729 65.4683 80.5708C65.2456 81.3501 65.0693 82.0181 64.9395 82.5747C64.8096 83.1128 64.7446 83.4653 64.7446 83.6323C64.7446 83.9849 64.8838 84.1611 65.1621 84.1611C65.3848 84.1426 65.7002 84.0405 66.1084 83.855C66.5166 83.6694 66.9805 83.3911 67.5 83.02C68.0381 82.6489 68.6226 82.1758 69.2534 81.6006C69.8843 81.0254 70.5337 80.3389 71.2017 79.541L71.814 80.0977C70.9976 81.1367 70.1069 82.1016 69.1421 82.9922C68.1958 83.8643 67.2495 84.6343 66.3032 85.3022C65.3755 85.9517 64.4941 86.4619 63.6592 86.833C62.8242 87.2041 62.1284 87.3896 61.5718 87.3896C61.4233 87.3896 61.2842 87.334 61.1543 87.2227C61.0244 87.1299 60.9131 87.0371 60.8203 86.9443C60.5049 86.5732 60.3379 86.2485 60.3193 85.9702C60.2822 85.6919 60.2637 85.4043 60.2637 85.1074C60.2637 84.6807 60.3843 83.9663 60.6255 82.9644C60.8481 81.9624 61.1357 80.8306 61.4883 79.5688C61.8408 78.2886 62.2397 76.9526 62.6851 75.561C63.1118 74.1694 63.5293 72.8799 63.9375 71.6924C64.3643 70.5049 64.7446 69.4937 65.0786 68.6587C65.4312 67.8237 65.7002 67.3228 65.8857 67.1558C66.2568 66.8218 66.7207 66.5527 67.2773 66.3486C67.834 66.126 68.3813 65.959 68.9194 65.8477C69.5317 65.7178 70.1812 65.625 70.8677 65.5693L70.979 65.7363ZM84.1719 58.834C84.2832 58.7041 84.4038 58.5 84.5337 58.2217C84.6636 57.9248 84.7842 57.5908 84.8955 57.2197C85.0068 56.8301 85.0903 56.4126 85.146 55.9673C85.2202 55.5034 85.2573 55.0396 85.2573 54.5757C85.2573 53.6479 85.0718 52.9707 84.7007 52.5439C84.3481 52.0986 83.9492 51.876 83.5039 51.876C83.2627 51.876 83.0122 51.9502 82.7524 52.0986C82.4927 52.2471 82.2607 52.479 82.0566 52.7944C81.8525 53.0913 81.6763 53.4717 81.5278 53.9355C81.3979 54.3994 81.333 54.9561 81.333 55.6055C81.333 55.9395 81.4072 56.5332 81.5557 57.3867C81.7227 58.2402 81.9268 59.2422 82.168 60.3926C82.4092 61.543 82.6597 62.7954 82.9194 64.1499C83.1978 65.4858 83.4575 66.8218 83.6987 68.1577C83.9399 69.4937 84.1348 70.7739 84.2832 71.9985C84.4502 73.2046 84.5337 74.2529 84.5337 75.1436C84.5337 76.0342 84.376 76.9712 84.0605 77.9546C83.7637 78.9194 83.374 79.875 82.8916 80.8213C82.4092 81.749 81.8804 82.6304 81.3052 83.4653C80.73 84.3003 80.1733 85.0425 79.6353 85.6919C79.0972 86.3228 78.6147 86.8237 78.188 87.1948C77.7612 87.5659 77.4551 87.7515 77.2695 87.7515C76.9541 87.7515 76.6572 87.7329 76.3789 87.6958C76.1191 87.6587 75.8315 87.5752 75.5161 87.4453C74.9224 87.1113 74.3101 86.6846 73.6792 86.165C73.0669 85.6455 72.4824 85.0796 71.9258 84.4673C71.3506 83.855 70.8311 83.2334 70.3672 82.6025C69.8848 81.9531 69.4951 81.3315 69.1982 80.7378C69.625 80.144 70.0703 79.5688 70.5342 79.0122C70.9238 78.5298 71.3599 78.0288 71.8423 77.5093C72.3062 76.9897 72.77 76.5259 73.2339 76.1177H73.2896C73.5679 76.8413 73.9204 77.6392 74.3472 78.5112C74.7739 79.3833 75.2285 80.1997 75.7109 80.9604C76.2119 81.7212 76.7222 82.3613 77.2417 82.8809C77.7612 83.3818 78.2529 83.6323 78.7168 83.6323C78.8096 83.6323 78.9487 83.6045 79.1343 83.5488C79.3384 83.4932 79.5332 83.3726 79.7188 83.187C79.9043 82.9829 80.062 82.686 80.1919 82.2964C80.3403 81.8882 80.4146 81.3315 80.4146 80.6265C80.4146 80.144 80.3218 79.3369 80.1362 78.2051C79.9692 77.0732 79.7466 75.7837 79.4683 74.3364C79.1899 72.8892 78.8931 71.3677 78.5776 69.772C78.2808 68.1763 77.9932 66.6733 77.7148 65.2632C77.4365 63.853 77.2046 62.6191 77.019 61.5615C76.8521 60.4854 76.7686 59.7524 76.7686 59.3628C76.7686 58.5464 76.9355 57.7578 77.2695 56.9971C77.6221 56.2178 78.0303 55.5034 78.4941 54.854C78.9766 54.186 79.4683 53.6016 79.9692 53.1006C80.4702 52.5996 80.8691 52.21 81.166 51.9316C81.6113 51.5605 82.103 51.1616 82.6411 50.7349C83.1978 50.3081 83.7451 49.9092 84.2832 49.5381C84.8398 49.167 85.3594 48.8608 85.8418 48.6196C86.3242 48.3599 86.7231 48.23 87.0386 48.23C87.354 48.23 87.6416 48.3042 87.9014 48.4526C88.1611 48.5825 88.3838 48.8237 88.5693 49.1763C88.7734 49.5103 88.9219 49.9834 89.0146 50.5957C89.126 51.1895 89.1816 51.9595 89.1816 52.9058C89.1816 53.3325 89.1074 53.75 88.959 54.1582C88.8291 54.5479 88.6528 54.9375 88.4302 55.3271C88.2075 55.6982 87.957 56.0601 87.6787 56.4126C87.4004 56.7466 87.1128 57.062 86.8159 57.3589C86.1108 58.064 85.3223 58.7134 84.4502 59.3071L84.1719 58.834ZM103.543 79.6523C102.727 80.6357 101.846 81.5913 100.899 82.519C99.9717 83.4282 99.0532 84.2354 98.144 84.9404C97.2534 85.6455 96.4185 86.2114 95.6392 86.6382C94.8599 87.0649 94.2104 87.2783 93.6909 87.2783C93.5796 87.2783 93.4404 87.2227 93.2734 87.1113C93.1064 87.0186 92.9951 86.9258 92.9395 86.833C92.7354 86.4619 92.5869 85.998 92.4941 85.4414C92.4199 84.8662 92.3828 84.3374 92.3828 83.855C92.3828 83.7065 92.4014 83.5024 92.4385 83.2427C92.4941 82.9644 92.5498 82.6768 92.6055 82.3799C91.9932 83.0293 91.353 83.6602 90.6851 84.2725C90.0356 84.8662 89.4048 85.395 88.7925 85.8589C88.1987 86.3228 87.6699 86.6938 87.2061 86.9722C86.7236 87.2505 86.3711 87.3896 86.1484 87.3896C86 87.3896 85.8794 87.334 85.7866 87.2227C85.6753 87.1113 85.5825 86.9629 85.5083 86.7773C85.4155 86.5918 85.3506 86.397 85.3135 86.1929C85.2578 85.9888 85.2207 85.7847 85.2021 85.5806C85.1465 84.9312 85.1743 84.2261 85.2856 83.4653C85.3784 82.686 85.5176 81.8975 85.7031 81.0996C85.8887 80.3018 86.1021 79.5225 86.3433 78.7617C86.5659 77.9824 86.7886 77.2773 87.0112 76.6465C87.2339 75.9971 87.4287 75.4497 87.5957 75.0044C87.7627 74.5591 87.874 74.2622 87.9297 74.1138C88.0039 73.8911 88.1245 73.6313 88.2915 73.3345C88.4771 73.019 88.6812 72.7129 88.9038 72.416C89.1265 72.1006 89.3491 71.8037 89.5718 71.5254C89.813 71.2285 90.0449 70.9688 90.2676 70.7461C90.6758 70.3564 91.2046 69.939 91.854 69.4937C92.5034 69.0483 93.2085 68.6123 93.9692 68.1855C94.7485 67.7588 95.5464 67.3413 96.3628 66.9331C97.1792 66.5249 97.9492 66.1724 98.6729 65.8755C99.415 65.5786 100.074 65.3374 100.649 65.1519C101.224 64.9663 101.66 64.8735 101.957 64.8735C102.217 64.8735 102.439 64.8828 102.625 64.9014C102.829 64.9199 102.987 64.9478 103.098 64.9849L103.154 65.124C102.95 65.3838 102.699 65.8291 102.402 66.46C102.105 67.0908 101.781 67.8237 101.428 68.6587C101.076 69.4937 100.714 70.4121 100.343 71.4141C99.9717 72.416 99.6006 73.4272 99.2295 74.4478C98.877 75.4683 98.543 76.4702 98.2275 77.4536C97.9121 78.4185 97.6245 79.2998 97.3647 80.0977C97.1235 80.8955 96.9287 81.5728 96.7803 82.1294C96.6504 82.6675 96.5854 83.02 96.5854 83.187C96.5854 83.521 96.7246 83.688 97.0029 83.688C97.1885 83.6694 97.4854 83.5674 97.8936 83.3818C98.3018 83.1777 98.7749 82.8809 99.313 82.4912C99.8511 82.1016 100.426 81.6284 101.039 81.0718C101.669 80.4966 102.3 79.8286 102.931 79.0679L103.543 79.6523ZM89.8779 83.354C90.0264 83.354 90.2212 83.2705 90.4624 83.1035C90.7036 82.9365 90.9634 82.7231 91.2417 82.4634C91.52 82.2036 91.8169 81.9067 92.1323 81.5728C92.4478 81.2202 92.7539 80.8677 93.0508 80.5151C93.2363 79.8657 93.4404 79.1514 93.6631 78.3721C93.9043 77.5928 94.1548 76.7949 94.4146 75.9785C94.6743 75.1621 94.9434 74.3457 95.2217 73.5293C95.5 72.7129 95.769 71.9429 96.0288 71.2192C96.3071 70.4771 96.5669 69.8091 96.8081 69.2153C97.0493 68.603 97.2627 68.0928 97.4482 67.6846C97.1514 67.7773 96.7617 67.9165 96.2793 68.1021C95.7969 68.269 95.2588 68.5845 94.665 69.0483C94.1641 69.438 93.6909 70.0225 93.2456 70.8018C92.8003 71.5811 92.3921 72.4624 92.021 73.4458C91.6499 74.4106 91.3066 75.4126 90.9912 76.4517C90.6943 77.4907 90.4346 78.4556 90.2119 79.3462C90.0078 80.2368 89.8501 80.9976 89.7388 81.6284C89.6274 82.2593 89.5718 82.6396 89.5718 82.7695C89.5718 82.918 89.5811 83.0571 89.5996 83.187C89.6367 83.2983 89.7295 83.354 89.8779 83.354ZM104.379 87C104.175 87.0371 103.952 87.0649 103.711 87.0835C103.284 87.1392 102.728 87.167 102.041 87.167C101.726 87.167 101.392 87.1484 101.039 87.1113C100.687 87.0928 100.343 87.0557 100.009 87L99.8145 86.7217C99.9072 86.5361 100.074 86.1558 100.315 85.5806C100.538 85.0054 100.807 84.3096 101.123 83.4932C101.419 82.6768 101.753 81.7676 102.125 80.7656C102.477 79.7637 102.83 78.7432 103.182 77.7041C103.535 76.665 103.878 75.6445 104.212 74.6426C104.546 73.6406 104.833 72.7222 105.075 71.8872C105.334 71.0522 105.539 70.3472 105.687 69.772C105.854 69.1782 105.938 68.7793 105.938 68.5752C105.938 68.3711 105.91 68.2134 105.854 68.1021C105.817 67.9907 105.78 67.8887 105.743 67.7959C105.687 67.7217 105.631 67.6475 105.576 67.5732V67.1558C106.002 66.896 106.503 66.6641 107.079 66.46C107.654 66.2559 108.21 66.0889 108.749 65.959C109.361 65.8105 110.001 65.6807 110.669 65.5693L110.78 65.7363C110.78 65.959 110.734 66.3208 110.641 66.8218C110.548 67.3228 110.437 67.8608 110.307 68.436C110.177 69.0112 110.038 69.5771 109.89 70.1338C109.76 70.6719 109.658 71.1079 109.583 71.4419C110.159 70.7183 110.743 69.9946 111.337 69.271C111.931 68.5288 112.497 67.8701 113.035 67.2949C113.591 66.7197 114.102 66.2559 114.565 65.9033C115.029 65.5322 115.419 65.3467 115.734 65.3467C115.864 65.3467 116.087 65.4116 116.402 65.5415C116.736 65.6528 117.08 65.8384 117.432 66.0981C117.785 66.3394 118.091 66.6548 118.351 67.0444C118.629 67.4155 118.777 67.8701 118.796 68.4082C118.796 68.5938 118.666 69.0205 118.406 69.6885C118.146 70.3564 117.822 71.1543 117.432 72.082C117.061 73.0098 116.653 74.021 116.208 75.1157C115.762 76.2104 115.345 77.2866 114.955 78.3442C114.584 79.4019 114.269 80.3853 114.009 81.2944C113.749 82.2036 113.619 82.9458 113.619 83.521C113.619 83.7437 113.638 83.9106 113.675 84.022C113.73 84.1147 113.842 84.1611 114.009 84.1611C114.213 84.1426 114.519 84.0405 114.927 83.855C115.335 83.6509 115.809 83.354 116.347 82.9644C116.885 82.5747 117.46 82.1016 118.072 81.5449C118.703 80.9697 119.325 80.3018 119.937 79.541L120.577 80.0977C119.798 81.0811 118.917 82.0181 117.933 82.9087C116.968 83.7808 116.013 84.5508 115.066 85.2188C114.12 85.8867 113.229 86.4155 112.395 86.8052C111.56 87.1948 110.882 87.3896 110.363 87.3896C110.27 87.3896 110.149 87.3525 110.001 87.2783C109.853 87.2041 109.704 87.0835 109.556 86.9165C109.407 86.7495 109.277 86.5176 109.166 86.2207C109.055 85.9238 108.999 85.5527 108.999 85.1074C108.999 84.8848 109.027 84.6064 109.083 84.2725C109.138 83.9199 109.203 83.5674 109.277 83.2148C109.352 82.8438 109.426 82.5098 109.5 82.2129C109.593 81.8975 109.658 81.6655 109.695 81.5171C109.862 80.8677 110.094 80.144 110.391 79.3462C110.706 78.5298 111.04 77.6855 111.393 76.8135C111.745 75.9414 112.107 75.0786 112.478 74.2251C112.849 73.353 113.183 72.5459 113.48 71.8037C113.777 71.043 114.018 70.3843 114.204 69.8276C114.389 69.2524 114.482 68.8164 114.482 68.5195C114.482 68.2598 114.408 68.1299 114.259 68.1299C114.074 68.1299 113.749 68.334 113.285 68.7422C112.84 69.1504 112.339 69.6606 111.782 70.2729C111.244 70.8667 110.697 71.4976 110.14 72.1655C109.583 72.8149 109.11 73.3901 108.721 73.8911C108.331 75.0229 107.923 76.1919 107.496 77.3979C107.069 78.5854 106.661 79.7637 106.271 80.9326C105.882 82.083 105.52 83.1777 105.186 84.2168C104.871 85.2559 104.602 86.1836 104.379 87Z" fill="white"></path></svg>