<svg width="32" height="32" viewBox="0 0 32 32" fill="none" xmlns="http://www.w3.org/2000/svg">
<path d="M19.333 19.3333L20.9997 21L24.333 17.6666" stroke="#6B7280" stroke-width="0.833333" stroke-linecap="round" stroke-linejoin="round"/>
<path d="M23.5 14.3333V12.6666C23.4997 12.3744 23.4225 12.0873 23.2763 11.8343C23.13 11.5812 22.9198 11.3711 22.6667 11.225L16.8333 7.89163C16.58 7.74535 16.2926 7.66833 16 7.66833C15.7074 7.66833 15.42 7.74535 15.1667 7.89163L9.33333 11.225C9.08022 11.3711 8.86998 11.5812 8.72372 11.8343C8.57745 12.0873 8.5003 12.3744 8.5 12.6666V19.3333C8.5003 19.6256 8.57745 19.9126 8.72372 20.1657C8.86998 20.4187 9.08022 20.6288 9.33333 20.775L15.1667 24.1083C15.42 24.2546 15.7074 24.3316 16 24.3316C16.2926 24.3316 16.58 24.2546 16.8333 24.1083L18.5 23.1583" stroke="#6B7280" stroke-width="0.833333" stroke-linecap="round" stroke-linejoin="round"/>
<path d="M19.7503 13.8333L12.292 9.53333" stroke="#6B7280" stroke-width="0.833333" stroke-linecap="round" stroke-linejoin="round"/>
<path d="M8.74121 11.8334L15.9995 16L23.2579 11.8334" stroke="#6B7280" stroke-width="0.833333" stroke-linecap="round" stroke-linejoin="round"/>
<path d="M16 24.3333V16" stroke="#6B7280" stroke-width="0.833333" stroke-linecap="round" stroke-linejoin="round"/>
</svg>
