<svg width="32" height="32" viewBox="0 0 32 32" fill="none" xmlns="http://www.w3.org/2000/svg">
<path d="M19.333 19.3334L20.9997 21.0001L24.333 17.6667" stroke="#6005FF" stroke-width="0.833333" stroke-linecap="round" stroke-linejoin="round"/>
<path d="M23.5 14.3332V12.6665C23.4997 12.3742 23.4225 12.0872 23.2763 11.8341C23.13 11.5811 22.9198 11.371 22.6667 11.2248L16.8333 7.8915C16.58 7.74522 16.2926 7.66821 16 7.66821C15.7074 7.66821 15.42 7.74522 15.1667 7.8915L9.33333 11.2248C9.08022 11.371 8.86998 11.5811 8.72372 11.8341C8.57745 12.0872 8.5003 12.3742 8.5 12.6665V19.3332C8.5003 19.6254 8.57745 19.9125 8.72372 20.1655C8.86998 20.4186 9.08022 20.6287 9.33333 20.7748L15.1667 24.1082C15.42 24.2545 15.7074 24.3315 16 24.3315C16.2926 24.3315 16.58 24.2545 16.8333 24.1082L18.5 23.1582" stroke="#6005FF" stroke-width="0.833333" stroke-linecap="round" stroke-linejoin="round"/>
<path d="M19.7503 13.8334L12.292 9.53345" stroke="#6005FF" stroke-width="0.833333" stroke-linecap="round" stroke-linejoin="round"/>
<path d="M8.74121 11.8333L15.9995 15.9999L23.2579 11.8333" stroke="#6005FF" stroke-width="0.833333" stroke-linecap="round" stroke-linejoin="round"/>
<path d="M16 24.3333V16" stroke="#6005FF" stroke-width="0.833333" stroke-linecap="round" stroke-linejoin="round"/>
</svg>
